<svg width="360" height="140" viewBox="0 0 360 140" fill="none" xmlns="http://www.w3.org/2000/svg">
<path d="M0 5C0 2.23857 2.23858 0 5 0H355C357.761 0 360 2.23858 360 5V135C360 137.761 357.761 140 355 140H5C2.23858 140 0 137.761 0 135V5Z" fill="#FFD8EF"/>
<path d="M219.833 40.666H246.833V75.666H219.833V40.666Z" fill="url(#paint0_linear_19284_48)"/>
<path d="M329.888 115.508C329.888 116.042 303.722 117.999 271.444 117.999C239.166 117.999 213 116.042 213 115.508C213 114.975 239.166 114.542 271.444 114.542C303.722 114.542 329.888 114.975 329.888 115.508Z" fill="#324D8D"/>
<path d="M222.645 83.9962C222.645 83.7626 222.834 83.5732 223.068 83.5732H238.014C238.248 83.5732 238.437 83.7626 238.437 83.9962V114.594C238.437 114.828 238.248 115.017 238.014 115.017H223.068C222.834 115.017 222.645 114.828 222.645 114.594V83.9962Z" fill="url(#paint1_linear_19284_48)"/>
<path d="M223.35 84.8422C223.35 84.6086 223.539 84.4192 223.773 84.4192H237.168C237.402 84.4192 237.591 84.6086 237.591 84.8422V96.8276C237.591 97.0612 237.402 97.2506 237.168 97.2506H223.773C223.539 97.2506 223.35 97.0612 223.35 96.8276V84.8422Z" fill="url(#paint2_linear_19284_48)"/>
<path d="M223.491 99.3659C223.491 99.1323 223.68 98.9429 223.914 98.9429H237.309C237.543 98.9429 237.732 99.1323 237.732 99.3659V111.351C237.732 111.585 237.543 111.774 237.309 111.774H223.914C223.68 111.774 223.491 111.585 223.491 111.351V99.3659Z" fill="url(#paint3_linear_19284_48)"/>
<path d="M217.64 84.817C217.639 84.7499 217.686 84.6917 217.752 84.678L222.897 83.6089C222.985 83.5907 223.067 83.6579 223.067 83.7476L222.927 114.823C222.927 114.894 222.874 114.954 222.804 114.962L218.008 115.562C217.924 115.572 217.85 115.507 217.849 115.423L217.64 84.817Z" fill="url(#paint4_linear_19284_48)"/>
<path d="M228.572 89.578C228.578 89.3484 228.765 89.1651 228.995 89.1651H230.864C231.095 89.1651 231.283 89.35 231.287 89.5807L231.413 96.7719C231.417 97.0084 231.227 97.2023 230.99 97.2023H228.822C228.585 97.2023 228.394 97.0067 228.4 96.7692L228.572 89.578Z" fill="#FFBBB6"/>
<path d="M226.249 89.5881C226.249 89.3545 226.438 89.1651 226.672 89.1651H228.724C228.955 89.1651 229.143 89.35 229.147 89.5807L229.273 96.7719C229.277 97.0084 229.086 97.2023 228.85 97.2023H226.672C226.438 97.2023 226.249 97.013 226.249 96.7793L226.249 89.5881Z" fill="url(#paint5_linear_19284_48)"/>
<path d="M223.499 89.5886C223.499 89.355 223.689 89.1656 223.922 89.1656H226.115C226.346 89.1656 226.534 89.3505 226.538 89.5812L226.664 96.7724C226.668 97.0089 226.478 97.2029 226.241 97.2029H223.922C223.689 97.2029 223.499 97.0135 223.499 96.7799V89.5886Z" fill="url(#paint6_linear_19284_48)"/>
<path d="M312.323 79.273C317.716 93.329 311.691 115.333 291.999 115.333C270.166 115.333 246.43 119.036 241.75 106.839C236.356 92.7834 249.537 74.9684 268.674 67.6248C287.811 60.2812 306.929 65.2171 312.323 79.273Z" fill="url(#paint7_linear_19284_48)"/>
<path d="M280.316 94.9248C278.906 97.4065 274.605 97.7449 272.631 97.6039L281.233 77.5108L300.903 71.8001C301.279 71.9881 301.636 73.1537 300.057 76.3122C298.083 80.2604 289.622 83.1509 287.366 84.0675C285.11 84.984 282.079 91.8227 280.316 94.9248Z" fill="#835FD2" fill-opacity="0.5"/>
<path d="M270.852 67.937L270.373 72.9977V74.9717H273.754C273.836 74.9717 273.905 74.9095 273.913 74.8278L274.587 68.2261C274.596 68.1365 274.529 68.0569 274.44 68.0501L271.024 67.7923C270.937 67.7858 270.86 67.8501 270.852 67.937Z" fill="url(#paint8_linear_19284_48)"/>
<path d="M270.61 81.7376L272.49 80.5412L274.253 82.8678L273.054 86.8159C271.033 87.2389 266.568 88.099 264.876 88.1554C262.761 88.226 261.915 86.8159 262.267 84.7713C262.604 82.821 269.106 75.2536 269.035 74.9715C268.965 74.6895 269.177 72.081 269.318 71.5875C269.459 71.0939 272.49 70.8119 273.054 71.0939C273.398 71.2658 272.44 71.8716 271.622 72.3374C271.485 72.4151 271.558 72.6379 271.714 72.6226C272.277 72.5675 272.909 72.5359 273.054 72.645C273.257 72.7971 272.601 73.7201 272.143 74.2978C272.077 74.3806 272.123 74.4869 272.226 74.4621C272.569 74.3794 273.009 74.1167 273.054 74.478C273.107 74.9048 271.799 78.7494 270.404 81.5509C270.34 81.6802 270.488 81.8151 270.61 81.7376Z" fill="#FEA199"/>
<path d="M270.318 87.355C268.838 87.632 267.207 87.9114 266.003 88.0561C267.651 87.3422 271.828 84.5181 274.072 82.6271L274.144 82.7215L270.318 87.355Z" fill="#E18379"/>
<path d="M302.17 72.645C301.719 74.6755 294.768 76.8516 291.525 77.6507L290.326 72.363C290.326 72.363 285.109 73.068 283.346 73.2795C281.584 73.491 279.539 73.7166 279.257 73.491C279.047 73.3231 279.098 72.9493 279.234 72.6432C279.288 72.5218 279.205 72.359 279.075 72.3352C278.763 72.2787 278.411 72.1139 278.411 71.658C278.411 70.9891 279.328 71.1645 279.046 70.8119C278.525 70.1617 278.74 70.0364 279.046 69.6134C282.03 69.4959 289.677 68.5277 294.979 68.1329C301.606 67.6394 302.734 70.1069 302.17 72.645Z" fill="#FEA199"/>
<path d="M279.996 69.5599C281.545 69.4522 283.763 69.2248 286.172 68.9745L284.756 70.8828C284.515 71.4387 284.387 72.1918 284.281 72.8161C284.259 72.9405 284.239 73.0597 284.219 73.1713C283.88 73.2144 283.582 73.2512 283.346 73.2795C282.289 73.4064 281.131 73.5387 280.312 73.5753C280.672 72.9252 281.084 72.1306 280.808 72.2224C280.115 72.4534 279.517 71.2164 279.996 69.5599Z" fill="#FC98A6"/>
<path d="M290.338 72.4228L290.325 72.3635C290.325 72.3635 287.087 72.8011 284.851 73.0902C286.716 72.4555 292.933 71.306 292.933 71.306L290.338 72.4228Z" fill="#E18379"/>
<path d="M299.296 74.9904C296.874 76.16 293.507 77.1623 291.525 77.6507L291.223 76.3206C291.526 76.6028 291.894 76.8758 292.511 76.8758C293.01 76.8758 294.823 76.3158 296.486 75.8018C297.679 75.4331 298.796 75.0881 299.296 74.9904Z" fill="#FC98A6"/>
<path d="M301.787 73.3327C301.987 73.1033 302.12 72.8729 302.17 72.645C302.467 71.3087 302.295 69.9926 301.099 69.1172C300.249 69.4102 299.639 70.2169 299.639 71.1661C299.639 72.3568 300.599 73.3231 301.787 73.3327Z" fill="#FC98A6"/>
<path d="M275.101 90.1064C273.521 88.8092 270.213 89.0019 268.756 89.2604C264.267 89.1194 254.923 88.922 253.457 89.2604C251.623 89.6834 244.573 92.2215 243.163 93.3495C241.753 94.4775 228.146 110.623 227.653 110.764C227.159 110.905 224.511 110.598 224.621 110.764C226.313 113.302 231.037 115.981 232.094 115.91C232.94 115.854 233.293 114.782 233.293 114.289C233.786 113.795 234.858 112.371 238.863 108.084C243.868 102.726 254.655 98.1436 255.572 97.7911C256.488 97.4386 267.627 98.2141 272.351 97.7911C274.205 97.6251 277.474 94.8065 278.414 93.702C278.179 92.903 276.68 91.4036 275.101 90.1064Z" fill="url(#paint9_linear_19284_48)"/>
<path d="M233.374 114.206L227.874 110.577C227.758 110.691 227.682 110.755 227.653 110.764C227.403 110.835 226.602 110.792 225.886 110.753C225.186 110.716 224.567 110.682 224.621 110.764C226.313 113.302 231.037 115.981 232.094 115.91C232.94 115.854 233.293 114.782 233.293 114.289C233.318 114.263 233.345 114.236 233.374 114.206Z" fill="#FDFDFD"/>
<path d="M262.341 97.8125C262.071 97.8049 261.804 97.7974 261.541 97.7899C258.488 97.7032 255.987 97.6322 255.573 97.7915C255.181 97.9421 252.987 98.8651 250.212 100.291L242.607 93.8903C242.862 93.6251 243.052 93.4398 243.164 93.3498C244.574 92.2218 251.625 89.6837 253.458 89.2607C253.574 89.2338 253.741 89.2102 253.951 89.1898L262.341 97.8125Z" fill="#C84D74" fill-opacity="0.65"/>
<path d="M272.348 80.0476C272.291 80.386 273.264 82.2567 273.687 82.7972C272.371 84.3248 269.105 87.6901 268.823 89.2129C276.225 89.7769 277.685 94.0725 278.27 93.866C279.469 93.4431 285.814 80.2592 286.307 79.7657C286.801 79.2722 291.242 78.2852 291.454 77.8622C291.665 77.4392 290.608 72.7155 290.467 72.363C290.326 72.0105 279.821 74.901 278.623 74.901C277.424 74.901 272.418 79.6246 272.348 80.0476Z" fill="url(#paint10_linear_19284_48)"/>
<path d="M273.642 82.7361L276.508 78.7784L273.28 82.167C273.414 82.3964 273.54 82.5965 273.642 82.7361Z" fill="#ADD1E7"/>
<path d="M280.175 71.3052C279.761 70.4778 280.034 67.4276 281.021 65.8764C282.008 64.3253 282.572 64.1844 283.559 64.0434C283.559 64.0434 284.427 63.9525 285.11 64.3254C285.886 64.7485 286.168 65.8666 286.168 68.1326C286.168 70.3886 284.828 70.4591 284.546 70.6706C284.321 70.8398 284.123 72.9032 284.053 73.9137L279.629 75.5402C279.504 75.5859 279.391 75.4505 279.459 75.3364L281.26 72.2741C281.313 72.1845 281.254 72.0654 281.154 72.0395C280.878 71.9688 280.414 71.7823 280.175 71.3052Z" fill="#FFBBB6"/>
<path d="M285.664 64.8769C286.025 65.4902 286.168 66.521 286.168 68.1326C286.168 69.3787 285.759 69.9582 285.346 70.2628C285.308 70.1715 285.335 69.9848 285.365 69.774C285.409 69.4609 285.462 69.0945 285.322 68.9082C285.198 68.7432 284.921 68.744 284.682 68.7447C284.466 68.7453 284.281 68.7459 284.264 68.6262C284.238 68.4398 284.253 68.3138 284.267 68.2025C284.29 68.0191 284.308 67.8758 284.123 67.5687C283.912 67.2162 282.512 66.6991 281.303 67.1457C281.249 67.1659 281.198 67.1853 281.15 67.2034C280.777 67.3447 280.6 67.4119 280.427 67.2217C280.583 66.7203 280.781 66.2539 281.021 65.8764C281.834 64.5998 282.359 64.2786 283.07 64.1262C283.094 64.1221 283.116 64.1181 283.136 64.1141C283.487 64.0439 285.023 64.1133 285.664 64.8769Z" fill="#E18379"/>
<path d="M280.979 72.7534L281.26 72.2741C281.29 72.2224 281.285 72.161 281.254 72.1132C281.285 72.0925 281.304 72.0809 281.304 72.0809C281.304 72.0809 282.08 72.0104 282.926 71.5873C283.299 71.4008 283.548 71.2417 283.784 71.0919C284.082 70.9019 284.356 70.7269 284.829 70.5298C284.876 70.5102 284.908 70.5006 284.925 70.5C284.871 70.5232 284.821 70.5435 284.775 70.5621C284.676 70.6021 284.595 70.6342 284.546 70.6706C284.505 70.7019 284.465 70.7979 284.426 70.9397C283.43 71.6571 281.315 72.981 281.022 72.7859C281.006 72.7753 280.992 72.7644 280.979 72.7534Z" fill="#FD8F86"/>
<path d="M280.245 66.793C280.165 66.6334 279.963 65.947 280.88 65.0305C281.796 64.1139 282.783 64.0435 283.136 63.9729C283.488 63.9024 284.828 63.8319 285.603 64.6075C286.415 65.419 286.661 67.2865 286.379 68.4851C286.097 69.6836 285.462 70.1771 285.462 70.1771C285.103 70.2532 285.533 69.1903 285.322 68.9082C285.087 68.5951 284.3 68.8791 284.264 68.6262C284.194 68.1327 284.419 67.78 284.123 67.2865C283.911 66.934 282.783 66.1585 281.575 66.6051C280.951 66.8356 280.527 67.3571 280.245 66.793Z" fill="url(#paint11_linear_19284_48)"/>
<path d="M244.052 83.5849C247.377 83.343 261.395 86.8752 268.939 89.2958L253.533 90.0557C253.411 90.0617 253.351 90.2065 253.437 90.293C257.464 94.3378 265.417 102.195 265.417 102.582C265.417 103.076 261.607 111.292 261.043 110.869C260.602 110.539 260.89 107.748 261.254 106.37C261.269 106.312 261.25 106.253 261.201 106.219C254.622 101.575 242.141 92.8832 240.456 90.9171C238.341 88.4496 240.174 83.8669 244.052 83.5849Z" fill="url(#paint12_linear_19284_48)"/>
<path d="M263.693 100.628C264.745 101.726 265.416 102.469 265.416 102.582C265.416 103.075 261.606 111.292 261.042 110.869C260.601 110.538 260.889 107.747 261.253 106.37C261.266 106.32 261.253 106.269 261.219 106.234L263.693 100.628Z" fill="#FDFDFD"/>
<path d="M317.118 93.7654C317.433 96.8411 319.538 105.21 321.277 108.994H326.072C326.26 108.923 327.312 107.584 330.02 102.79C333.404 96.7969 331.437 94.6849 329.738 95.6689C328.398 96.4445 325.649 103.354 325.437 103.283C325.085 103.166 325.508 86.2216 325.085 83.472C324.662 80.7225 322.533 79.7361 321.701 81.216C320.431 83.472 321.019 91.9793 321.277 97.1494C320.784 95.4809 319.571 91.89 318.669 90.8747C317.541 89.6057 316.836 91.0158 317.118 93.7654Z" fill="url(#paint13_linear_19284_48)"/>
<path d="M322.658 80.5348L322.961 94.1388L320.941 89.7156C320.944 89.8574 320.948 89.9996 320.952 90.1419L322.971 94.5605L323.291 108.937L320.1 99.1532V93.7039C320.045 93.5628 319.989 93.4229 319.933 93.285V98.6422L317.373 90.7929C317.336 90.8603 317.302 90.936 317.271 91.0196L319.851 98.9274L317.721 97.2255C317.74 97.3109 317.758 97.3971 317.778 97.4838L319.945 99.216L321.932 105.309L319.403 103.744C319.427 103.825 319.451 103.905 319.475 103.985L322.013 105.555L323.134 108.993H323.459L323.281 101.021L325.28 97.6005C325.28 97.4911 325.28 97.3808 325.28 97.2698L323.274 100.703L323.137 94.552L325.256 87.0089C325.252 86.8115 325.249 86.6193 325.244 86.4328L323.125 93.9809L322.825 80.5304C322.769 80.528 322.713 80.5295 322.658 80.5348Z" fill="#98F2E8"/>
<path d="M328.894 96.6128L328.551 100.307L323.581 108.993H323.773L327.307 102.817L330.673 101.544C330.708 101.471 330.743 101.398 330.777 101.326L327.437 102.59L331.34 95.7691C331.299 95.7285 331.256 95.6918 331.212 95.6588L328.751 99.9583L329.087 96.3374C329.024 96.4232 328.96 96.5153 328.894 96.6128Z" fill="#98F2E8"/>
<path d="M329.387 107.667H319.462C319.378 107.667 319.313 107.736 319.322 107.819C319.435 108.867 320.105 114.963 320.363 115.069C320.645 115.186 328.33 115.187 328.612 115.069C328.888 114.954 329.502 110.061 329.527 107.806C329.528 107.728 329.465 107.667 329.387 107.667Z" fill="url(#paint14_linear_19284_48)"/>
<path d="M234.347 52.8092C234.347 51.8887 235.093 51.1425 236.014 51.1425H255.523C256.443 51.1425 257.19 51.8887 257.19 52.8092V71.1905C257.19 72.111 256.443 72.8572 255.523 72.8572H236.014C235.093 72.8572 234.347 72.111 234.347 71.1905V52.8092Z" fill="url(#paint15_linear_19284_48)"/>
<path d="M242.133 57.3611C242.197 56.8689 242.616 56.5004 243.112 56.5004H248.562C249.061 56.5004 249.481 56.8723 249.542 57.3673L250.64 66.3211C250.712 66.9094 250.253 67.4282 249.66 67.4282H241.957C241.362 67.4282 240.902 66.9052 240.978 66.3149L242.133 57.3611Z" fill="white" fill-opacity="0.62"/>
<path d="M250.285 63.4371L250.64 66.3211C250.712 66.9094 250.253 67.4282 249.66 67.4282L246.706 67.429C246.573 67.0895 246.5 66.7199 246.5 66.3333C246.5 64.6764 247.843 63.3333 249.5 63.3333C249.772 63.3333 250.035 63.3694 250.285 63.4371Z" fill="#FFFDFD" fill-opacity="0.81"/>
<path d="M262.126 41.0506C262.126 40.005 262.974 39.1573 264.019 39.1573H279.832C280.878 39.1573 281.725 40.005 281.725 41.0506V55.8765C281.725 56.9222 280.878 57.7699 279.832 57.7699H264.019C262.974 57.7699 262.126 56.9222 262.126 55.8765V41.0506Z" fill="url(#paint16_linear_19284_48)"/>
<path d="M266.498 46.0022C266.395 45.7258 266.6 45.4317 266.894 45.4317H275.162C275.243 45.4317 275.307 45.4989 275.303 45.5792L275.059 50.8226C275.042 51.1988 274.732 51.4948 274.355 51.4948H269.032C268.737 51.4948 268.474 51.3117 268.371 51.0357L266.498 46.0022Z" fill="white"/>
<path d="M270.869 51.9883C270.869 52.4556 270.49 52.8344 270.023 52.8344C269.556 52.8344 269.177 52.4556 269.177 51.9883C269.177 51.5211 269.556 51.1423 270.023 51.1423C270.49 51.1423 270.869 51.5211 270.869 51.9883Z" fill="white"/>
<path d="M274.253 51.9883C274.253 52.4556 273.874 52.8344 273.407 52.8344C272.939 52.8344 272.561 52.4556 272.561 51.9883C272.561 51.5211 272.939 51.1423 273.407 51.1423C273.874 51.1423 274.253 51.5211 274.253 51.9883Z" fill="white"/>
<path d="M255.358 39.1577C255.358 43.5187 251.822 47.0539 247.461 47.0539C243.1 47.0539 239.565 43.5187 239.565 39.1577C239.565 34.7967 243.1 31.2614 247.461 31.2614C251.822 31.2614 255.358 34.7967 255.358 39.1577Z" fill="url(#paint17_linear_19284_48)"/>
<path d="M251.409 37.5371C251.409 38.8999 250.304 40.0047 248.941 40.0047C247.578 40.0047 246.474 38.8999 246.474 37.5371C246.474 36.1743 247.578 35.0696 248.941 35.0696C250.304 35.0696 251.409 36.1743 251.409 37.5371Z" fill="white" fill-opacity="0.63"/>
<path d="M246.73 40.3182L246.058 39.747C245.866 39.5836 245.575 39.6237 245.434 39.8329L243.733 42.3561C243.609 42.5405 243.649 42.7898 243.824 42.9264L243.874 42.9652C244.033 43.0886 244.257 43.0833 244.409 42.9524L246.732 40.9617C246.929 40.7924 246.929 40.4867 246.73 40.3182Z" fill="white"/>
<path d="M304.992 53.1871C304.992 53.9269 304.392 54.5266 303.652 54.5266C302.912 54.5266 302.313 53.9269 302.313 53.1871C302.313 52.4472 302.912 51.8475 303.652 51.8475C304.392 51.8475 304.992 52.4472 304.992 53.1871Z" fill="#8FC0C7"/>
<path d="M299.969 52.4823L303.247 49.4153C303.399 49.2731 303.632 49.2627 303.796 49.3906L307.392 52.1932C307.703 52.4357 307.542 52.9344 307.148 52.9495L300.274 53.2139C299.882 53.229 299.683 52.7499 299.969 52.4823Z" fill="#B7E4EB"/>
<path d="M235.275 79.691C235.275 80.11 234.935 80.4497 234.516 80.4497C234.097 80.4497 233.757 80.11 233.757 79.691C233.757 79.2721 234.097 78.9324 234.516 78.9324C234.935 78.9324 235.275 79.2721 235.275 79.691Z" fill="url(#paint18_linear_19284_48)"/>
<path d="M318.333 72.0827C318.333 72.8651 317.699 73.4993 316.916 73.4993C316.134 73.4993 315.5 72.8651 315.5 72.0827C315.5 71.3003 316.134 70.666 316.916 70.666C317.699 70.666 318.333 71.3003 318.333 72.0827Z" fill="url(#paint19_linear_19284_48)"/>
<path d="M259.956 35.2519C259.956 35.7836 259.525 36.2147 258.993 36.2147C258.461 36.2147 258.03 35.7836 258.03 35.2519C258.03 34.7201 258.461 34.2891 258.993 34.2891C259.525 34.2891 259.956 34.7201 259.956 35.2519Z" fill="url(#paint20_linear_19284_48)"/>
<path d="M298.771 90.4501C298.771 90.9818 298.34 91.4129 297.808 91.4129C297.276 91.4129 296.845 90.9818 296.845 90.4501C296.845 89.9183 297.276 89.4873 297.808 89.4873C298.34 89.4873 298.771 89.9183 298.771 90.4501Z" fill="#FFBBB6"/>
<path d="M320 49.9996C320 50.4598 319.627 50.8329 319.166 50.8329C318.706 50.8329 318.333 50.4598 318.333 49.9996C318.333 49.5394 318.706 49.1663 319.166 49.1663C319.627 49.1663 320 49.5394 320 49.9996Z" fill="url(#paint21_linear_19284_48)"/>
<path d="M26 46.2C26 49.6 27.68 53 32.04 53C35.76 53 37.66 50.62 37.78 47.82H35.78C35.44 49.98 34.76 51 32.04 51C29.16 51 28 49.62 28 46.2C28 42.78 29.16 41.4 32.04 41.4C34.76 41.4 35.44 42.42 35.78 44.58H37.78C37.66 41.78 35.76 39.4 32.04 39.4C27.68 39.4 26 42.8 26 46.2Z" fill="#1C294D" fill-opacity="0.8"/>
<path d="M48.7691 43H46.3491L43.6091 47.02H41.9891V43H39.9891V53H41.9891V49.02H43.6091L46.3491 53H48.7691L45.3491 48.02L48.7691 43Z" fill="#1C294D" fill-opacity="0.8"/>
<path d="M57.5703 43L53.0903 49.16H52.7703V43H50.7703V53H52.7703L57.2503 46.84H57.5703V53H59.5703V43H57.5703Z" fill="#1C294D" fill-opacity="0.8"/>
<path d="M71.2009 51V43H63.9609V43.06C63.9609 47.56 63.9609 48.86 62.2209 51H61.1609V56.2H63.1609V53H71.2009V56.2H73.2009V51H71.2009ZM64.4209 51C65.7209 49.22 65.9409 48 65.9609 45H69.2009V51H64.4209Z" fill="#1C294D" fill-opacity="0.8"/>
<path d="M83.9839 43H81.5639L78.8239 47.02H77.2039V43H75.2039V53H77.2039V49.02H78.8239L81.5639 53H83.9839L80.5639 48.02L83.9839 43Z" fill="#1C294D" fill-opacity="0.8"/>
<path d="M93.3444 51V43H86.1444V45H91.3444V47.2C90.7444 46.6 89.9644 46.2 88.5644 46.2C86.1244 46.2 84.9844 47.76 84.9844 49.6C84.9844 51.44 86.1244 53 88.5644 53C89.9644 53 90.7444 52.6 91.3444 52V53H94.5444V51H93.3444ZM89.1644 51C87.7044 51 86.9844 50.7 86.9844 49.6C86.9844 48.5 87.7044 48.2 89.1644 48.2C90.6244 48.2 91.3444 48.5 91.3444 49.6C91.3444 50.7 90.6244 51 89.1644 51Z" fill="#1C294D" fill-opacity="0.8"/>
<path d="M35.6 68H26.2V78H28.2V70H33.6V78H35.6V68Z" fill="#1C294D" fill-opacity="0.8"/>
<path d="M42.9816 68C41.5816 68 40.6016 68.54 40.0016 69.2V68H38.0016V81.2H40.0016V76.8C40.6016 77.46 41.5816 78 42.9816 78C46.2216 78 47.3616 75.94 47.3616 73C47.3616 70.06 46.2216 68 42.9816 68ZM42.6816 76C40.7216 76 40.0016 75.4 40.0016 73C40.0016 70.6 40.7216 70 42.6816 70C44.6416 70 45.3616 70.6 45.3616 73C45.3616 75.4 44.6416 76 42.6816 76Z" fill="#1C294D" fill-opacity="0.8"/>
<path d="M55.9688 68L51.4888 74.16H51.1688V68H49.1688V78H51.1688L55.6488 71.84H55.9688V78H57.9688V68H55.9688Z" fill="#1C294D" fill-opacity="0.8"/>
<path d="M72.337 68C70.937 68 69.957 68.54 69.357 69.2V68H67.357V81.2H69.357V76.8C69.957 77.46 70.937 78 72.337 78C75.577 78 76.717 75.94 76.717 73C76.717 70.06 75.577 68 72.337 68ZM72.037 76C70.077 76 69.357 75.4 69.357 73C69.357 70.6 70.077 70 72.037 70C73.997 70 74.717 70.6 74.717 73C74.717 75.4 73.997 76 72.037 76Z" fill="#1C294D" fill-opacity="0.8"/>
<path d="M86.9642 72.8C86.9642 69.86 85.7242 68 82.6442 68C79.5642 68 78.3242 70.06 78.3242 73C78.3242 74.78 78.8842 78 83.4042 78C84.1642 78 84.7242 78 86.2842 77.6V75.64C84.9842 76 84.2042 76 83.4042 76C81.2242 76 80.5842 75.14 80.4042 74H86.9642V72.8ZM82.6442 70C84.2242 70 84.8842 70.54 84.9642 72H80.3442C80.4642 70.66 81.1442 70 82.6442 70Z" fill="#1C294D" fill-opacity="0.8"/>
<path d="M95.8134 68H88.9734V78H90.9734V70H95.8134V68Z" fill="#1C294D" fill-opacity="0.8"/>
<path d="M104.816 68L100.336 74.16H100.016V68H98.0164V78H100.016L104.496 71.84H104.816V78H106.816V68H104.816Z" fill="#1C294D" fill-opacity="0.8"/>
<path d="M108.617 73C108.617 75.94 110.157 78 113.097 78C115.717 78 117.257 76.38 117.257 74.2H115.257C115.177 75.24 114.757 76 113.197 76C111.337 76 110.617 75.4 110.617 73C110.617 70.6 111.337 70 113.197 70C114.757 70 115.177 70.76 115.257 71.8H117.257C117.257 69.62 115.717 68 113.097 68C110.157 68 108.617 70.06 108.617 73Z" fill="#1C294D" fill-opacity="0.8"/>
<path d="M127.426 68H118.266V70H121.846V78H123.846V70H127.426V68Z" fill="#1C294D" fill-opacity="0.8"/>
<path d="M134.407 68C133.007 68 132.027 68.54 131.427 69.2V68H129.427V81.2H131.427V76.8C132.027 77.46 133.007 78 134.407 78C137.647 78 138.787 75.94 138.787 73C138.787 70.06 137.647 68 134.407 68ZM134.107 76C132.147 76 131.427 75.4 131.427 73C131.427 70.6 132.147 70 134.107 70C136.067 70 136.787 70.6 136.787 73C136.787 75.4 136.067 76 134.107 76Z" fill="#1C294D" fill-opacity="0.8"/>
<path d="M148.755 76V68H141.555V70H146.755V72.2C146.155 71.6 145.375 71.2 143.975 71.2C141.535 71.2 140.395 72.76 140.395 74.6C140.395 76.44 141.535 78 143.975 78C145.375 78 146.155 77.6 146.755 77V78H149.955V76H148.755ZM144.575 76C143.115 76 142.395 75.7 142.395 74.6C142.395 73.5 143.115 73.2 144.575 73.2C146.035 73.2 146.755 73.5 146.755 74.6C146.755 75.7 146.035 76 144.575 76Z" fill="#1C294D" fill-opacity="0.8"/>
<path d="M163.762 76H161.362V68H159.362V76H153.962V68H151.962V78H161.762V81.2H163.762V76Z" fill="#1C294D" fill-opacity="0.8"/>
<path d="M172.16 68L167.68 74.16H167.36V68H165.36V78H167.36L171.84 71.84H172.16V78H174.16V68H172.16Z" fill="#1C294D" fill-opacity="0.8"/>
<path d="M183.352 68L178.872 74.16H178.552V68H176.552V78H178.552L183.032 71.84H183.352V78H185.352V68H183.352Z" fill="#1C294D" fill-opacity="0.8"/>
<path d="M36.24 101V93H29V93.06C29 97.56 29 98.86 27.26 101H26.2V106.2H28.2V103H36.24V106.2H38.24V101H36.24ZM29.46 101C30.76 99.22 30.98 98 31 95H34.24V101H29.46Z" fill="#1C294D" fill-opacity="0.8"/>
<path d="M44.6277 103C47.6677 103 49.4077 100.94 49.4077 98C49.4077 95.06 47.6677 93 44.6277 93C41.5877 93 39.8477 95.06 39.8477 98C39.8477 100.94 41.5877 103 44.6277 103ZM44.6277 101C42.5677 101 41.8477 100.4 41.8477 98C41.8477 95.6 42.5677 95 44.6277 95C46.6877 95 47.4077 95.6 47.4077 98C47.4077 100.4 46.6877 101 44.6277 101Z" fill="#1C294D" fill-opacity="0.8"/>
<path d="M63.047 89.4H58.407V91.4H61.047V103H63.047V89.4Z" fill="#1C294D" fill-opacity="0.8"/>
<path d="M70.5578 93.8C69.6978 93.8 68.8778 93.98 68.1178 94.42L68.5378 91.4H73.7778V89.4H66.7778L65.7778 96.92H67.7778C68.0978 96.1 68.6578 95.8 70.0578 95.8C72.0178 95.8 72.7378 96.4 72.7378 98.4C72.7378 100.4 72.0178 101 70.0578 101C68.6178 101 67.8578 100.46 67.5378 99.48H65.4578C65.7978 101.66 67.2578 103 70.0578 103C73.5978 103 74.7378 100.94 74.7378 98.4C74.7378 95.86 73.5978 93.8 70.5578 93.8Z" fill="#1C294D" fill-opacity="0.8"/>
<path d="M81.3175 97.8C83.9575 97.8 85.4975 96.14 85.4975 93.6C85.4975 91.06 83.9575 89.4 81.3175 89.4C78.6775 89.4 77.1375 91.06 77.1375 93.6C77.1375 96.14 78.6775 97.8 81.3175 97.8ZM91.0375 89.4H88.9175L84.0175 103H86.1375L91.0375 89.4ZM81.3175 95.8C79.8575 95.8 79.1375 95.2 79.1375 93.6C79.1375 92 79.8575 91.4 81.3175 91.4C82.7775 91.4 83.4975 92 83.4975 93.6C83.4975 95.2 82.7775 95.8 81.3175 95.8ZM93.7375 103C96.3775 103 97.9175 101.34 97.9175 98.8C97.9175 96.26 96.3775 94.6 93.7375 94.6C91.0975 94.6 89.5575 96.26 89.5575 98.8C89.5575 101.34 91.0975 103 93.7375 103ZM93.7375 101C92.2775 101 91.5575 100.4 91.5575 98.8C91.5575 97.2 92.2775 96.6 93.7375 96.6C95.1975 96.6 95.9175 97.2 95.9175 98.8C95.9175 100.4 95.1975 101 93.7375 101Z" fill="#1C294D" fill-opacity="0.8"/>
<defs>
<linearGradient id="paint0_linear_19284_48" x1="181.846" y1="121.298" x2="191.138" y2="18.6148" gradientUnits="userSpaceOnUse">
<stop stop-color="#FFD9F0"/>
<stop offset="1" stop-color="#EFF6FF"/>
</linearGradient>
<linearGradient id="paint1_linear_19284_48" x1="104.351" y1="42.7099" x2="117.296" y2="137.235" gradientUnits="userSpaceOnUse">
<stop stop-color="#A7D9E0"/>
<stop offset="1" stop-color="#E3DBFB"/>
</linearGradient>
<linearGradient id="paint2_linear_19284_48" x1="540.266" y1="89.9766" x2="517.762" y2="201.704" gradientUnits="userSpaceOnUse">
<stop stop-color="#76B0B8"/>
<stop offset="1" stop-color="#C9C2E1"/>
</linearGradient>
<linearGradient id="paint3_linear_19284_48" x1="273.386" y1="28.8025" x2="242.334" y2="148.318" gradientUnits="userSpaceOnUse">
<stop stop-color="#76B0B8"/>
<stop offset="1" stop-color="#C9C2E2"/>
</linearGradient>
<linearGradient id="paint4_linear_19284_48" x1="179.998" y1="-0.142072" x2="179.998" y2="140.081" gradientUnits="userSpaceOnUse">
<stop stop-color="#A7D9E0"/>
<stop offset="1" stop-color="#E5DBFC"/>
</linearGradient>
<linearGradient id="paint5_linear_19284_48" x1="172.054" y1="0" x2="172.054" y2="140" gradientUnits="userSpaceOnUse">
<stop stop-color="#68D7FA"/>
<stop offset="1" stop-color="#77E9C9"/>
</linearGradient>
<linearGradient id="paint6_linear_19284_48" x1="180.426" y1="0" x2="180.426" y2="140" gradientUnits="userSpaceOnUse">
<stop stop-color="#A58AFF"/>
<stop offset="1" stop-color="#5EB2FF"/>
</linearGradient>
<linearGradient id="paint7_linear_19284_48" x1="215.928" y1="129.526" x2="203.675" y2="20.9954" gradientUnits="userSpaceOnUse">
<stop stop-color="#B483FF"/>
<stop offset="1" stop-color="#68ADFF"/>
</linearGradient>
<linearGradient id="paint8_linear_19284_48" x1="-5.86266" y1="1.00803" x2="227.565" y2="248.381" gradientUnits="userSpaceOnUse">
<stop stop-color="#FF956F"/>
<stop offset="1" stop-color="#FFC380"/>
</linearGradient>
<linearGradient id="paint9_linear_19284_48" x1="204.238" y1="6.13847" x2="212.42" y2="89.6732" gradientUnits="userSpaceOnUse">
<stop stop-color="#CE5379"/>
<stop offset="1" stop-color="#F49274"/>
</linearGradient>
<linearGradient id="paint10_linear_19284_48" x1="206.256" y1="57.4056" x2="207.587" y2="151.742" gradientUnits="userSpaceOnUse">
<stop stop-color="#F3F6F8"/>
<stop offset="1" stop-color="#AAD7F5"/>
</linearGradient>
<linearGradient id="paint11_linear_19284_48" x1="180" y1="-8.52362e-08" x2="181.258" y2="63.2333" gradientUnits="userSpaceOnUse">
<stop stop-color="#954040"/>
<stop offset="1" stop-color="#612828"/>
</linearGradient>
<linearGradient id="paint12_linear_19284_48" x1="0.905127" y1="-6.35975" x2="63.756" y2="179.424" gradientUnits="userSpaceOnUse">
<stop stop-color="#C94B79"/>
<stop offset="1" stop-color="#F59474"/>
</linearGradient>
<linearGradient id="paint13_linear_19284_48" x1="255.133" y1="39.6125" x2="249.664" y2="162.28" gradientUnits="userSpaceOnUse">
<stop stop-color="#68D7FA"/>
<stop offset="1" stop-color="#7AEDBE"/>
</linearGradient>
<linearGradient id="paint14_linear_19284_48" x1="179.739" y1="9.73454e-10" x2="180.248" y2="162.585" gradientUnits="userSpaceOnUse">
<stop stop-color="#FF8C6B"/>
<stop offset="1" stop-color="#FFCB82"/>
</linearGradient>
<linearGradient id="paint15_linear_19284_48" x1="180" y1="0" x2="180" y2="140" gradientUnits="userSpaceOnUse">
<stop stop-color="#FF906D"/>
<stop offset="1" stop-color="#FFCB82"/>
</linearGradient>
<linearGradient id="paint16_linear_19284_48" x1="180" y1="0" x2="164.458" y2="148.071" gradientUnits="userSpaceOnUse">
<stop stop-color="#7AEDC0"/>
<stop offset="1" stop-color="#68D7F9"/>
</linearGradient>
<linearGradient id="paint17_linear_19284_48" x1="179.999" y1="0" x2="179.999" y2="140" gradientUnits="userSpaceOnUse">
<stop stop-color="#B681FF"/>
<stop offset="1" stop-color="#64AFFF"/>
</linearGradient>
<linearGradient id="paint18_linear_19284_48" x1="180" y1="0" x2="180" y2="140" gradientUnits="userSpaceOnUse">
<stop stop-color="#FFB798"/>
<stop offset="1" stop-color="#FFDF6F"/>
</linearGradient>
<linearGradient id="paint19_linear_19284_48" x1="180" y1="0" x2="180" y2="140" gradientUnits="userSpaceOnUse">
<stop stop-color="#FFB798"/>
<stop offset="1" stop-color="#FFDF6F"/>
</linearGradient>
<linearGradient id="paint20_linear_19284_48" x1="180" y1="0" x2="180" y2="140" gradientUnits="userSpaceOnUse">
<stop stop-color="#FFB798"/>
<stop offset="1" stop-color="#FF6F9A"/>
</linearGradient>
<linearGradient id="paint21_linear_19284_48" x1="180" y1="0" x2="160.513" y2="152.606" gradientUnits="userSpaceOnUse">
<stop stop-color="#68D7FA"/>
<stop offset="1" stop-color="#7EF1B3"/>
</linearGradient>
</defs>
</svg>
