<svg width="166" height="109" viewBox="0 0 166 109" fill="none" xmlns="http://www.w3.org/2000/svg">
<path d="M36.6791 46.3727C46.5705 38.0766 50.0804 32.2269 50.0804 22.3355C50.0804 10.955 44.0179 0 25.1923 0C6.36668 0 0.304199 10.955 0.304199 24.4626H14.1309C14.1309 17.0175 16.3645 13.8267 25.1923 13.8267C34.0201 13.8267 36.2537 16.8048 36.2537 22.3355C36.2537 29.3552 31.3611 33.1841 21.257 41.1611L0.304199 58.4976V72.3243H49.0168V58.4976H22.746L36.6791 46.3727Z" fill="#263238"/>
<path d="M61.7683 36.5876H102.398V22.7609H61.7683V36.5876ZM61.7683 57.8595H102.398V44.0328H61.7683V57.8595Z" fill="#263238"/>
<path d="M146 29.7806L163.868 13.8267V0H117.283V13.8267H144.511L128.876 28.717L133.662 39.353H140.895C148.34 39.353 152.169 41.6929 152.169 48.9253C152.169 55.8386 149.191 58.4976 140.044 58.4976C131.003 58.4976 127.919 55.8386 127.919 48.9253H114.092C114.092 61.3693 121.75 72.3243 140.044 72.3243C158.338 72.3243 165.995 61.3693 165.995 49.9889C165.995 35.4177 155.572 28.717 146 29.7806Z" fill="#263238"/>
<path d="M3.96932 93.0381H0V108.489H3.96932V102.423H9.08945V108.489H13.0295V93.0381H9.08945V99.0535H3.96932V93.0381Z" fill="#263238"/>
<path d="M20.2498 108.781C22.4636 108.781 23.8973 107.785 24.6287 106.346H24.7457V108.489H28.6858V98.0677C28.6858 94.386 25.6625 92.8369 22.3271 92.8369C18.7381 92.8369 16.378 94.6073 15.8026 97.4239L19.6451 97.7458C19.9279 96.7198 20.8154 95.9653 22.3076 95.9653C23.7217 95.9653 24.5312 96.6996 24.5312 97.9671V98.0275C24.5312 99.0233 23.5072 99.1541 20.9032 99.4156C17.9384 99.6973 15.2759 100.723 15.2759 104.174C15.2759 107.232 17.3923 108.781 20.2498 108.781ZM21.4396 105.823C20.162 105.823 19.2453 105.21 19.2453 104.033C19.2453 102.826 20.2108 102.232 21.6737 102.021C22.5807 101.89 24.0631 101.669 24.5604 101.327V102.967C24.5604 104.586 23.2633 105.823 21.4396 105.823Z" fill="#263238"/>
<path d="M37.7161 108.489H45.0891C48.8341 108.489 50.9211 106.91 50.9211 104.274C50.9211 102.242 49.3607 100.633 46.669 100.432C48.8146 100.049 50.0922 98.8825 50.0922 97.2127C50.0922 94.5369 47.8003 93.0381 44.104 93.0381H37.7161V108.489ZM41.5879 105.28V101.91H45.0891C46.2399 101.91 46.9421 102.584 46.9421 103.681C46.9421 104.677 46.2399 105.28 45.0891 105.28H41.5879ZM41.5879 99.3955V96.3174H44.104C45.3914 96.3174 46.1814 96.8908 46.1814 97.8363C46.1814 98.8121 45.4304 99.3955 44.1918 99.3955H41.5879Z" fill="#263238"/>
<path d="M60.0334 108.791C64.0222 108.791 66.5287 106.377 66.7237 102.826H62.8032C62.5593 104.475 61.5061 105.401 60.0822 105.401C58.1414 105.401 56.8833 103.721 56.8833 100.764C56.8833 97.8464 58.1512 96.1766 60.0822 96.1766C61.6036 96.1766 62.5789 97.2127 62.8032 98.7517H66.7237C66.5482 95.1807 63.9247 92.8369 60.0139 92.8369C55.4692 92.8369 52.6604 96.086 52.6604 100.824C52.6604 105.522 55.4204 108.791 60.0334 108.791Z" fill="#263238"/>
<path d="M75.936 108.791C79.642 108.791 82.1386 106.93 82.7238 104.063L78.8813 103.801C78.4619 104.978 77.3891 105.592 76.0042 105.592C73.9269 105.592 72.6103 104.174 72.6103 101.87V101.86H82.8116V100.683C82.8116 95.4322 79.7297 92.8369 75.7702 92.8369C71.362 92.8369 68.5044 96.0659 68.5044 100.834C68.5044 105.733 71.323 108.791 75.936 108.791ZM72.6103 99.2044C72.6981 97.444 73.9952 96.0357 75.8384 96.0357C77.6427 96.0357 78.891 97.3636 78.9008 99.2044H72.6103Z" fill="#263238"/>
<path d="M91.3298 108.489H95.4844V103.007H97.0351L100.731 108.489H105.666L100.312 100.703L105.608 93.0381H100.731L96.6547 99.0334H95.4844V93.0381H91.3298V108.489Z" fill="#263238"/>
<path d="M111.116 93.0381H107.147V108.489H111.116V102.423H116.236V108.489H120.177V93.0381H116.236V99.0535H111.116V93.0381Z" fill="#263238"/>
<path d="M127.094 102.836V93.0381H123.125V108.489H127.251L132.624 98.6612V108.489H136.584V93.0381H132.488L127.094 102.836Z" fill="#263238"/>
<path d="M149.899 93.0381H139.64V108.489H143.677V96.4079H149.899V93.0381Z" fill="#263238"/>
<path d="M156.127 102.836V93.0381H152.158V108.489H156.283L161.657 98.6612V108.489H165.617V93.0381H161.521L156.127 102.836Z" fill="#263238"/>
</svg>
