<svg width="355" height="175" viewBox="0 0 355 175" fill="none" xmlns="http://www.w3.org/2000/svg">
<path d="M0 5C0 2.23858 2.23858 0 5 0H350C352.761 0 355 2.23858 355 5V170C355 172.761 352.761 175 350 175H5C2.23858 175 0 172.761 0 170V5Z" fill="#CCFF90"/>
<path d="M210 164C210 163.448 210.448 163 211 163H234C234.552 163 235 163.448 235 164C235 164.552 234.552 165 234 165H211C210.448 165 210 164.552 210 164Z" fill="white" fill-opacity="0.5"/>
<path d="M180 164C180 163.448 180.448 163 181 163H204C204.552 163 205 163.448 205 164C205 164.552 204.552 165 204 165H181C180.448 165 180 164.552 180 164Z" fill="white" fill-opacity="0.5"/>
<path d="M150 164C150 163.448 150.448 163 151 163H174C174.552 163 175 163.448 175 164C175 164.552 174.552 165 174 165H151C150.448 165 150 164.552 150 164Z" fill="white" fill-opacity="0.5"/>
<path d="M120 164C120 163.448 120.448 163 121 163H144C144.552 163 145 163.448 145 164C145 164.552 144.552 165 144 165H121C120.448 165 120 164.552 120 164Z" fill="white"/>
<path d="M154.34 83.1863C159.285 79.0383 161.04 76.1134 161.04 71.1677C161.04 65.4775 158.009 60 148.596 60C139.184 60 136.152 65.4775 136.152 72.2313H143.066C143.066 68.5087 144.182 66.9134 148.596 66.9134C153.01 66.9134 154.127 68.4024 154.127 71.1677C154.127 74.6776 151.681 76.5921 146.629 80.5805L136.152 89.2488V96.1622H160.509V89.2488H147.373L154.34 83.1863Z" fill="#263238"/>
<path d="M166.884 78.2938H187.199V71.3804H166.884V78.2938ZM166.884 88.9297H187.199V82.0164H166.884V88.9297Z" fill="#263238"/>
<path d="M209 74.8903L217.934 66.9134V60H194.642V66.9134H208.256L200.438 74.3585L202.831 79.6765H206.448C210.17 79.6765 212.085 80.8464 212.085 84.4626C212.085 87.9193 210.596 89.2488 206.022 89.2488C201.502 89.2488 199.96 87.9193 199.96 84.4626H193.046C193.046 90.6847 196.875 96.1622 206.022 96.1622C215.169 96.1622 218.998 90.6847 218.998 84.9944C218.998 77.7088 213.786 74.3585 209 74.8903Z" fill="#263238"/>
<path d="M137.985 106.519H136V114.244H137.985V111.211H140.545V114.244H142.515V106.519H140.545V109.527H137.985V106.519Z" fill="#263238"/>
<path d="M146.125 114.39C147.232 114.39 147.949 113.892 148.314 113.173H148.373V114.244H150.343V109.034C150.343 107.193 148.831 106.418 147.164 106.418C145.369 106.418 144.189 107.303 143.901 108.712L145.823 108.873C145.964 108.36 146.408 107.982 147.154 107.982C147.861 107.982 148.266 108.35 148.266 108.983V109.014C148.266 109.511 147.754 109.577 146.452 109.708C144.969 109.848 143.638 110.361 143.638 112.087C143.638 113.616 144.696 114.39 146.125 114.39ZM146.72 112.911C146.081 112.911 145.623 112.605 145.623 112.016C145.623 111.413 146.105 111.116 146.837 111.01C147.29 110.945 148.032 110.834 148.28 110.663V111.483C148.28 112.293 147.632 112.911 146.72 112.911Z" fill="#263238"/>
<path d="M154.858 114.244H158.545C160.417 114.244 161.461 113.455 161.461 112.137C161.461 111.121 160.68 110.316 159.334 110.216C160.407 110.024 161.046 109.441 161.046 108.606C161.046 107.268 159.9 106.519 158.052 106.519H154.858V114.244ZM156.794 112.64V110.955H158.545C159.12 110.955 159.471 111.292 159.471 111.84C159.471 112.338 159.12 112.64 158.545 112.64H156.794ZM156.794 109.698V108.159H158.052C158.696 108.159 159.091 108.445 159.091 108.918C159.091 109.406 158.715 109.698 158.096 109.698H156.794Z" fill="#263238"/>
<path d="M166.017 114.395C168.011 114.395 169.264 113.188 169.362 111.413H167.402C167.28 112.238 166.753 112.7 166.041 112.7C165.071 112.7 164.442 111.86 164.442 110.382C164.442 108.923 165.076 108.088 166.041 108.088C166.802 108.088 167.289 108.606 167.402 109.376H169.362C169.274 107.59 167.962 106.418 166.007 106.418C163.735 106.418 162.33 108.043 162.33 110.412C162.33 112.761 163.71 114.395 166.017 114.395Z" fill="#263238"/>
<path d="M173.968 114.395C175.821 114.395 177.069 113.465 177.362 112.031L175.441 111.901C175.231 112.489 174.695 112.796 174.002 112.796C172.963 112.796 172.305 112.087 172.305 110.935V110.93H177.406V110.341C177.406 107.716 175.865 106.418 173.885 106.418C171.681 106.418 170.252 108.033 170.252 110.417C170.252 112.866 171.661 114.395 173.968 114.395ZM172.305 109.602C172.349 108.722 172.998 108.018 173.919 108.018C174.821 108.018 175.445 108.682 175.45 109.602H172.305Z" fill="#263238"/>
<path d="M181.665 114.244H183.742V111.503H184.518L186.366 114.244H188.833L186.156 110.351L188.804 106.519H186.366L184.327 109.517H183.742V106.519H181.665V114.244Z" fill="#263238"/>
<path d="M191.558 106.519H189.574V114.244H191.558V111.211H194.118V114.244H196.088V106.519H194.118V109.527H191.558V106.519Z" fill="#263238"/>
<path d="M199.547 111.418V106.519H197.563V114.244H199.625L202.312 109.33V114.244H204.292V106.519H202.244L199.547 111.418Z" fill="#263238"/>
<path d="M210.95 106.519H205.82V114.244H207.839V108.204H210.95V106.519Z" fill="#263238"/>
<path d="M214.064 111.418V106.519H212.079V114.244H214.142L216.829 109.33V114.244H218.808V106.519H216.76L214.064 111.418Z" fill="#263238"/>
</svg>
