<svg width="750" height="350" viewBox="0 0 750 350" fill="none" xmlns="http://www.w3.org/2000/svg">
<path d="M0 4.99999C0 2.23857 2.23858 0 5 0H745C747.761 0 750 2.23858 750 5V345C750 347.761 747.761 350 745 350H5C2.23857 350 0 347.761 0 345V4.99999Z" fill="#CCFF90"/>
<path d="M328.679 167.373C338.571 159.077 342.08 153.227 342.08 143.335C342.08 131.955 336.018 121 317.192 121C298.367 121 292.304 131.955 292.304 145.463H306.131C306.131 138.017 308.364 134.827 317.192 134.827C326.02 134.827 328.254 137.805 328.254 143.335C328.254 150.355 323.361 154.184 313.257 162.161L292.304 179.498V193.324H341.017V179.498H314.746L328.679 167.373Z" fill="#263238"/>
<path d="M353.768 157.588H394.398V143.761H353.768V157.588ZM353.768 178.859H394.398V165.033H353.768V178.859Z" fill="#263238"/>
<path d="M438 150.781L455.868 134.827V121H409.283V134.827H436.511L420.876 149.717L425.662 160.353H432.895C440.34 160.353 444.169 162.693 444.169 169.925C444.169 176.839 441.191 179.498 432.044 179.498C423.003 179.498 419.919 176.839 419.919 169.925H406.092C406.092 182.369 413.75 193.324 432.044 193.324C450.338 193.324 457.995 182.369 457.995 170.989C457.995 156.418 447.572 149.717 438 150.781Z" fill="#263238"/>
<path d="M295.969 214.038H292V229.489H295.969V223.423H301.089V229.489H305.03V214.038H301.089V220.053H295.969V214.038Z" fill="#263238"/>
<path d="M312.25 229.781C314.464 229.781 315.897 228.785 316.629 227.346H316.746V229.489H320.686V219.068C320.686 215.386 317.662 213.837 314.327 213.837C310.738 213.837 308.378 215.607 307.803 218.424L311.645 218.746C311.928 217.72 312.815 216.965 314.308 216.965C315.722 216.965 316.531 217.7 316.531 218.967V219.027C316.531 220.023 315.507 220.154 312.903 220.416C309.938 220.697 307.276 221.723 307.276 225.174C307.276 228.232 309.392 229.781 312.25 229.781ZM313.44 226.823C312.162 226.823 311.245 226.21 311.245 225.033C311.245 223.826 312.211 223.232 313.674 223.021C314.581 222.89 316.063 222.669 316.56 222.327V223.967C316.56 225.586 315.263 226.823 313.44 226.823Z" fill="#263238"/>
<path d="M329.716 229.489H337.089C340.834 229.489 342.921 227.91 342.921 225.274C342.921 223.242 341.361 221.633 338.669 221.432C340.815 221.049 342.092 219.882 342.092 218.213C342.092 215.537 339.8 214.038 336.104 214.038H329.716V229.489ZM333.588 226.28V222.91H337.089C338.24 222.91 338.942 223.584 338.942 224.681C338.942 225.677 338.24 226.28 337.089 226.28H333.588ZM333.588 220.396V217.317H336.104C337.391 217.317 338.181 217.891 338.181 218.836C338.181 219.812 337.43 220.396 336.192 220.396H333.588Z" fill="#263238"/>
<path d="M352.033 229.791C356.022 229.791 358.529 227.377 358.724 223.826H354.803C354.559 225.475 353.506 226.401 352.082 226.401C350.141 226.401 348.883 224.721 348.883 221.764C348.883 218.846 350.151 217.177 352.082 217.177C353.604 217.177 354.579 218.213 354.803 219.752H358.724C358.548 216.181 355.925 213.837 352.014 213.837C347.469 213.837 344.66 217.086 344.66 221.824C344.66 226.522 347.42 229.791 352.033 229.791Z" fill="#263238"/>
<path d="M367.936 229.791C371.642 229.791 374.139 227.93 374.724 225.063L370.881 224.801C370.462 225.978 369.389 226.592 368.004 226.592C365.927 226.592 364.61 225.174 364.61 222.87V222.86H374.812V221.683C374.812 216.432 371.73 213.837 367.77 213.837C363.362 213.837 360.504 217.066 360.504 221.834C360.504 226.733 363.323 229.791 367.936 229.791ZM364.61 220.204C364.698 218.444 365.995 217.036 367.838 217.036C369.643 217.036 370.891 218.364 370.901 220.204H364.61Z" fill="#263238"/>
<path d="M383.33 229.489H387.484V224.007H389.035L392.731 229.489H397.666L392.312 221.703L397.608 214.038H392.731L388.655 220.033H387.484V214.038H383.33V229.489Z" fill="#263238"/>
<path d="M403.116 214.038H399.147V229.489H403.116V223.423H408.236V229.489H412.177V214.038H408.236V220.053H403.116V214.038Z" fill="#263238"/>
<path d="M419.094 223.836V214.038H415.125V229.489H419.251L424.624 219.661V229.489H428.584V214.038H424.488L419.094 223.836Z" fill="#263238"/>
<path d="M441.899 214.038H431.64V229.489H435.677V217.408H441.899V214.038Z" fill="#263238"/>
<path d="M448.127 223.836V214.038H444.158V229.489H448.283L453.657 219.661V229.489H457.617V214.038H453.521L448.127 223.836Z" fill="#263238"/>
<path d="M407 329C407 328.448 407.448 328 408 328H431C431.552 328 432 328.448 432 329C432 329.552 431.552 330 431 330H408C407.448 330 407 329.552 407 329Z" fill="white" fill-opacity="0.5"/>
<path d="M377 329C377 328.448 377.448 328 378 328H401C401.552 328 402 328.448 402 329C402 329.552 401.552 330 401 330H378C377.448 330 377 329.552 377 329Z" fill="white" fill-opacity="0.5"/>
<path d="M347 329C347 328.448 347.448 328 348 328H371C371.552 328 372 328.448 372 329C372 329.552 371.552 330 371 330H348C347.448 330 347 329.552 347 329Z" fill="white" fill-opacity="0.5"/>
<path d="M317 329C317 328.448 317.448 328 318 328H341C341.552 328 342 328.448 342 329C342 329.552 341.552 330 341 330H318C317.448 330 317 329.552 317 329Z" fill="white"/>
<path fill-rule="evenodd" clip-rule="evenodd" d="M67 160C67 157.238 64.7614 155 62 155H32C29.2386 155 27 157.238 27 160V190C27 192.761 29.2386 195 32 195H62C64.7614 195 67 192.761 67 190V160Z" fill="white" fill-opacity="0.85"/>
<path fill-rule="evenodd" clip-rule="evenodd" d="M50.0893 168.411C49.7638 168.085 49.2362 168.085 48.9107 168.411L43.9107 173.411C43.5853 173.736 43.5853 174.264 43.9107 174.589L48.9107 179.589C49.2362 179.915 49.7638 179.915 50.0893 179.589C50.4147 179.264 50.4147 178.736 50.0893 178.411L45.6785 174L50.0893 169.589C50.4147 169.264 50.4147 168.736 50.0893 168.411Z" fill="#2A3D48" fill-opacity="0.5"/>
<path fill-rule="evenodd" clip-rule="evenodd" d="M682 160C682 157.239 684.239 155 687 155H717C719.761 155 722 157.239 722 160V190C722 192.761 719.761 195 717 195H687C684.239 195 682 192.761 682 190V160Z" fill="white" fill-opacity="0.85"/>
<path fill-rule="evenodd" clip-rule="evenodd" d="M655 137C655 131.477 659.477 127 665 127H740C745.523 127 750 131.477 750 137V212C750 217.523 745.523 222 740 222H665C659.477 222 655 217.523 655 212V137Z" fill="#1C294D" fill-opacity="0.01"/>
<path fill-rule="evenodd" clip-rule="evenodd" d="M698.911 169.411C699.236 169.085 699.764 169.085 700.089 169.411L705.089 174.411C705.415 174.736 705.415 175.264 705.089 175.589L700.089 180.589C699.764 180.915 699.236 180.915 698.911 180.589C698.585 180.264 698.585 179.736 698.911 179.411L703.321 175L698.911 170.589C698.585 170.264 698.585 169.736 698.911 169.411Z" fill="#1C294D"/>
</svg>
