<svg width="25" height="25" viewBox="0 0 25 25" fill="none" xmlns="http://www.w3.org/2000/svg">
<path fill-rule="evenodd" clip-rule="evenodd" d="M3.12483 3.125C2.54954 3.125 2.08317 3.59137 2.08317 4.16667C2.08317 4.74196 2.54954 5.20833 3.12483 5.20833V4.16667L3.12485 5.20833H3.12489H3.12506H3.12518H3.12533H3.12551H3.12572H3.12682H3.12835H3.12927H3.12978H3.1303H3.13268H3.13548H3.13625H3.13704H3.13869H3.17875H3.32829H3.84098H4.37668L6.79657 15.8559C6.92134 16.4048 7.4585 16.7531 8.00717 16.6483C8.07058 16.6604 8.13603 16.6667 8.20296 16.6667H18.7498C19.184 16.6667 19.5727 16.3973 19.7252 15.9908L22.8502 7.65742C22.9701 7.33753 22.9256 6.97915 22.731 6.69834C22.5364 6.41753 22.2165 6.25 21.8748 6.25H6.74988L6.22393 3.93581C6.11615 3.46155 5.69452 3.125 5.20817 3.125H3.84098H3.32829H3.17875H3.17239H3.1664H3.16497H3.16356H3.1608H3.15559H3.14634H3.1453H3.14428H3.14328H3.14232H3.14137H3.14045H3.13869H3.13268H3.1303H3.12978H3.12927H3.12835H3.12572H3.12533H3.12518H3.12506H3.12489H3.12485L3.12483 4.16667V3.125ZM7.22337 8.33333L8.64382 14.5833H18.028L20.3717 8.33333H7.22337ZM10.4165 17.7083C9.26591 17.7083 8.33317 18.6411 8.33317 19.7917C8.33317 20.9423 9.26591 21.875 10.4165 21.875C11.5671 21.875 12.4998 20.9423 12.4998 19.7917C12.4998 18.6411 11.5671 17.7083 10.4165 17.7083ZM14.5832 19.7917C14.5832 18.6411 15.5159 17.7083 16.6665 17.7083C17.8171 17.7083 18.7498 18.6411 18.7498 19.7917C18.7498 20.9423 17.8171 21.875 16.6665 21.875C15.5159 21.875 14.5832 20.9423 14.5832 19.7917Z" fill="#1C294D" fill-opacity="0.5"/>
</svg>
