<svg width="12" height="17" viewBox="0 0 12 17" fill="none" xmlns="http://www.w3.org/2000/svg">
<path fill-rule="evenodd" clip-rule="evenodd" d="M9.41772 8.21272L5.83333 14.1251L2.24894 8.21272C0.51041 5.34506 2.53036 1.64242 5.83333 1.64242C9.13631 1.64242 11.1563 5.34506 9.41772 8.21272ZM0.881309 9.07722C-1.52057 5.11539 1.2701 0 5.83333 0C10.3966 0 13.1872 5.11539 10.7854 9.07722L6.36891 16.362C6.12265 16.7682 5.54401 16.7682 5.29776 16.362L0.881309 9.07722ZM5.8335 4.10606C4.94516 4.10606 4.22501 4.8414 4.22501 5.74848C4.22501 6.65557 4.94516 7.3909 5.8335 7.3909C6.72184 7.3909 7.44198 6.65557 7.44198 5.74848C7.44198 4.8414 6.72184 4.10606 5.8335 4.10606Z" fill="#1C294D" fill-opacity="0.5"/>
</svg>
