<svg width="20" height="20" viewBox="0 0 20 20" fill="none" xmlns="http://www.w3.org/2000/svg">
<path fill-rule="evenodd" clip-rule="evenodd" d="M5.24825 3.49769L5.24881 3.49839L5.24825 3.49769ZM5.28409 3.55396L6.95453 6.18607C6.75268 6.37559 6.5325 6.5633 6.29554 6.76533C6.09188 6.93896 5.87582 7.12316 5.64835 7.32816C5.08454 7.83626 4.97564 8.65343 5.34053 9.28938C7.27007 12.6523 9.90183 14.1825 11.0794 14.7319C11.7889 15.0629 12.5596 14.8017 12.9887 14.2608L14.1447 12.8037C14.1447 12.8037 14.1456 12.8029 14.1474 12.8026C14.1491 12.8023 14.1523 12.8026 14.1523 12.8026C14.1523 12.8026 14.1548 12.8031 14.1572 12.8046C14.8308 13.2163 15.7705 13.7758 16.6337 14.2494C16.4787 15.1763 16.1226 15.7163 15.7299 16.0463C15.3176 16.393 14.7844 16.5754 14.1897 16.6412C13.0023 16.7727 11.7969 16.416 11.5295 16.3291C11.2345 16.1797 9.61712 15.3366 7.88915 13.9704C6.10735 12.5616 4.32069 10.684 3.63738 8.53061C3.13799 6.95684 3.32629 5.8494 3.7188 5.0855C4.09824 4.34703 4.71227 3.84581 5.28409 3.55396ZM4.67981 1.99616C5.46701 1.62642 6.28101 2.01193 6.66016 2.60936L8.40769 5.36293C8.76097 5.91961 8.78519 6.73339 8.21085 7.29085C7.9647 7.52977 7.62224 7.82341 7.30357 8.09666C7.12864 8.24666 6.96088 8.39051 6.82015 8.51579C8.48081 11.3794 10.701 12.7043 11.7108 13.1888L12.8349 11.7718C13.3656 11.1028 14.3106 10.9464 15.0302 11.3862C15.6958 11.7931 16.6161 12.3407 17.4501 12.798C18.0063 13.1029 18.4042 13.7387 18.2915 14.4564C18.089 15.7456 17.5602 16.6846 16.8065 17.3181C16.0655 17.9411 15.1828 18.2054 14.3741 18.295C12.7836 18.4711 11.2623 17.9942 10.9845 17.902C10.9142 17.8787 10.8558 17.8541 10.7931 17.8225C10.4948 17.6725 8.73727 16.765 6.85139 15.2738C4.98513 13.7982 2.88043 11.6637 2.04542 9.03229C1.43207 7.09937 1.61351 5.53211 2.23265 4.32714C2.84093 3.1433 3.82601 2.39719 4.67981 1.99616Z" fill="#1C294D" fill-opacity="0.5"/>
<path fill-rule="evenodd" clip-rule="evenodd" d="M12.2588 1.743C11.8397 1.55137 11.3441 1.73456 11.1518 2.15217C10.9595 2.56977 11.1434 3.06365 11.5624 3.25528C13.5011 4.14183 15.72 5.8086 16.734 8.10862C16.9194 8.52929 17.4119 8.72049 17.8341 8.53568C18.2562 8.35087 18.4481 7.86003 18.2626 7.43937C17.024 4.62988 14.4061 2.72497 12.2588 1.743ZM11.6407 4.69451C11.2283 4.48903 10.7268 4.65561 10.5207 5.06657C10.3145 5.47754 10.4816 5.97726 10.894 6.18274C11.6785 6.57363 12.2214 6.94198 12.6597 7.37882C13.0981 7.81566 13.4677 8.3567 13.86 9.13847C14.0662 9.54943 14.5676 9.71601 14.98 9.51053C15.3924 9.30505 15.5595 8.80532 15.3533 8.39435C14.9108 7.51223 14.4456 6.80536 13.8404 6.20227C13.2352 5.59918 12.5259 5.13558 11.6407 4.69451Z" fill="#1C294D" fill-opacity="0.5"/>
</svg>
