<svg width="98" height="101" viewBox="0 0 98 101" fill="none" xmlns="http://www.w3.org/2000/svg">
<path fill-rule="evenodd" clip-rule="evenodd" d="M97.7781 58.3693V58.4769C97.7781 58.4935 97.7781 58.5102 97.7781 58.5245C97.7781 58.5912 97.7781 58.6592 97.7781 58.7269V58.7359C97.7781 58.765 97.7781 58.7935 97.7781 58.8226C97.7781 58.8973 97.7753 58.9711 97.7729 59.0454C97.7729 59.085 97.7729 59.1245 97.7695 59.164C97.7662 59.2035 97.7695 59.2383 97.7662 59.2754C97.7662 59.3388 97.7619 59.4026 97.7591 59.4659C97.7591 59.4759 97.7591 59.4864 97.7591 59.4964C97.7591 59.5064 97.7591 59.5073 97.7591 59.5126C97.7553 59.6049 97.7505 59.6968 97.7457 59.7892L97.7424 59.8606C97.7391 59.923 97.7348 59.9859 97.731 60.0483C97.7272 60.1106 97.7243 60.1635 97.7205 60.2206C97.7069 60.4327 97.691 60.6436 97.6729 60.8535C97.6529 61.0811 97.6307 61.3073 97.6062 61.532C97.5894 61.6815 97.5719 61.8309 97.5538 61.9801L97.5253 62.2039C97.4815 62.5372 97.4338 62.8682 97.3824 63.1967C97.3643 63.3056 97.3461 63.4144 97.3277 63.5229C97.3153 63.5953 97.3029 63.6658 97.29 63.7401C97.2638 63.8829 97.2377 64.0258 97.21 64.1686C97.1691 64.3826 97.1264 64.5948 97.082 64.8053C97.0524 64.9481 97.0219 65.0848 96.991 65.2243C96.9434 65.4329 96.8958 65.6386 96.8481 65.8433C96.7656 66.1849 96.6796 66.5211 96.5901 66.8519C96.5186 67.117 96.4451 67.3784 96.3696 67.6362C96.3321 67.7631 96.294 67.8901 96.2553 68.0171C96.1401 68.398 96.0215 68.7699 95.8996 69.1328C95.8393 69.314 95.778 69.4928 95.7158 69.669C95.4691 70.3747 95.2144 71.0423 94.9615 71.6646C94.9192 71.7675 94.8773 71.8699 94.8353 71.9708C94.8144 72.0218 94.7934 72.0717 94.772 72.1222C94.7307 72.2216 94.689 72.32 94.6468 72.4175C94.5423 72.6606 94.4393 72.8955 94.3377 73.1222L94.2163 73.3889C94.0558 73.7398 93.8997 74.0679 93.7506 74.3722C93.6763 74.5236 93.6038 74.6691 93.533 74.8088C93.4801 74.9136 93.4292 75.015 93.3782 75.1126C93.3465 75.1761 93.3136 75.2396 93.2797 75.3031L93.232 75.3945C93.2006 75.455 93.1692 75.5136 93.1392 75.5698C93.0916 75.655 93.0501 75.7364 93.0078 75.8136C92.9792 75.865 92.9521 75.915 92.9259 75.9631C92.8863 76.0355 92.8478 76.1059 92.8121 76.1674C92.7644 76.2531 92.7198 76.3315 92.6783 76.4026C92.6478 76.4559 92.6192 76.505 92.593 76.5497C92.5759 76.5797 92.5592 76.6074 92.5454 76.6335C92.5373 76.6464 92.5302 76.6592 92.523 76.6716L92.4826 76.7378C92.4221 76.8392 92.3873 76.8916 92.3873 76.8916C87.4655 84.3119 79.7419 90.9774 70.5141 95.2345C69.5703 95.6697 68.6114 96.0792 67.6375 96.463C63.5733 98.0625 59.2606 99.1915 54.7978 99.722C53.0404 99.936 51.2725 100.054 49.5022 100.074C48.6086 100.082 47.7112 100.067 46.8099 100.026C42.6978 99.8341 38.6281 99.1074 34.7036 97.8644C27.6719 95.6411 20.6354 91.6465 13.9374 85.4438C13.8613 85.3738 13.7865 85.3038 13.7113 85.2328C13.6046 85.1338 13.4994 85.0333 13.3946 84.9333L13.3379 84.8786C13.2392 84.7833 13.1411 84.6881 13.0437 84.5928L13.0403 84.589C13.0051 84.5543 12.9699 84.5205 12.9351 84.4852C12.8875 84.4414 12.8456 84.3971 12.8013 84.3533C12.757 84.3095 12.727 84.2795 12.6903 84.2424C12.6318 84.1843 12.5746 84.1257 12.517 84.0681C12.4818 84.0329 12.4475 83.9972 12.4127 83.9619C12.3318 83.8797 12.251 83.797 12.1703 83.7138C12.0865 83.6262 12.0023 83.5386 11.9189 83.4505C11.897 83.4276 11.8751 83.4029 11.8542 83.3824L11.7637 83.2872C11.7037 83.2238 11.6446 83.1605 11.5851 83.0967C11.5604 83.0705 11.5375 83.0438 11.5113 83.0172L11.3508 82.8429L11.3408 82.8319C11.3361 82.8267 11.3304 82.8205 11.3256 82.8143C11.2666 82.7508 11.208 82.6873 11.1499 82.6239L11.0813 82.5472C11.0109 82.4686 10.9385 82.3901 10.8709 82.3091C10.8528 82.2896 10.8356 82.2691 10.8185 82.2501L10.7504 82.1724C10.6837 82.0963 10.6175 82.0201 10.5518 81.9439C10.5247 81.9129 10.4975 81.8815 10.4713 81.8486C10.4056 81.7731 10.3407 81.6971 10.2766 81.6206L10.2428 81.5806L10.2214 81.5553L10.1661 81.4896C10.1275 81.4444 10.0899 81.3996 10.0523 81.3539C10.0437 81.3439 10.0352 81.3329 10.0266 81.3225L9.97517 81.2606L9.76755 81.0096L9.59899 80.8006L9.45089 80.6158L9.36661 80.5091L9.28852 80.4106L9.28376 80.4039C9.22614 80.3315 9.16947 80.2611 9.11376 80.1858C9.08043 80.1439 9.04757 80.1015 9.01519 80.0592C8.94615 79.9692 8.87758 79.8796 8.80901 79.7892L8.75663 79.7192C8.71377 79.6625 8.67139 79.6063 8.62901 79.5492C8.6152 79.5301 8.60044 79.512 8.58663 79.493L8.57139 79.4725C8.49425 79.3687 8.41854 79.2654 8.34283 79.1616L8.33997 79.1573L8.3195 79.1297C8.24902 79.0344 8.1795 78.9363 8.11093 78.8397L8.06331 78.7692C8.00427 78.6868 7.94617 78.604 7.8876 78.5206L7.83998 78.4516L7.79237 78.3825L7.66999 78.2059L7.64523 78.1692C7.57951 78.074 7.5138 77.9787 7.44857 77.8802L7.34143 77.7192L7.25381 77.5883C7.24714 77.5783 7.24048 77.5673 7.23429 77.5573C7.2281 77.5473 7.21857 77.5345 7.21143 77.523L7.12572 77.3926L7.07572 77.3154L7.02524 77.2388L6.99858 77.1969C6.93667 77.1016 6.87477 77.0035 6.81382 76.9073C6.74477 76.7988 6.67621 76.6892 6.60811 76.5802L6.58621 76.545C6.54875 76.4843 6.51129 76.4235 6.47383 76.3626C6.44288 76.3121 6.41193 76.2621 6.38145 76.2116C6.25637 76.0053 6.1332 75.799 6.01194 75.5926L6.00765 75.5855L5.82385 75.2679C5.82385 75.265 5.82099 75.2631 5.82004 75.2607C5.77242 75.1788 5.7248 75.0969 5.68004 75.015L5.63242 74.9269C5.58957 74.8507 5.54671 74.7736 5.50433 74.6969C5.48862 74.6698 5.47338 74.6422 5.45671 74.615C5.431 74.5674 5.40576 74.5198 5.38052 74.4722C5.33672 74.3931 5.29386 74.3131 5.25148 74.2341C5.24005 74.2131 5.22815 74.1917 5.2172 74.1707C5.1872 74.115 5.15767 74.0588 5.12815 74.0022L5.08577 73.9222L5.08148 73.9146C5.05196 73.8593 5.02339 73.8036 4.99434 73.7479C4.9653 73.6922 4.93625 73.636 4.90768 73.5793C4.90768 73.5736 4.90197 73.5679 4.89863 73.5617L4.86816 73.5031C4.85197 73.4722 4.83673 73.4408 4.82054 73.4079C4.79197 73.3512 4.76292 73.2946 4.73483 73.2379L4.70721 73.1836L4.56436 72.8979L4.39817 72.556C4.34484 72.4451 4.29198 72.3336 4.2396 72.2227C4.22865 72.1998 4.2177 72.1751 4.2077 72.1541C4.19056 72.116 4.17294 72.0789 4.15532 72.0408C4.1377 72.0027 4.1258 71.978 4.11151 71.9456C4.09722 71.9132 4.0877 71.8937 4.0758 71.8675C4.02818 71.7599 3.9777 71.6532 3.92913 71.5456C3.92247 71.5294 3.91532 71.5137 3.90818 71.498L3.82961 71.3213L3.76628 71.1784C3.72628 71.0875 3.68676 70.997 3.64819 70.9056C3.63628 70.8794 3.62533 70.8527 3.6139 70.8265C3.59486 70.7827 3.57676 70.7394 3.55819 70.6961C3.52867 70.6266 3.49962 70.5561 3.4701 70.4866C3.4703 70.4855 3.4703 70.4843 3.4701 70.4832C3.44089 70.4143 3.41232 70.3453 3.38439 70.2761L3.33248 70.1489C3.32153 70.1208 3.30963 70.0932 3.29867 70.0651C3.2582 69.9661 3.2182 69.8666 3.17915 69.7675C3.15963 69.7199 3.14011 69.6694 3.12058 69.6194C3.09677 69.5571 3.07297 69.4947 3.0482 69.4323C3.02678 69.3766 3.00535 69.3209 2.9844 69.2647C2.97821 69.2499 2.97249 69.2352 2.96678 69.2204C2.92726 69.1175 2.88916 69.0147 2.85107 68.9114C2.82821 68.8495 2.80345 68.7876 2.7825 68.7256C2.73964 68.6088 2.69726 68.4918 2.65536 68.3747C2.65563 68.373 2.65563 68.3712 2.65536 68.3695C2.61393 68.2528 2.5725 68.1366 2.5325 68.02C2.52393 67.9938 2.51441 67.9676 2.50536 67.9419C2.47298 67.8495 2.44108 67.7571 2.41013 67.6647C2.39965 67.6323 2.38822 67.6 2.37775 67.5695C2.37156 67.5519 2.36632 67.5343 2.36013 67.5166C2.34822 67.4819 2.33727 67.4476 2.32537 67.4128C2.31346 67.3781 2.30299 67.3447 2.29156 67.31C2.26632 67.2347 2.24394 67.16 2.2187 67.0847C2.20394 67.0409 2.19013 66.9967 2.17632 66.9528V66.9471C2.16823 66.9214 2.15966 66.8967 2.15204 66.8709C2.15204 66.8709 2.15204 66.8681 2.15204 66.8671C2.12728 66.7876 2.10442 66.7081 2.07775 66.629C2.07347 66.6181 2.07013 66.6062 2.0668 66.5952C2.04966 66.54 2.03299 66.4848 2.01633 66.4295C1.99966 66.3743 1.98014 66.3119 1.96204 66.2529C1.9601 66.2446 1.95772 66.2365 1.9549 66.2286C1.93442 66.1591 1.91395 66.09 1.89347 66.02C1.873 65.95 1.84919 65.871 1.82776 65.7962C1.80062 65.701 1.77395 65.6095 1.74776 65.5167C1.74395 65.5024 1.74014 65.4881 1.73586 65.4743C1.72729 65.4414 1.71776 65.4091 1.70872 65.3762C1.70443 65.3615 1.70014 65.3467 1.69633 65.3319C1.67967 65.2729 1.66348 65.2148 1.64872 65.1557L1.59538 64.9567C1.57919 64.8977 1.56348 64.8386 1.54777 64.7791C1.5411 64.7534 1.53348 64.7272 1.52682 64.701C1.50301 64.611 1.4792 64.5215 1.45729 64.4315C1.43221 64.3321 1.40729 64.2329 1.38253 64.1339C1.35777 64.0348 1.33444 63.9396 1.31254 63.8482C1.31254 63.841 1.3092 63.8339 1.3073 63.8267C1.28968 63.7544 1.27301 63.6839 1.25539 63.6101C1.25254 63.5982 1.25016 63.5867 1.2473 63.5744C1.22825 63.4929 1.2092 63.412 1.19111 63.3306C1.17492 63.2615 1.15968 63.1915 1.14349 63.1225C1.1273 63.0534 1.11016 62.9734 1.09587 62.8987C1.07683 62.8139 1.05873 62.7287 1.04064 62.6434C1.03349 62.6091 1.02588 62.5739 1.01873 62.5387C0.986988 62.3885 0.956354 62.2384 0.926831 62.0882C0.921593 62.063 0.916355 62.0377 0.911593 62.0134C0.906831 61.9892 0.904927 61.9796 0.901594 61.962C0.879689 61.8525 0.858579 61.743 0.838262 61.6335C0.82731 61.5782 0.816834 61.523 0.806834 61.4682C0.787469 61.3657 0.76874 61.2638 0.750645 61.1625C0.703027 60.8906 0.655409 60.6192 0.612553 60.3463L0.603982 60.2959C0.600649 60.2754 0.597792 60.2544 0.594459 60.234C0.562713 60.0324 0.532079 59.8305 0.502556 59.6283C0.481604 59.4854 0.461605 59.3383 0.441129 59.1935C0.401448 58.903 0.364941 58.6121 0.331608 58.3207C0.298276 58.0293 0.266531 57.7382 0.236373 57.4474C0.222087 57.302 0.208596 57.1564 0.195898 57.0107C0.138121 56.3723 0.093678 55.7327 0.0625677 55.0917L0.0497109 54.817C0.0233624 54.2313 0.00748978 53.6449 0.00209309 53.058C-0.00425595 52.372 0.00383908 51.6855 0.0263782 50.9985C0.0349494 50.729 0.0454253 50.4585 0.0582821 50.189C0.0711389 49.9195 0.0863766 49.649 0.103519 49.3795C0.120661 49.11 0.139709 48.84 0.161137 48.57C0.182088 48.3011 0.205421 48.0313 0.231135 47.7605C0.269229 47.3567 0.312085 46.9532 0.359703 46.55C0.375417 46.4158 0.392083 46.2815 0.407321 46.1472C0.416844 46.072 0.426368 45.9967 0.436368 45.9215C0.469224 45.6663 0.504461 45.412 0.541127 45.1567C0.565888 44.9872 0.591284 44.8175 0.617315 44.6477C0.682393 44.2233 0.753026 43.8 0.829214 43.3777C0.905085 42.9555 0.985877 42.5341 1.07159 42.1135C1.08873 42.0297 1.10603 41.9456 1.12349 41.8611C1.18698 41.5535 1.25365 41.2465 1.32349 40.9402C1.54189 39.9761 1.78649 39.0182 2.05728 38.0665C2.13283 37.7995 2.21077 37.5327 2.29108 37.266C2.34441 37.0889 2.3987 36.9117 2.45393 36.7346C2.53647 36.4695 2.62091 36.2049 2.70726 35.9408C3.53877 33.4049 4.55266 30.9325 5.74099 28.5429C5.88004 28.2623 6.02162 27.9834 6.16574 27.7063C6.52637 27.012 6.90096 26.3266 7.28952 25.6501C7.44476 25.38 7.60237 25.1111 7.76237 24.8435C7.92236 24.5759 8.08474 24.31 8.2495 24.0459C15.5736 12.2724 27.3071 3.6445 41.5343 2.67215C62.6809 1.2279 68.1127 8.57676 72.745 17.8446C72.7978 17.9503 72.8512 18.057 72.904 18.1641C73.1151 18.5901 73.3253 19.0187 73.5345 19.4498C74.6897 21.8307 75.8482 24.314 77.2487 26.7829C77.5979 27.3994 77.9642 28.0147 78.3477 28.6286C78.4429 28.7838 78.5413 28.9388 78.6429 29.0934C78.6862 29.161 78.7296 29.2291 78.7743 29.2972C78.9172 29.5195 79.0662 29.7405 79.2162 29.9638C79.2915 30.0743 79.3672 30.1843 79.4434 30.2948C79.5519 30.4514 79.6619 30.6071 79.7734 30.7633C79.8248 30.8362 79.8772 30.9062 79.9305 30.9819C79.9975 31.0749 80.0654 31.1677 80.1343 31.2604C80.3432 31.5427 80.5575 31.8238 80.7771 32.1038C80.8622 32.2123 80.9482 32.3206 81.0352 32.4285C81.1222 32.5364 81.2103 32.6447 81.2995 32.7533C81.3881 32.8614 81.4781 32.969 81.5681 33.0761C81.6157 33.1299 81.659 33.1833 81.7052 33.2375C81.7966 33.3448 81.889 33.4517 81.9823 33.558C82.0757 33.664 82.17 33.7704 82.2652 33.877C82.3604 33.9834 82.4566 34.0893 82.5538 34.1947C82.749 34.4064 82.9479 34.617 83.1504 34.8265C83.2518 34.9313 83.3552 35.0356 83.458 35.1394C83.5875 35.2694 83.718 35.3984 83.8509 35.5275C83.9309 35.606 84.0113 35.6832 84.0928 35.7608C85.1628 36.78 86.2975 37.7291 87.4898 38.6022C87.6755 38.738 87.8581 38.8748 88.0374 39.0126C88.2168 39.1504 88.3934 39.289 88.5674 39.4283L88.7403 39.5674L88.9107 39.7074C88.9674 39.755 89.0236 39.8026 89.0793 39.8502C89.3107 40.0442 89.5364 40.2393 89.7564 40.4354L89.894 40.5597C89.9467 40.6073 89.999 40.655 90.0507 40.7026C90.1024 40.7502 90.1544 40.7978 90.2064 40.8454L90.3597 40.9883C90.4107 41.0359 90.4612 41.0835 90.5112 41.1311L90.6612 41.274L90.8088 41.4168C90.8564 41.4645 90.904 41.5121 90.9545 41.563C91.005 41.614 91.0497 41.6583 91.0973 41.7092C91.145 41.7602 91.1926 41.8045 91.2402 41.8559C91.3354 41.9511 91.4278 42.0521 91.5197 42.1502C91.5673 42.1978 91.6116 42.2487 91.6564 42.2983C91.7011 42.3478 91.7469 42.3968 91.7916 42.4468C91.9773 42.6519 92.158 42.8582 92.3335 43.0658C92.3849 43.1263 92.4354 43.1873 92.4864 43.2477C92.5797 43.3601 92.6717 43.4733 92.7625 43.5873L92.864 43.7149L92.8911 43.7496C92.9387 43.8106 92.9863 43.8711 93.034 43.932L93.0463 43.9477C93.0506 43.9544 93.0559 43.9606 93.0602 43.9663C93.0644 43.972 93.0668 43.9753 93.0701 43.9792C93.1144 44.0363 93.1573 44.0934 93.2001 44.1501L93.2401 44.2039C93.2425 44.2065 93.2447 44.2092 93.2468 44.212C93.2597 44.2301 93.273 44.2477 93.2863 44.2658L93.363 44.3691L93.4144 44.4401C93.4301 44.461 93.4454 44.4825 93.462 44.5034C93.4863 44.5363 93.5097 44.5691 93.533 44.6015C93.5501 44.6249 93.5663 44.6491 93.5806 44.672C93.5901 44.6853 93.5992 44.6982 93.6087 44.7106C93.6358 44.7496 93.6639 44.7887 93.6906 44.8277C93.6958 44.8363 93.7016 44.8439 93.7073 44.8515C93.7482 44.9115 93.7897 44.9706 93.8297 45.0301L93.903 45.1367L93.9592 45.221L94.003 45.2872L94.0815 45.4067C94.092 45.4234 94.1035 45.4396 94.1139 45.4544C94.1196 45.4625 94.1244 45.4705 94.1301 45.4786C94.1544 45.5172 94.1777 45.5558 94.2044 45.5944L94.2111 45.6048L94.2673 45.6934C94.2996 45.7439 94.3311 45.7948 94.3625 45.8453C94.3773 45.8686 94.392 45.8929 94.4063 45.9162C94.4206 45.9396 94.4406 45.9715 94.4568 45.9986L94.5292 46.1172C94.5334 46.1243 94.5377 46.1324 94.5425 46.1396L94.6425 46.3081C94.653 46.3267 94.6644 46.3453 94.6749 46.3634C94.7101 46.4239 94.7453 46.4839 94.7796 46.5443C94.7796 46.5443 94.7796 46.5443 94.7796 46.5486L94.8006 46.5853L94.8063 46.5953C94.8415 46.6588 94.8764 46.7208 94.911 46.7815L94.9282 46.8124C94.9663 46.881 95.0041 46.9497 95.0415 47.0186C95.0577 47.0481 95.073 47.0772 95.0891 47.1067C95.1053 47.1362 95.1206 47.1653 95.1368 47.1948C95.1434 47.2076 95.151 47.221 95.1577 47.2343C95.1644 47.2476 95.1653 47.2486 95.1691 47.2567C95.2044 47.3234 95.2396 47.39 95.2734 47.4572C95.2829 47.4743 95.292 47.4924 95.3006 47.5095C95.3272 47.5619 95.3534 47.6143 95.3796 47.6672C95.3877 47.6829 95.3953 47.6991 95.4039 47.7148C95.4315 47.7705 95.4596 47.8267 95.4863 47.8829L95.5148 47.941L95.5253 47.9624C95.5253 47.9652 95.5282 47.9681 95.5291 47.971L95.5344 47.9814C95.5591 48.0343 95.5844 48.0867 95.6091 48.1395L95.6229 48.1681C95.6339 48.1929 95.6449 48.2157 95.6568 48.2419C95.6687 48.2681 95.6744 48.279 95.6829 48.2981C95.6915 48.3171 95.7001 48.3357 95.7091 48.3548C95.7225 48.3852 95.7367 48.4162 95.751 48.4471C95.7519 48.4502 95.7532 48.453 95.7548 48.4557C95.7691 48.4881 95.7839 48.5205 95.7977 48.5509C95.8072 48.5719 95.8167 48.5928 95.8253 48.6133C95.8339 48.6338 95.8406 48.6481 95.8482 48.6652C95.8558 48.6824 95.8596 48.6905 95.8648 48.7033L95.9282 48.849C95.9386 48.8738 95.9486 48.8966 95.9586 48.9224C95.961 48.9271 95.9629 48.9324 95.9653 48.9371C95.9958 49.01 96.0267 49.0838 96.0567 49.1571C96.0615 49.169 96.0667 49.1814 96.072 49.1933C96.0872 49.2309 96.1025 49.2681 96.1172 49.3062C96.132 49.3443 96.1448 49.3738 96.1582 49.4081C96.1629 49.4214 96.1686 49.4352 96.1744 49.449C96.1891 49.4881 96.2048 49.5276 96.222 49.5671L96.2496 49.6409C96.2512 49.6442 96.2526 49.6475 96.2539 49.6509C96.2561 49.6562 96.258 49.6616 96.2596 49.6671C96.2691 49.6914 96.2786 49.7147 96.2882 49.7419C96.2977 49.769 96.3039 49.7823 96.311 49.8033C96.3277 49.8476 96.3444 49.8914 96.3586 49.9361C96.3653 49.9547 96.3729 49.9733 96.3796 49.9923C96.3896 50.0195 96.3996 50.0476 96.4091 50.0752C96.4163 50.0942 96.4234 50.1138 96.4301 50.1333L96.4401 50.1623C96.4639 50.2295 96.4877 50.2971 96.511 50.3647C96.5124 50.3681 96.5135 50.3716 96.5143 50.3752C96.5239 50.4018 96.5324 50.4285 96.542 50.4557L96.5729 50.548C96.5801 50.5695 96.5872 50.5914 96.5948 50.6128C96.5991 50.6256 96.6029 50.6385 96.6072 50.6514C96.6115 50.6642 96.6139 50.6704 96.6167 50.6799C96.6167 50.6814 96.6167 50.6828 96.6167 50.6842C96.6305 50.7252 96.6429 50.7656 96.6558 50.8061C96.6562 50.8086 96.6562 50.8112 96.6558 50.8137C96.6591 50.8228 96.6624 50.8323 96.6653 50.8423L96.6701 50.8585C96.6758 50.8752 96.6815 50.8928 96.6862 50.9099C96.7067 50.9733 96.7267 51.0371 96.7462 51.1004L96.7577 51.139C96.7767 51.2004 96.7953 51.2623 96.8129 51.3233L96.8329 51.3918C96.8515 51.4561 96.8696 51.5199 96.8881 51.5823C96.8924 51.5985 96.8977 51.6151 96.9019 51.6299C96.92 51.6942 96.9377 51.758 96.9548 51.8204C96.9767 51.9013 96.9977 51.9818 97.0186 52.0628C97.0367 52.1342 97.0553 52.2056 97.0729 52.277C97.0728 52.2786 97.0728 52.2802 97.0729 52.2818C97.0858 52.3332 97.0981 52.3851 97.1105 52.4375C97.1105 52.4375 97.1105 52.4404 97.1105 52.4413C97.1153 52.4632 97.121 52.4846 97.1253 52.5066C97.1286 52.5194 97.1315 52.5323 97.1348 52.5451C97.1381 52.558 97.1434 52.5804 97.1472 52.5975C97.1615 52.6608 97.1767 52.7246 97.1905 52.788C97.2 52.8294 97.2091 52.8713 97.2177 52.9123C97.218 52.9138 97.218 52.9155 97.2177 52.917C97.2253 52.9508 97.2324 52.9856 97.24 53.0194L97.2434 53.0361C97.2505 53.0699 97.2577 53.1037 97.2643 53.1375C97.271 53.1713 97.2781 53.2032 97.2848 53.2365C97.2877 53.2484 97.29 53.2608 97.2919 53.2727C97.3029 53.3251 97.3134 53.377 97.3234 53.4294C97.3291 53.4565 97.3338 53.4846 97.3391 53.5118C97.3486 53.5594 97.3572 53.607 97.3662 53.6546C97.3705 53.677 97.3748 53.7022 97.3786 53.7222C97.3881 53.7727 97.3967 53.8237 97.4057 53.8741C97.411 53.9022 97.4157 53.9308 97.4205 53.9584C97.4205 53.9713 97.4248 53.9841 97.4272 53.997C97.4296 54.0098 97.431 54.0198 97.4324 54.0308C97.4377 54.0594 97.4424 54.0879 97.4472 54.116C97.4538 54.157 97.4605 54.1975 97.4667 54.2379C97.4696 54.2532 97.4715 54.2684 97.4738 54.2856C97.4819 54.3389 97.4905 54.3927 97.4981 54.4456C97.5034 54.4756 97.5077 54.5056 97.5115 54.5351C97.5191 54.5827 97.5257 54.6303 97.5319 54.6751C97.5319 54.6913 97.5367 54.7074 97.5386 54.7227C97.5491 54.7984 97.5591 54.8741 97.5691 54.9503C97.5791 55.0265 97.5886 55.1022 97.5976 55.1784C97.6 55.1989 97.6024 55.2203 97.6048 55.2412C97.6143 55.3174 97.6224 55.3941 97.631 55.4698C97.6381 55.5374 97.6453 55.605 97.6519 55.6731C97.6519 55.6779 97.6519 55.6831 97.6519 55.6879L97.6553 55.7179V55.7384C97.6676 55.8603 97.6781 55.9822 97.6881 56.1041C97.6919 56.1517 97.6962 56.1993 97.7 56.2503C97.7 56.2779 97.7043 56.306 97.7062 56.3331C97.7081 56.3603 97.7105 56.3917 97.7129 56.4207C97.7162 56.4717 97.72 56.5226 97.7229 56.5731C97.7231 56.5749 97.7231 56.5766 97.7229 56.5784C97.7229 56.6003 97.7257 56.6217 97.7267 56.6436C97.7291 56.6745 97.7305 56.7055 97.7324 56.736C97.7353 56.7774 97.7372 56.8179 97.7391 56.8593C97.7391 56.8707 97.7391 56.8826 97.7391 56.8936C97.7429 56.9688 97.7467 57.0445 97.7495 57.1198L97.7543 57.2336C97.7543 57.254 97.7543 57.274 97.7543 57.294C97.7543 57.314 97.7543 57.3364 97.7572 57.3579C97.7574 57.3604 97.7574 57.3629 97.7572 57.3655C97.7572 57.4207 97.761 57.4759 97.7619 57.5312C97.7629 57.5864 97.7648 57.6298 97.7657 57.6793C97.7667 57.7288 97.7686 57.7812 97.7691 57.8316V57.8355C97.7691 57.8664 97.7691 57.8964 97.7691 57.9269C97.7691 57.9742 97.7691 58.0209 97.7691 58.0669V58.1145C97.7781 58.2035 97.7791 58.2869 97.7781 58.3693Z" fill="#F6F2FF"/>
<path fill-rule="evenodd" clip-rule="evenodd" d="M97.7781 58.3691V58.4767C97.7781 58.4933 97.7781 58.51 97.7781 58.5243C97.7781 58.591 97.7781 58.6591 97.7781 58.7267V58.7357C97.7781 58.7648 97.7781 58.7933 97.7781 58.8224C97.7781 58.8971 97.7753 58.971 97.7729 59.0452C97.7729 59.0848 97.7729 59.1243 97.7695 59.1638C97.7662 59.2033 97.7695 59.2381 97.7662 59.2752C97.7662 59.3386 97.7619 59.4024 97.7591 59.4657C97.7591 59.4757 97.7591 59.4862 97.7591 59.4962C97.7591 59.5062 97.7591 59.5071 97.7591 59.5124C97.7553 59.6047 97.7505 59.6966 97.7457 59.789L97.7424 59.8605C97.7391 59.9228 97.7348 59.9857 97.731 60.0481C97.7272 60.1104 97.7243 60.1633 97.7205 60.2204C97.7068 60.4325 97.691 60.6434 97.6729 60.8533C97.6529 61.0809 97.6307 61.3071 97.6062 61.5318C97.5894 61.6814 97.5719 61.8307 97.5538 61.9799L97.5253 62.2037C97.4815 62.537 97.4338 62.868 97.3824 63.1966C97.3643 63.3054 97.3461 63.4142 97.3276 63.5227C97.3153 63.5951 97.3029 63.6656 97.29 63.7399C97.2638 63.8827 97.2376 64.0256 97.21 64.1684C97.1691 64.3824 97.1264 64.5946 97.0819 64.8051C97.0524 64.9479 97.0219 65.0846 96.991 65.2241C96.9434 65.4327 96.8958 65.6384 96.8481 65.8432C96.7656 66.1847 96.6796 66.5209 96.59 66.8517C96.5186 67.1168 96.4451 67.3782 96.3696 67.636C96.3321 67.7629 96.294 67.8899 96.2553 68.0169C96.1401 68.3978 96.0215 68.7697 95.8996 69.1326C95.8393 69.3139 95.778 69.4926 95.7158 69.6688C95.4691 70.3745 95.2144 71.0421 94.9615 71.6644C94.9191 71.7673 94.8772 71.8697 94.8353 71.9706C94.8144 72.0216 94.7934 72.0716 94.772 72.122C94.7307 72.2214 94.689 72.3198 94.6468 72.4173C94.5423 72.6604 94.4393 72.8953 94.3377 73.122L94.2163 73.3887C94.0558 73.7396 93.8996 74.0677 93.7506 74.372C93.6763 74.5234 93.6038 74.6689 93.533 74.8086C93.4801 74.9134 93.4292 75.0148 93.3782 75.1124C93.3465 75.1759 93.3136 75.2394 93.2797 75.3029L93.232 75.3943C93.2006 75.4548 93.1692 75.5134 93.1392 75.5696C93.0916 75.6548 93.0501 75.7362 93.0078 75.8134C92.9792 75.8648 92.952 75.9148 92.9259 75.9629C92.8863 76.0353 92.8478 76.1057 92.812 76.1672C92.7644 76.2529 92.7198 76.3313 92.6782 76.4024C92.6478 76.4557 92.6192 76.5048 92.593 76.5495C92.5759 76.5795 92.5592 76.6072 92.5454 76.6333C92.5373 76.6462 92.5302 76.6591 92.523 76.6714L92.4825 76.7376C92.4221 76.8391 92.3873 76.8914 92.3873 76.8914C87.4655 84.3117 79.7419 90.9773 70.5141 95.2343C69.5703 95.6695 68.6114 96.079 67.6375 96.4628C63.5733 98.0623 59.2605 99.1913 54.7978 99.7218C53.0404 99.9358 51.2725 100.053 49.5022 100.074C48.6086 100.082 47.7112 100.066 46.8099 100.026C42.6978 99.8339 38.6281 99.1072 34.7036 97.8642C27.6718 95.6409 20.6354 91.6463 13.9374 85.4436C13.8613 85.3736 13.7865 85.3036 13.7113 85.2326C13.6046 85.1336 13.4994 85.0331 13.3946 84.9331L13.3379 84.8784C13.2392 84.7831 13.1411 84.6879 13.0437 84.5927L13.0403 84.5888C13.0051 84.5541 12.9698 84.5203 12.9351 84.485C12.8875 84.4412 12.8456 84.3969 12.8013 84.3531C12.757 84.3093 12.727 84.2793 12.6903 84.2422C12.6318 84.1841 12.5746 84.1255 12.517 84.0679C12.4818 84.0327 12.4475 83.997 12.4127 83.9617C12.3318 83.8795 12.251 83.7968 12.1703 83.7136C12.0865 83.626 12.0023 83.5384 11.9189 83.4503C11.897 83.4275 11.8751 83.4027 11.8542 83.3822L11.7637 83.287C11.7037 83.2236 11.6446 83.1603 11.5851 83.0965C11.5604 83.0703 11.5375 83.0436 11.5113 83.017L11.3508 82.8427L11.3408 82.8317L11.1504 82.6213L11.0818 82.5446C11.0113 82.466 10.9389 82.3875 10.8713 82.3065C10.8532 82.287 10.8361 82.2665 10.819 82.2475L10.7509 82.1699C10.6842 82.0937 10.618 82.0175 10.5523 81.9413C10.5252 81.9103 10.498 81.8789 10.4718 81.8461C10.4061 81.7705 10.3412 81.6945 10.2771 81.618C10.2585 81.5965 10.2399 81.5746 10.2218 81.5527L10.1666 81.487C10.128 81.4418 10.0904 81.397 10.0528 81.3513C10.0442 81.3413 10.0356 81.3304 10.0271 81.3199L9.97564 81.258L9.76803 81.007L9.59946 80.798L9.45137 80.6132L9.36709 80.5066L9.28899 80.408L9.28423 80.4013C9.22661 80.329 9.16995 80.2585 9.11424 80.1832C9.0809 80.1413 9.04805 80.099 9.01567 80.0566C8.94662 79.9666 8.87805 79.8771 8.80948 79.7866L8.7571 79.7166C8.71425 79.6599 8.67187 79.6037 8.62949 79.5466C8.61568 79.5275 8.60092 79.5095 8.58711 79.4904L8.57187 79.4699C8.49473 79.3661 8.41902 79.2628 8.3433 79.159C8.33521 79.1485 8.32759 79.1376 8.31997 79.1271C8.2495 79.0318 8.17997 78.9338 8.11141 78.8371L8.06379 78.7666C8.00474 78.6842 7.94665 78.6014 7.88808 78.5181L7.84046 78.449L7.79284 78.38L7.67046 78.2033L7.66761 78.1985C7.65999 78.1881 7.65285 78.1771 7.6457 78.1666C7.57999 78.0714 7.51428 77.9762 7.44904 77.8776L7.3419 77.7166L7.25428 77.5857C7.24762 77.5757 7.24095 77.5647 7.23476 77.5547C7.22857 77.5447 7.21905 77.5319 7.2119 77.5205L7.12619 77.39L7.07619 77.3128C7.06381 77.2943 7.05096 77.2748 7.03858 77.2552C7.03429 77.2486 7.03048 77.2424 7.02572 77.2362L6.99905 77.1943C6.93715 77.099 6.87525 77.001 6.8143 76.9048C6.74525 76.7962 6.67668 76.6867 6.60859 76.5776L6.58668 76.5424C6.54922 76.4818 6.51176 76.421 6.47431 76.36C6.44335 76.3095 6.4124 76.2595 6.38193 76.2091C6.25685 76.0027 6.13368 75.7964 6.01241 75.59L6.00813 75.5829L5.82432 75.2653C5.82432 75.2624 5.82146 75.2605 5.82051 75.2581C5.77289 75.1762 5.72528 75.0943 5.68052 75.0124L5.6329 74.9243C5.59004 74.8482 5.54719 74.771 5.50481 74.6943C5.48909 74.6672 5.47386 74.6396 5.45719 74.6124C5.43148 74.5648 5.40624 74.5172 5.381 74.4696C5.33719 74.3905 5.29434 74.3106 5.25196 74.2315C5.24053 74.2106 5.22862 74.1891 5.21767 74.1682C5.18767 74.1125 5.15815 74.0563 5.12863 73.9996L5.08625 73.9196L5.08196 73.912C5.05244 73.8567 5.02387 73.801 4.99482 73.7453C4.96577 73.6896 4.93673 73.6334 4.90816 73.5768C4.90816 73.571 4.90244 73.5653 4.89911 73.5591L4.86863 73.5006C4.85244 73.4696 4.8372 73.4382 4.82101 73.4053C4.79244 73.3487 4.7634 73.292 4.7353 73.2353L4.70768 73.1811L4.56483 72.8953L4.39864 72.5534C4.34531 72.4425 4.29246 72.3311 4.24008 72.2201C4.24008 72.2168 4.23722 72.2139 4.23627 72.2106C4.22674 72.1911 4.2177 72.1711 4.20817 72.1516C4.19103 72.1135 4.17341 72.0763 4.15579 72.0382C4.13818 72.0001 4.12627 71.9754 4.11199 71.943C4.0977 71.9106 4.08818 71.8911 4.07627 71.8649C4.02865 71.7573 3.97818 71.6506 3.92961 71.543C3.92294 71.5268 3.9158 71.5111 3.90866 71.4954L3.83009 71.3187L3.76676 71.1759C3.72676 71.0849 3.68724 70.9944 3.64866 70.903C3.63676 70.8768 3.62581 70.8502 3.61438 70.824C3.59533 70.7802 3.57724 70.7368 3.55867 70.6935C3.52914 70.624 3.5001 70.5535 3.47057 70.484C3.47078 70.4829 3.47078 70.4817 3.47057 70.4806C3.44137 70.4118 3.4128 70.3427 3.38486 70.2735L3.33296 70.1464C3.32201 70.1183 3.3101 70.0907 3.29915 70.0626C3.25867 69.9635 3.21868 69.864 3.17963 69.765C3.16011 69.7173 3.14058 69.6669 3.12106 69.6169C3.09725 69.5545 3.07344 69.4921 3.04868 69.4297C3.02725 69.374 3.00582 69.3183 2.98487 69.2621C2.97868 69.2473 2.97297 69.2326 2.96725 69.2178L2.91964 69.0945C2.8963 69.0326 2.87202 68.9707 2.85011 68.9088C2.82821 68.8469 2.8025 68.785 2.78154 68.7231C2.73869 68.6063 2.69631 68.4893 2.6544 68.3721C2.65467 68.3704 2.65467 68.3686 2.6544 68.3669C2.61298 68.2502 2.57155 68.134 2.53155 68.0174C2.52298 67.9912 2.51346 67.965 2.50441 67.9393C2.48441 67.8812 2.46441 67.8231 2.44489 67.7645C2.44012 67.7512 2.43584 67.7383 2.43155 67.725C2.41298 67.6717 2.39536 67.6183 2.37727 67.565C2.37108 67.5474 2.36584 67.5298 2.35965 67.5122C2.35346 67.4945 2.34394 67.4645 2.33632 67.4407C2.30457 67.3493 2.27441 67.2576 2.24584 67.1655C2.23632 67.1374 2.2268 67.1088 2.21823 67.0803C2.20346 67.0365 2.18966 66.9922 2.17585 66.9484V66.9426C2.16775 66.9169 2.15918 66.8922 2.15156 66.8665C2.15156 66.8665 2.15156 66.8636 2.15156 66.8626C2.1268 66.7831 2.10394 66.7036 2.07728 66.6246C2.07299 66.6136 2.06966 66.6017 2.06632 66.5908C2.04918 66.5355 2.03252 66.4803 2.01585 66.425C1.99918 66.3698 1.97966 66.3074 1.96157 66.2484C1.95963 66.2402 1.95724 66.2321 1.95442 66.2241C1.93395 66.1546 1.91347 66.0855 1.893 66.0155C1.87252 65.9455 1.84871 65.8665 1.82728 65.7917C1.80586 65.717 1.78395 65.6422 1.76348 65.5674C1.75395 65.5341 1.7449 65.5022 1.73538 65.4722C1.72586 65.4422 1.71729 65.407 1.70824 65.3741C1.70395 65.3594 1.69967 65.3446 1.69586 65.3298C1.67919 65.2708 1.663 65.2127 1.64824 65.1536L1.59491 64.9546C1.57872 64.8956 1.563 64.8365 1.54729 64.777C1.54062 64.7513 1.53301 64.7251 1.52634 64.6989C1.5092 64.6327 1.49205 64.5656 1.47539 64.4994C1.47299 64.4932 1.47123 64.4868 1.47015 64.4803C1.46586 64.4632 1.4611 64.446 1.45729 64.4294C1.43221 64.33 1.40729 64.2308 1.38253 64.1318C1.35777 64.0327 1.33444 63.9375 1.31254 63.8461C1.31254 63.8389 1.3092 63.8318 1.3073 63.8246C1.28968 63.7523 1.27301 63.6818 1.25539 63.608C1.25254 63.5961 1.25016 63.5846 1.2473 63.5723C1.22825 63.4908 1.2092 63.4099 1.19111 63.3285C1.17492 63.2594 1.15968 63.1894 1.14349 63.1204C1.1273 63.0513 1.11016 62.9713 1.09587 62.8966C1.07683 62.8118 1.05873 62.7266 1.04064 62.6413C1.03349 62.607 1.02588 62.5718 1.01873 62.5366C1.00635 62.477 0.993496 62.4175 0.981115 62.358C0.957306 62.2418 0.933497 62.1266 0.911593 62.0113C0.90826 61.9942 0.904927 61.9775 0.901593 61.9599C0.886356 61.8871 0.872546 61.8137 0.858737 61.7404C0.851595 61.7042 0.844928 61.6675 0.838262 61.6314C0.82731 61.5761 0.816834 61.5209 0.806834 61.4661C0.787469 61.3636 0.76874 61.2617 0.750645 61.1604C0.708741 60.9261 0.668742 60.6909 0.630648 60.4566C0.623982 60.419 0.618744 60.3819 0.612553 60.3442L0.603982 60.2938C0.600649 60.2733 0.597792 60.2523 0.594459 60.2319C0.562713 60.0303 0.532079 59.8284 0.502556 59.6262C0.481604 59.4833 0.461605 59.3362 0.441129 59.1914C0.402559 58.9005 0.365417 58.6095 0.331608 58.3186C0.2978 58.0276 0.266372 57.7367 0.236373 57.4453C0.222087 57.2999 0.208596 57.1543 0.195898 57.0086C0.139074 56.3702 0.0946304 55.7306 0.0625677 55.0896L0.0497109 54.8149C0.0246322 54.2292 0.00875958 53.6428 0.00209309 53.0559C-0.00425595 52.3699 0.00383908 51.6834 0.0263782 50.9964C0.0349494 50.7269 0.0454253 50.4564 0.0582821 50.1869C0.0711389 49.9174 0.0863766 49.6469 0.103519 49.3774C0.120661 49.1079 0.139709 48.8379 0.161137 48.5679C0.182406 48.2984 0.205739 48.0285 0.231135 47.7584C0.269546 47.3546 0.312402 46.9511 0.359703 46.5479C0.375417 46.4137 0.392083 46.2794 0.407321 46.1451C0.416844 46.0699 0.426368 45.9946 0.436367 45.9194C0.469224 45.6642 0.504461 45.4099 0.541127 45.1546C0.565888 44.9851 0.591284 44.8154 0.617315 44.6456C0.683028 44.2212 0.753661 43.7979 0.829214 43.3756C0.905085 42.9534 0.985877 42.532 1.07159 42.1114C1.08873 42.0276 1.10603 41.9435 1.12349 41.859C1.18698 41.5514 1.25365 41.2444 1.32349 40.9381C1.54189 39.974 1.78649 39.0161 2.05728 38.0644C2.13299 37.7972 2.21156 37.5301 2.29108 37.2639C2.34441 37.0868 2.3987 36.9096 2.45393 36.7325C2.53647 36.4674 2.62091 36.2028 2.70726 35.9387C3.53877 33.4028 4.55266 30.9304 5.74099 28.5408C5.88003 28.2602 6.02162 27.9813 6.16574 27.7042C6.52637 27.0099 6.90096 26.3245 7.28952 25.648C7.44476 25.3779 7.60237 25.109 7.76237 24.8414C7.92236 24.5738 8.08474 24.3079 8.2495 24.0438C25.5505 21.8967 40.8544 33.6783 56.264 34.3321C76.0915 35.173 72.7716 18.023 72.7335 17.832C72.7869 17.9373 72.8392 18.043 72.8921 18.1492C73.1032 18.5752 73.3134 19.0037 73.5226 19.4348C74.6778 21.8157 75.8363 24.299 77.2367 26.768C77.5859 27.3845 77.9523 27.9997 78.3358 28.6137C78.431 28.7689 78.5294 28.9238 78.631 29.0784C78.6743 29.146 78.7177 29.2141 78.7624 29.2822C78.9065 29.5044 79.0538 29.7266 79.2043 29.9489C79.2786 30.0593 79.3548 30.1693 79.4314 30.2798C79.54 30.4365 79.65 30.5922 79.7614 30.7484C79.8129 30.8212 79.8652 30.8912 79.9186 30.9669C79.9856 31.0599 80.0535 31.1528 80.1224 31.2455C80.3313 31.5277 80.5455 31.8088 80.7652 32.0888C80.8503 32.1974 80.9363 32.3056 81.0233 32.4136C81.1103 32.5215 81.1984 32.6297 81.2876 32.7383C81.3762 32.8462 81.4657 32.9539 81.5562 33.0612C81.6038 33.115 81.6471 33.1683 81.6933 33.2226C81.7847 33.3299 81.8771 33.4367 81.9704 33.543C82.0638 33.6491 82.158 33.7554 82.2533 33.8621C82.3485 33.9684 82.4447 34.0743 82.5418 34.1797C82.7371 34.3914 82.936 34.6021 83.1385 34.8116C83.2399 34.9163 83.3433 35.0206 83.4461 35.1244C83.5756 35.2544 83.7061 35.3835 83.839 35.5125C83.9189 35.5911 83.9994 35.6682 84.0809 35.7458C85.1509 36.7651 86.2856 37.7141 87.4779 38.5872C87.6636 38.7231 87.8462 38.8599 88.0255 38.9977C88.2049 39.1354 88.3815 39.274 88.5555 39.4134L88.7283 39.5524L88.8988 39.6924C88.9555 39.74 89.0117 39.7876 89.0674 39.8353C89.2988 40.0292 89.5245 40.2243 89.7445 40.4205L89.8821 40.5448C89.9348 40.5924 89.987 40.64 90.0388 40.6876C90.0905 40.7352 90.1424 40.7829 90.1945 40.8305L90.3478 40.9733C90.3988 41.0209 90.4492 41.0686 90.4993 41.1162L90.6492 41.259L90.7969 41.4019C90.8445 41.4495 90.8921 41.4971 90.9426 41.5481C90.9931 41.599 91.0378 41.6433 91.0854 41.6943C91.133 41.7452 91.1807 41.7895 91.2283 41.8409C91.3235 41.9362 91.4159 42.0371 91.5078 42.1352C91.5554 42.1828 91.5997 42.2338 91.6445 42.2833C91.6892 42.3328 91.7349 42.3819 91.7797 42.4319C91.9654 42.6369 92.146 42.8433 92.3216 43.0509C92.373 43.1114 92.4235 43.1723 92.4744 43.2328C92.5678 43.3452 92.6598 43.4583 92.7506 43.5723L92.852 43.6999L92.8792 43.7347C92.9268 43.7956 92.9744 43.8561 93.022 43.9171L93.0482 43.9513C93.0525 43.9561 93.0549 43.9604 93.0582 43.9642C93.1025 44.0213 93.1454 44.0785 93.1882 44.1351L93.2282 44.189C93.2306 44.1915 93.2328 44.1942 93.2349 44.1971C93.2478 44.2151 93.2611 44.2328 93.2744 44.2509C93.2878 44.269 93.3006 44.2866 93.3135 44.3042L93.3511 44.3518L93.4025 44.4228C93.4182 44.4437 93.4335 44.4651 93.4501 44.4861C93.4744 44.5189 93.4977 44.5518 93.5211 44.5842C93.5382 44.6075 93.5544 44.6318 93.5687 44.6547C93.5782 44.668 93.5873 44.6808 93.5968 44.6932C93.6239 44.7323 93.652 44.7713 93.6787 44.8104C93.6839 44.8189 93.6897 44.8266 93.6954 44.8342C93.7363 44.8942 93.7777 44.9532 93.8177 45.0127L93.8911 45.1194L93.9473 45.2037L93.9911 45.2699L94.0696 45.3894C94.0801 45.4061 94.0915 45.4223 94.102 45.437C94.1077 45.4451 94.1125 45.4532 94.1182 45.4613C94.1425 45.4999 94.1658 45.5384 94.1925 45.577L94.1992 45.5875L94.2553 45.6761C94.2877 45.7265 94.3192 45.7775 94.3506 45.828C94.3653 45.8513 94.3801 45.8756 94.3944 45.8989C94.4087 45.9222 94.4287 45.9541 94.4449 45.9813L94.5173 46.0999C94.5215 46.107 94.5258 46.1151 94.5306 46.1222L94.6306 46.2908C94.641 46.3094 94.6525 46.3279 94.663 46.346C94.6982 46.4065 94.7334 46.4665 94.7677 46.527C94.7677 46.527 94.7677 46.527 94.7677 46.5313L94.7887 46.5679L94.7944 46.5779C94.8296 46.6414 94.8645 46.7035 94.8991 46.7641L94.9163 46.7951C94.9544 46.8636 94.9922 46.9324 95.0296 47.0013L95.0525 47.0446L95.1444 47.217C95.1482 47.2241 95.152 47.2313 95.1558 47.2394C95.191 47.306 95.2263 47.3727 95.2601 47.4398C95.2939 47.507 95.3287 47.5736 95.3615 47.6408C95.3615 47.6436 95.3648 47.6465 95.3663 47.6498C95.3744 47.6655 95.382 47.6817 95.3905 47.6974C95.4182 47.7531 95.4463 47.8093 95.4729 47.8655L95.5015 47.9236L95.512 47.945C95.512 47.9479 95.5148 47.9508 95.5158 47.9536L95.521 47.9641C95.5458 48.017 95.571 48.0693 95.5958 48.1222L95.6096 48.1508C95.6205 48.1755 95.6315 48.1984 95.6434 48.2246C95.6491 48.2355 95.6539 48.2469 95.6591 48.2589C95.671 48.285 95.6834 48.3112 95.6958 48.3374C95.7082 48.3636 95.7234 48.3988 95.7377 48.4298C95.7386 48.4328 95.7398 48.4357 95.7415 48.4384C95.7558 48.4708 95.7705 48.5031 95.7844 48.5336C95.7939 48.5546 95.8034 48.5755 95.812 48.596C95.8205 48.6165 95.8272 48.6307 95.8348 48.6479C95.8425 48.665 95.8463 48.6731 95.8515 48.686C95.8832 48.7587 95.915 48.8317 95.9467 48.905C95.9491 48.9098 95.951 48.915 95.9534 48.9198C95.9839 48.9926 96.0148 49.0664 96.0448 49.1398C96.0496 49.1517 96.0548 49.1641 96.0601 49.176C96.0843 49.236 96.1077 49.296 96.1315 49.3555C96.1367 49.3674 96.141 49.3788 96.1462 49.3907C96.1515 49.4026 96.1567 49.4179 96.1624 49.4317C96.1867 49.4941 96.2101 49.556 96.2343 49.6183C96.2345 49.6201 96.2345 49.6218 96.2343 49.6236C96.236 49.6268 96.2374 49.6302 96.2386 49.6336C96.2409 49.6388 96.2428 49.6442 96.2443 49.6498C96.2539 49.6741 96.2634 49.6974 96.2729 49.7245C96.2824 49.7517 96.2886 49.765 96.2958 49.786C96.3124 49.8302 96.3291 49.874 96.3434 49.9188C96.3501 49.9374 96.3577 49.9559 96.3643 49.975C96.3743 50.0021 96.3843 50.0302 96.3939 50.0578C96.401 50.0769 96.4081 50.0964 96.4148 50.1159L96.4248 50.145C96.4486 50.2121 96.4724 50.2798 96.4958 50.3474C96.4972 50.3508 96.4983 50.3543 96.4991 50.3578C96.5191 50.415 96.5386 50.4731 96.5577 50.5307C96.5648 50.5521 96.572 50.574 96.5796 50.5955C96.5839 50.6083 96.5877 50.6212 96.5919 50.634C96.5962 50.6469 96.5986 50.6531 96.6015 50.6626C96.6014 50.664 96.6014 50.6655 96.6015 50.6669C96.6126 50.6986 96.6231 50.7315 96.6329 50.7654C96.6358 50.7735 96.6386 50.7812 96.6405 50.7888C96.641 50.7913 96.641 50.7939 96.6405 50.7964C96.6439 50.8064 96.6467 50.8159 96.65 50.825L96.6548 50.8412C96.6605 50.8578 96.6662 50.8755 96.671 50.8926C96.6915 50.9559 96.7115 51.0197 96.731 51.0831L96.7424 51.1216C96.7615 51.1831 96.78 51.245 96.7977 51.3059L96.8177 51.3745C96.8362 51.4388 96.8543 51.5026 96.8729 51.565C96.8772 51.5811 96.8824 51.5978 96.8867 51.6126C96.9048 51.6769 96.9224 51.7407 96.9396 51.803C96.9615 51.884 96.9824 51.9645 97.0034 52.0454C97.0215 52.1168 97.04 52.1883 97.0577 52.2597C97.0575 52.2613 97.0575 52.2629 97.0577 52.2645C97.0705 52.3159 97.0829 52.3678 97.0953 52.4202C97.0953 52.4202 97.0953 52.423 97.0953 52.424C97.1 52.4459 97.1058 52.4673 97.11 52.4892C97.1134 52.5021 97.1162 52.5149 97.1196 52.5278C97.1229 52.5406 97.1281 52.563 97.1319 52.5802C97.1462 52.6435 97.1615 52.7073 97.1753 52.7706C97.1848 52.8121 97.1938 52.854 97.2024 52.8949C97.2028 52.8965 97.2028 52.8981 97.2024 52.8997C97.21 52.9335 97.2172 52.9683 97.2248 53.0021L97.2281 53.0187C97.2353 53.0525 97.2424 53.0863 97.2491 53.1202C97.2558 53.154 97.2629 53.1859 97.2696 53.2192C97.2724 53.2311 97.2748 53.2435 97.2767 53.2554C97.2929 53.3354 97.3088 53.4147 97.3243 53.4935C97.3338 53.5411 97.3424 53.5887 97.3515 53.6363C97.3557 53.6587 97.36 53.6839 97.3638 53.7039C97.3734 53.7544 97.3819 53.8054 97.391 53.8558C97.3962 53.8839 97.401 53.9125 97.4057 53.9401C97.4057 53.953 97.41 53.9658 97.4124 53.9787C97.4148 53.9916 97.4162 54.0016 97.4176 54.0125C97.4296 54.0816 97.4405 54.1506 97.4519 54.2196C97.4548 54.2349 97.4567 54.2501 97.4591 54.2673C97.4672 54.3206 97.4757 54.3744 97.4834 54.4273C97.4886 54.4573 97.4929 54.4873 97.4967 54.5168C97.5043 54.5644 97.511 54.612 97.5172 54.6568C97.5172 54.673 97.5219 54.6892 97.5238 54.7044C97.5343 54.7801 97.5443 54.8558 97.5543 54.932C97.5643 55.0082 97.5738 55.0839 97.5829 55.1601C97.5853 55.1806 97.5876 55.202 97.59 55.223C97.5995 55.2991 97.6076 55.3758 97.6162 55.4515C97.6234 55.5191 97.6305 55.5868 97.6372 55.6548C97.6372 55.6596 97.6372 55.6648 97.6372 55.6696L97.6405 55.6996V55.7201C97.6529 55.842 97.6633 55.9639 97.6733 56.0858C97.6772 56.1334 97.6814 56.181 97.6853 56.232C97.6853 56.2596 97.6895 56.2877 97.6915 56.3148C97.6934 56.342 97.6957 56.3734 97.6981 56.4024C97.7014 56.4534 97.7053 56.5043 97.7081 56.5548C97.7083 56.5566 97.7083 56.5583 97.7081 56.5601C97.7081 56.582 97.711 56.6034 97.7119 56.6253C97.7162 56.6972 97.7205 56.7682 97.7243 56.841C97.7243 56.8481 97.7243 56.8558 97.7243 56.8639C97.7291 56.9434 97.7329 57.0224 97.7362 57.102C97.7391 57.1605 97.741 57.2186 97.7429 57.2762C97.7429 57.2977 97.7429 57.3186 97.7457 57.34C97.746 57.3426 97.746 57.3451 97.7457 57.3477C97.7457 57.4029 97.7495 57.4581 97.7505 57.5134C97.7505 57.5348 97.7505 57.5562 97.7529 57.5772C97.7529 57.6053 97.7529 57.6334 97.7529 57.6615C97.7529 57.7124 97.7557 57.7634 97.7562 57.8138V57.8176C97.7562 57.8486 97.7562 57.8786 97.7562 57.9091C97.7562 57.9564 97.7562 58.003 97.7562 58.0491V58.0967C97.7781 58.2034 97.7791 58.2867 97.7781 58.3691Z" fill="#EDE4FF"/>
<path fill-rule="evenodd" clip-rule="evenodd" d="M97.7793 58.3692V58.4768C97.7793 58.4934 97.7793 58.5101 97.7793 58.5244C97.7793 58.5911 97.7793 58.6591 97.7793 58.7268V58.7358C97.7793 58.7649 97.7793 58.7934 97.7793 58.8225C97.7793 58.8972 97.7764 58.971 97.774 59.0453C97.774 59.0648 97.774 59.0839 97.774 59.1025C97.774 59.121 97.774 59.1434 97.774 59.1639C97.774 59.2006 97.774 59.2382 97.7707 59.2753C97.7707 59.3387 97.7664 59.4025 97.7635 59.4658C97.7635 59.4758 97.7635 59.4863 97.7635 59.4963C97.7635 59.5063 97.7635 59.5072 97.7635 59.5125C97.7597 59.6048 97.755 59.6967 97.7502 59.7891L97.7469 59.8605C97.7435 59.9229 97.7393 59.9858 97.7355 60.0482C97.7316 60.1105 97.7288 60.1634 97.725 60.2205C97.7113 60.4326 97.6954 60.6435 97.6774 60.8534C97.658 61.081 97.6358 61.3072 97.6107 61.5319C97.5939 61.6814 97.5764 61.8308 97.5583 61.98L97.5297 62.2038C97.4864 62.5371 97.4374 62.8705 97.3869 63.1966C97.3688 63.3055 97.3505 63.4143 97.3321 63.5228C97.3197 63.5952 97.3074 63.6657 97.2945 63.74C97.2683 63.8828 97.2421 64.0257 97.2145 64.1685C97.1742 64.3825 97.1315 64.5947 97.0864 64.8052C97.0569 64.948 97.0264 65.0847 96.9955 65.2242C96.9479 65.4328 96.9002 65.6385 96.8526 65.8432C96.7701 66.1848 96.6841 66.521 96.5945 66.8518C96.5231 67.1169 96.4496 67.3783 96.3741 67.6361C96.3366 67.763 96.2985 67.89 96.2598 68.017C96.1445 68.3979 96.026 68.7698 95.9041 69.1327C95.8438 69.3139 95.7825 69.4927 95.7203 69.6689C95.4736 70.3746 95.2189 71.0422 94.966 71.6645C94.9236 71.7674 94.8817 71.8698 94.8398 71.9707C94.8189 72.0217 94.7979 72.0717 94.7765 72.1221C94.7352 72.2215 94.6935 72.3199 94.6512 72.4174C94.5468 72.6605 94.4438 72.8954 94.3422 73.1221L94.2208 73.3888C94.0603 73.7397 93.9041 74.0678 93.7551 74.3721C93.6808 74.5235 93.6083 74.669 93.5375 74.8087C93.4846 74.9135 93.4337 75.0149 93.3827 75.1125C93.351 75.176 93.3181 75.2395 93.2841 75.303L93.2365 75.3944C93.2051 75.4549 93.1737 75.5135 93.1437 75.5697C93.0961 75.6549 93.0546 75.7363 93.0122 75.8135C92.9841 75.8649 92.957 75.9149 92.9303 75.963C92.8908 76.0354 92.8522 76.1058 92.8165 76.1673C92.7689 76.253 92.7243 76.3314 92.6827 76.4025C92.6522 76.4558 92.6237 76.5049 92.5975 76.5496C92.5803 76.5796 92.5637 76.6073 92.5499 76.6334C92.5418 76.6463 92.5346 76.6592 92.5275 76.6715L92.487 76.7377C92.4265 76.8391 92.3918 76.8915 92.3918 76.8915C87.47 84.3118 79.7464 90.9774 70.5185 95.2344C69.5748 95.6696 68.6159 96.0791 67.642 96.4629C63.5778 98.0624 59.265 99.1914 54.8023 99.7219C53.0438 99.9361 51.2748 100.054 49.5034 100.074C48.6097 100.082 47.7123 100.066 46.8111 100.026C42.6989 99.834 38.6293 99.1073 34.7047 97.8643C27.673 95.641 20.6365 91.6464 13.9386 85.4437C13.8624 85.3737 13.7876 85.3037 13.7124 85.2327C13.6057 85.1337 13.5005 85.0332 13.3958 84.9332L13.3391 84.8785C13.2404 84.7832 13.1423 84.688 13.0448 84.5928L12.9362 84.4851C12.8886 84.4413 12.8467 84.397 12.8024 84.3532C12.7582 84.3094 12.7282 84.2794 12.6915 84.2423C12.6329 84.1842 12.5758 84.1256 12.5182 84.068C12.4829 84.0328 12.4486 83.9971 12.4139 83.9618C12.3329 83.8796 12.2521 83.7969 12.1715 83.7137C12.0877 83.6261 12.0034 83.5385 11.9201 83.4504C11.8982 83.4275 11.8763 83.4028 11.8553 83.3823L11.7648 83.2871C11.7048 83.2237 11.6458 83.1604 11.5863 83.0966C11.5615 83.0704 11.5387 83.0437 11.5125 83.0171L11.352 82.8428L11.342 82.8319C11.3372 82.8266 11.3315 82.8204 11.3268 82.8142C11.2449 82.7242 11.1634 82.6347 11.0825 82.5447C11.012 82.4661 10.9396 82.3876 10.872 82.3066C10.8539 82.2871 10.8368 82.2666 10.8196 82.2476L10.7515 82.17C10.6849 82.0938 10.6187 82.0176 10.553 81.9414C10.5258 81.9104 10.4987 81.879 10.4725 81.8462C10.4068 81.7706 10.3419 81.6946 10.2777 81.6181L10.2439 81.5781C10.1801 81.5028 10.1163 81.4271 10.0535 81.3514C10.0449 81.3414 10.0363 81.3305 10.0277 81.32L9.97632 81.2581L9.76871 81.0071L9.60014 80.7981L9.45205 80.6133L9.36776 80.5067L9.28967 80.4081L9.28491 80.4014C9.22729 80.3291 9.17063 80.2586 9.11491 80.1833C9.08158 80.1414 9.04873 80.0991 9.01635 80.0567C8.9473 79.9667 8.87873 79.8772 8.81016 79.7867L8.75778 79.7167C8.71492 79.66 8.67254 79.6038 8.63017 79.5467C8.61636 79.5276 8.60159 79.5096 8.58778 79.4905L8.57255 79.47C8.49604 79.3665 8.41985 79.2629 8.34398 79.1591L8.34113 79.1548C8.26398 79.0486 8.1878 78.9434 8.11208 78.8372L8.06447 78.7667C8.00542 78.6843 7.94733 78.6015 7.88876 78.5182L7.84114 78.4491C7.78352 78.3658 7.72543 78.2829 7.66781 78.1986C7.59448 78.0915 7.5221 77.9848 7.44924 77.8777L7.3421 77.7167L7.23496 77.5548C7.22734 77.5434 7.21925 77.532 7.21211 77.5206L7.03878 77.2553C7.03449 77.2487 7.03068 77.2425 7.02592 77.2363L6.99926 77.1944C6.93735 77.0991 6.87545 77.001 6.8145 76.9049C6.74545 76.7963 6.67688 76.6868 6.60879 76.5777L6.58689 76.5425C6.54943 76.4819 6.51197 76.4211 6.47451 76.3601C6.44356 76.3096 6.4126 76.2596 6.38213 76.2092C6.25737 76.0028 6.1342 75.7965 6.01261 75.5901L6.00833 75.583L5.82452 75.2654C5.82452 75.2625 5.82167 75.2606 5.82071 75.2582C5.75691 75.1468 5.69405 75.0359 5.63024 74.9249C5.58739 74.8487 5.54453 74.7716 5.50215 74.6949C5.45977 74.6183 5.42072 74.5464 5.38025 74.4716C5.33977 74.3968 5.29359 74.3125 5.25121 74.2335C5.20883 74.1545 5.16883 74.0792 5.12788 74.0016L5.0855 73.9216L5.08121 73.914C5.02312 73.8026 4.96502 73.6911 4.9074 73.5807C4.9074 73.5749 4.90169 73.5692 4.89836 73.563C4.87264 73.5121 4.84693 73.4616 4.82074 73.4111C4.79455 73.3607 4.76312 73.2978 4.73503 73.2411L4.70741 73.1869L4.56456 72.9012L4.39837 72.5593C4.34409 72.445 4.2898 72.3312 4.23599 72.2164C4.22647 72.1969 4.21742 72.1769 4.2079 72.1574C4.19076 72.1193 4.17314 72.0821 4.15552 72.044C4.12885 71.9869 4.10266 71.9293 4.076 71.8721C4.02838 71.7645 3.97791 71.6579 3.92934 71.5502C3.92267 71.534 3.91553 71.5183 3.90838 71.5026C3.86077 71.395 3.81315 71.2883 3.76553 71.1807C3.72553 71.0898 3.68601 70.9993 3.64744 70.9079C3.63553 70.8817 3.62458 70.855 3.61315 70.8288C3.56554 70.7155 3.51792 70.6026 3.4703 70.4888C3.47051 70.4877 3.47051 70.4866 3.4703 70.4855C3.42395 70.3741 3.37808 70.263 3.33268 70.1522C3.32173 70.1241 3.30983 70.0965 3.29888 70.0684C3.2584 69.9693 3.2184 69.8698 3.17936 69.7708C3.13555 69.6593 3.09221 69.5479 3.04841 69.4374C3.02698 69.3817 3.00555 69.326 2.9846 69.2698C2.96365 69.2136 2.94222 69.1584 2.92079 69.1022C2.89936 69.046 2.87317 68.9784 2.85127 68.9165C2.82936 68.8546 2.80365 68.7927 2.7827 68.7308C2.73984 68.614 2.69746 68.497 2.65556 68.3798C2.65583 68.3781 2.65583 68.3763 2.65556 68.3746C2.61413 68.2579 2.5727 68.1418 2.53271 68.0251C2.50318 67.941 2.47429 67.8567 2.44604 67.7722C2.44128 67.7589 2.43699 67.7461 2.43271 67.7327L2.4108 67.6699C2.40033 67.6375 2.3889 67.6051 2.37842 67.5746C2.37223 67.557 2.367 67.5394 2.36081 67.5218C2.35461 67.5042 2.34509 67.4742 2.33747 67.4503C2.33414 67.4399 2.32985 67.4289 2.32604 67.418C2.31509 67.3837 2.30366 67.3499 2.29224 67.3151C2.277 67.2675 2.26128 67.2199 2.247 67.1751C2.23748 67.147 2.22795 67.1185 2.21938 67.0899C2.20462 67.0461 2.19081 67.0018 2.177 66.958V66.9523C2.16891 66.9265 2.16033 66.9018 2.15272 66.8761C2.15272 66.8761 2.15272 66.8732 2.15272 66.8723C2.12795 66.7927 2.1051 66.7132 2.07843 66.6342C2.07415 66.6232 2.07081 66.6113 2.06748 66.6004C2.05034 66.5451 2.03367 66.4899 2.017 66.4347C2.00034 66.3794 1.98082 66.317 1.96272 66.258C1.96078 66.2498 1.9584 66.2417 1.95558 66.2337C1.9351 66.1642 1.91463 66.0951 1.89415 66.0251C1.87368 65.9551 1.84987 65.8761 1.82844 65.8013C1.80701 65.7266 1.78511 65.6518 1.76463 65.5771C1.75892 65.5585 1.75415 65.5399 1.74844 65.5218C1.74273 65.5037 1.74082 65.4933 1.73654 65.4794C1.72796 65.4466 1.71844 65.4142 1.70939 65.3814C1.70511 65.3666 1.70082 65.3518 1.69701 65.3371C1.68035 65.278 1.66416 65.2199 1.6494 65.1609L1.59606 64.9618C1.57987 64.9028 1.56416 64.8437 1.54845 64.7842C1.54178 64.7585 1.53416 64.7323 1.52749 64.7061C1.51035 64.6399 1.49321 64.5728 1.47654 64.5066C1.47414 64.5005 1.47239 64.4941 1.4713 64.4876C1.46702 64.4704 1.46226 64.4538 1.45797 64.4366C1.43289 64.3373 1.40797 64.238 1.38321 64.139C1.35845 64.04 1.33512 63.9447 1.31321 63.8533C1.31321 63.8462 1.30988 63.839 1.30798 63.8319C1.29036 63.7595 1.27369 63.689 1.25607 63.6152C1.25322 63.6033 1.25083 63.5919 1.24798 63.5795C1.22893 63.4981 1.20988 63.4171 1.19179 63.3357C1.1756 63.2666 1.16036 63.1966 1.14417 63.1276C1.12798 63.0586 1.11084 62.9786 1.09655 62.9038C1.07751 62.819 1.05941 62.7338 1.04132 62.6486C1.03417 62.6143 1.02655 62.579 1.01941 62.5438C1.00703 62.4843 0.994174 62.4248 0.981794 62.3652C0.957985 62.2491 0.934176 62.1338 0.912272 62.0186C0.908938 62.0014 0.905605 61.9848 0.902272 61.9672C0.887034 61.8943 0.873225 61.821 0.859416 61.7476C0.852273 61.7114 0.845607 61.6748 0.83894 61.6386C0.827988 61.5834 0.817512 61.5281 0.807513 61.4734C0.788148 61.3708 0.769418 61.2689 0.751324 61.1677C0.70942 60.9334 0.669421 60.6981 0.631327 60.4639C0.62466 60.4262 0.619422 60.3891 0.613232 60.3515C0.607042 60.3139 0.601328 60.2762 0.595137 60.2391C0.563392 60.0375 0.532758 59.8356 0.503235 59.6334C12.7696 40.5682 38.8508 49.8384 55.4632 56.1502C70.3805 61.8167 85.7139 49.4732 92.338 43.0781C92.3894 43.1386 92.4399 43.1996 92.4908 43.26C92.5842 43.3724 92.6762 43.4856 92.767 43.5995L92.8684 43.7272L92.8956 43.7619C92.9432 43.8229 92.9908 43.8833 93.0384 43.9443L93.0508 43.96C93.0551 43.9667 93.0603 43.9729 93.0646 43.9786C93.0689 43.9843 93.0713 43.9876 93.0746 43.9914C93.1189 44.0486 93.1618 44.1057 93.2046 44.1624L93.2446 44.2162C93.2737 44.2548 93.3022 44.2929 93.3299 44.3314L93.3675 44.379L93.4189 44.45C93.4346 44.4709 93.4498 44.4924 93.4665 44.5133C93.4908 44.5462 93.5141 44.579 93.5375 44.6114C93.5546 44.6348 93.5708 44.659 93.5851 44.6819C93.5946 44.6952 93.6037 44.7081 93.6132 44.7205C93.6403 44.7595 93.6684 44.7986 93.6951 44.8376C93.7003 44.8462 93.706 44.8538 93.7117 44.8614C93.7527 44.9214 93.7941 44.9805 93.8341 45.04C93.8741 45.0995 93.9208 45.1671 93.9636 45.2304L94.0075 45.2966L94.086 45.4162C94.0965 45.4328 94.1079 45.449 94.1184 45.4638C94.1241 45.4719 94.1289 45.48 94.1346 45.4881C94.1589 45.5266 94.1822 45.5652 94.2089 45.6038L94.2155 45.6142L94.2717 45.7028C94.3041 45.7533 94.3355 45.8042 94.367 45.8547C94.3817 45.8781 94.3965 45.9023 94.4108 45.9257C94.4251 45.949 94.4451 45.9809 94.4612 46.008L94.5336 46.1266C94.5379 46.1338 94.5422 46.1419 94.547 46.149L94.647 46.3176C94.6574 46.3361 94.6689 46.3547 94.6793 46.3728C94.7146 46.4333 94.7498 46.4933 94.7841 46.5537C94.7841 46.5537 94.7841 46.5537 94.7841 46.558L94.805 46.5947L94.8108 46.6047C94.846 46.6682 94.8809 46.7303 94.9155 46.7909L94.9327 46.8218C94.9708 46.8904 95.0085 46.9591 95.046 47.028L95.0688 47.0714L95.0931 47.1161C95.1089 47.1452 95.1246 47.1747 95.1408 47.2042C95.1474 47.2171 95.155 47.2304 95.1617 47.2437C95.1684 47.2571 95.1693 47.258 95.1731 47.2661C95.2084 47.3328 95.2436 47.3994 95.2774 47.4666C95.2869 47.4837 95.296 47.5018 95.3046 47.519C95.3298 47.5666 95.3522 47.618 95.3788 47.6675C95.3788 47.6704 95.3822 47.6732 95.3836 47.6766C95.3917 47.6923 95.3993 47.7085 95.4079 47.7242C95.4355 47.7799 95.4636 47.8361 95.4903 47.8923L95.5188 47.9504L95.5293 47.9718C95.5293 47.9747 95.5322 47.9775 95.5331 47.9804L95.5384 47.9909C95.5631 48.0437 95.5884 48.0961 95.6131 48.1489L95.6269 48.1775C95.6379 48.2023 95.6488 48.2251 95.6607 48.2513C95.6665 48.2623 95.6712 48.2737 95.6765 48.2856C95.6817 48.2975 95.6836 48.2999 95.6869 48.3075C95.695 48.3261 95.7041 48.3451 95.7131 48.3642C95.7265 48.3947 95.7407 48.4256 95.755 48.4566C95.7559 48.4596 95.7572 48.4625 95.7588 48.4651C95.7731 48.4975 95.7879 48.5299 95.8017 48.5604C95.8112 48.5813 95.8207 48.6023 95.8293 48.6227C95.8379 48.6432 95.8446 48.6575 95.8522 48.6746C95.8598 48.6918 95.8636 48.6999 95.8688 48.7127L95.9322 48.8585C95.9426 48.8832 95.9526 48.9061 95.9626 48.9318C95.965 48.9365 95.9669 48.9418 95.9693 48.9465C95.9998 49.0194 96.0307 49.0932 96.0607 49.1665C96.0655 49.1784 96.0707 49.1908 96.076 49.2027C96.0912 49.2403 96.1064 49.2775 96.1212 49.3156C96.1302 49.3375 96.1393 49.3599 96.1474 49.3822C96.1526 49.3942 96.1569 49.4056 96.1622 49.4175C96.1674 49.4294 96.1726 49.4446 96.1784 49.4584C96.1931 49.4975 96.2088 49.537 96.226 49.5765C96.235 49.5994 96.2431 49.6241 96.2517 49.6451C96.2519 49.6468 96.2519 49.6486 96.2517 49.6503C96.2533 49.6536 96.2547 49.6569 96.256 49.6603C96.2582 49.6656 96.2601 49.671 96.2617 49.6765C96.2712 49.7008 96.2807 49.7241 96.2902 49.7513C96.2998 49.7784 96.306 49.7918 96.3131 49.8127C96.3298 49.857 96.3464 49.9008 96.3607 49.9456C96.3674 49.9641 96.375 49.9827 96.3817 50.0018C96.3917 50.0289 96.4017 50.057 96.4112 50.0846C96.4183 50.1037 96.4255 50.1232 96.4321 50.1427L96.4421 50.1717C96.466 50.2389 96.4898 50.3065 96.5131 50.3741C96.5145 50.3775 96.5156 50.381 96.5164 50.3846C96.526 50.4113 96.5345 50.4379 96.5441 50.4651L96.575 50.5575C96.5864 50.5917 96.5983 50.6265 96.6093 50.6608C96.6126 50.6703 96.616 50.6798 96.6188 50.6894C96.6187 50.6908 96.6187 50.6922 96.6188 50.6936C96.6299 50.7254 96.6404 50.7582 96.6502 50.7922C96.6531 50.8003 96.656 50.8079 96.6579 50.8155C96.6583 50.8181 96.6583 50.8206 96.6579 50.8232C96.6612 50.8322 96.6645 50.8417 96.6674 50.8517L96.6721 50.8679C96.6779 50.8846 96.6836 50.9022 96.6883 50.9193C96.7088 50.9827 96.7288 51.0465 96.7483 51.1098L96.7598 51.1484C96.7788 51.2098 96.7974 51.2717 96.815 51.3327L96.835 51.4012C96.8536 51.4655 96.8717 51.5293 96.8902 51.5917C96.8945 51.6079 96.8998 51.6246 96.904 51.6393C96.9221 51.7036 96.9398 51.7674 96.9569 51.8298C96.9788 51.9108 96.9998 51.9912 97.0207 52.0722C97.0388 52.1436 97.0574 52.215 97.075 52.2865C97.0748 52.288 97.0748 52.2896 97.075 52.2912C97.0878 52.3426 97.1002 52.3945 97.1126 52.4469C97.1126 52.4469 97.1126 52.4498 97.1126 52.4507C97.1207 52.4855 97.1283 52.5203 97.1369 52.5545C97.1407 52.5717 97.1455 52.5898 97.1493 52.6069C97.1636 52.6703 97.1788 52.7341 97.1926 52.7974C97.2021 52.8388 97.2112 52.8807 97.2197 52.9217C97.2201 52.9232 97.2201 52.9249 97.2197 52.9264C97.2274 52.9602 97.2345 52.995 97.2421 53.0288L97.2455 53.0455C97.2526 53.0793 97.2598 53.1131 97.2664 53.1469C97.2731 53.1807 97.2802 53.2126 97.2869 53.246C97.2897 53.2579 97.2921 53.2702 97.294 53.2821C97.305 53.3345 97.3155 53.3864 97.3255 53.4388C97.3312 53.4659 97.3359 53.494 97.3412 53.5212C97.3507 53.5688 97.3593 53.6164 97.3683 53.664C97.3726 53.6864 97.3769 53.7117 97.3807 53.7317C97.3902 53.7821 97.3988 53.8331 97.4078 53.8836C97.4131 53.9117 97.4178 53.9402 97.4226 53.9678C97.4226 53.9807 97.4269 53.9936 97.4293 54.0064C97.4316 54.0193 97.4331 54.0293 97.4345 54.0402C97.4398 54.0688 97.4445 54.0974 97.4493 54.1255C97.4559 54.1664 97.4626 54.2069 97.4688 54.2474C97.4716 54.2626 97.4735 54.2778 97.4759 54.295C97.484 54.3483 97.4926 54.4021 97.5002 54.455C97.5055 54.485 97.5097 54.515 97.5136 54.5445C97.5212 54.5921 97.5278 54.6397 97.534 54.6845C97.534 54.7007 97.5388 54.7169 97.5407 54.7321C97.5512 54.8078 97.5612 54.8835 97.5712 54.9597C97.5812 55.0359 97.5907 55.1116 97.5997 55.1878C97.6021 55.2083 97.6045 55.2297 97.6069 55.2507C97.6164 55.3269 97.6245 55.4035 97.6331 55.4792C97.6402 55.5468 97.6474 55.6145 97.654 55.6826C97.654 55.6873 97.654 55.6926 97.654 55.6973L97.6574 55.7273V55.7478C97.6697 55.8697 97.6802 55.9916 97.6902 56.1135C97.694 56.1611 97.6983 56.2087 97.7021 56.2597C97.7021 56.2873 97.7064 56.3154 97.7083 56.3425C97.7102 56.3697 97.7126 56.4011 97.715 56.4302C97.7183 56.4811 97.7221 56.5321 97.725 56.5825C97.7252 56.5843 97.7252 56.586 97.725 56.5878C97.725 56.6097 97.7278 56.6311 97.7288 56.653C97.7312 56.684 97.7326 56.7149 97.7345 56.7454C97.7374 56.7868 97.7393 56.8273 97.7412 56.8687C97.7412 56.8759 97.7412 56.8835 97.7412 56.8916C97.7414 56.8954 97.7414 56.8992 97.7412 56.903C97.745 56.9782 97.7488 57.054 97.7516 57.1292L97.7564 57.243C97.7564 57.2839 97.7597 57.3258 97.7612 57.3673C97.7614 57.3698 97.7614 57.3724 97.7612 57.3749C97.7612 57.4301 97.765 57.4849 97.7664 57.5397C97.7664 57.5616 97.7664 57.5825 97.7664 57.6044C97.7664 57.6263 97.7664 57.6606 97.7664 57.6887C97.7664 57.7396 97.7693 57.7906 97.7697 57.8411V57.8449C97.7697 57.8758 97.7697 57.9058 97.7697 57.9363C97.7697 57.9836 97.7697 58.0303 97.7697 58.0763V58.1239C97.7793 58.2034 97.7802 58.2868 97.7793 58.3692Z" fill="#E4DBFA"/>
<path fill-rule="evenodd" clip-rule="evenodd" d="M97.7787 58.3684V58.476C97.7787 58.4927 97.7787 58.5094 97.7787 58.5236C97.7787 58.5903 97.7787 58.6584 97.7787 58.726V58.7351C97.7787 58.7641 97.7787 58.7927 97.7787 58.8217C97.7787 58.8965 97.7758 58.9703 97.7734 59.0446C97.7734 59.0641 97.7734 59.0831 97.7734 59.1017C97.7734 59.1203 97.7734 59.1427 97.7734 59.1631C97.7734 59.1998 97.7734 59.2374 97.7701 59.2746C97.7701 59.3379 97.7658 59.4017 97.7629 59.465C97.7629 59.475 97.7629 59.4855 97.7629 59.4955C97.7629 59.5055 97.7629 59.5065 97.7629 59.5117C97.7591 59.6041 97.7544 59.696 97.7496 59.7884L97.7463 59.8598C97.7429 59.9222 97.7387 59.985 97.7348 60.0474C97.731 60.1098 97.7282 60.1626 97.7244 60.2198C97.7107 60.4318 97.6948 60.6428 97.6768 60.8526C97.6574 61.0802 97.6352 61.3064 97.6101 61.5312C97.5933 61.6807 97.5758 61.8301 97.5577 61.9793L97.5291 62.2031C97.4858 62.5364 97.4368 62.8697 97.3863 63.1959C97.3682 63.3048 97.3499 63.4135 97.3315 63.5221C97.3191 63.5945 97.3068 63.6649 97.2939 63.7392C97.2677 63.8821 97.2415 64.0249 97.2139 64.1678C97.1736 64.3817 97.1309 64.594 97.0858 64.8044C97.0563 64.9473 97.0258 65.0839 96.9949 65.2235C96.9472 65.432 96.8996 65.6377 96.852 65.8425C96.7695 66.1841 96.6834 66.5203 96.5939 66.851C96.5225 67.1161 96.449 67.3775 96.3735 67.6353C96.336 67.7623 96.2979 67.8893 96.2592 68.0162C96.1439 68.3972 96.0254 68.7691 95.9035 69.1319C95.8432 69.3132 95.7819 69.4919 95.7197 69.6681C95.473 70.3738 95.2182 71.0414 94.9654 71.6638C94.923 71.7666 94.8811 71.869 94.8392 71.97C94.8183 72.0209 94.7973 72.0709 94.7759 72.1214C94.7346 72.2207 94.6929 72.3192 94.6506 72.4166C94.5462 72.6598 94.4432 72.8947 94.3416 73.1214L94.2202 73.388C94.0597 73.739 93.9035 74.067 93.7545 74.3713C93.6802 74.5227 93.6077 74.6683 93.5369 74.808C93.484 74.9127 93.4331 75.0142 93.3821 75.1118C93.3504 75.1753 93.3175 75.2388 93.2835 75.3022L93.2359 75.3937C93.2045 75.4541 93.1731 75.5127 93.1431 75.5689C93.0954 75.6541 93.054 75.7356 93.0116 75.8127C92.9835 75.8641 92.9564 75.9141 92.9297 75.9622C92.8902 76.0346 92.8516 76.1051 92.8159 76.1665C92.7683 76.2522 92.7237 76.3306 92.6821 76.4017C92.6516 76.4551 92.6231 76.5041 92.5969 76.5489C92.5797 76.5789 92.5631 76.6065 92.5493 76.6327C92.5412 76.6455 92.534 76.6584 92.5269 76.6708L92.4864 76.737C92.4259 76.8384 92.3912 76.8908 92.3912 76.8908C87.4694 84.3111 79.7458 90.9766 70.5179 95.2336C69.5742 95.6689 68.6153 96.0784 67.6413 96.4622C63.5772 98.0617 59.2644 99.1907 54.8017 99.7211C53.0432 99.9353 51.2742 100.053 49.5028 100.073C48.6091 100.082 47.7117 100.066 46.8105 100.025C42.6983 99.8332 38.6286 99.1065 34.7041 97.8636C27.6724 95.6403 20.6359 91.6456 13.938 85.4429C13.8618 85.3729 13.787 85.3029 13.7118 85.232C13.6051 85.1329 13.4999 85.0325 13.3951 84.9325L13.3385 84.8777C13.2398 84.7825 13.1417 84.6872 13.0442 84.592L12.9356 84.4844C12.888 84.4406 12.8461 84.3963 12.8018 84.3525C12.7575 84.3087 12.7275 84.2787 12.6909 84.2415C12.6323 84.1834 12.5752 84.1249 12.5176 84.0673C12.4823 84.032 12.448 83.9963 12.4133 83.9611C12.3323 83.8789 12.2515 83.7962 12.1709 83.713C12.0871 83.6254 12.0028 83.5378 11.9195 83.4497C11.8976 83.4268 11.8757 83.402 11.8547 83.3816L11.7642 83.2863C11.7042 83.223 11.6452 83.1597 11.5857 83.0959C11.5609 83.0697 11.5381 83.043 11.5119 83.0163L11.3514 82.8421L11.3414 82.8311C11.3366 82.8259 11.3309 82.8197 11.3262 82.8135C11.2443 82.7235 11.1628 82.634 11.0819 82.544C11.0114 82.4654 10.939 82.3868 10.8714 82.3059C10.8533 82.2864 10.8362 82.2659 10.819 82.2468L10.7509 82.1692C10.6843 82.093 10.6181 82.0168 10.5524 81.9406C10.5252 81.9097 10.4981 81.8783 10.4719 81.8454C10.4062 81.7699 10.3413 81.6938 10.2771 81.6173L10.2433 81.5773C10.1795 81.5021 10.1157 81.4264 10.0529 81.3507C10.0443 81.3407 10.0357 81.3297 10.0271 81.3192L9.97572 81.2573L9.7681 81.0064L9.59953 80.7973L9.45144 80.6126L9.36716 80.5059L9.28907 80.4074L9.2843 80.4007C9.22669 80.3283 9.17002 80.2578 9.11431 80.1826C9.08098 80.1407 9.04812 80.0983 9.01574 80.0559C8.94669 79.9659 8.87812 79.8764 8.80956 79.7859L8.75718 79.7159C8.71432 79.6593 8.67194 79.6031 8.62956 79.5459C8.61575 79.5269 8.60099 79.5088 8.58718 79.4898L8.57194 79.4693C8.49544 79.3658 8.41925 79.2621 8.34338 79.1583L8.34052 79.1541C8.26338 79.0479 8.18719 78.9426 8.11148 78.8364L8.06386 78.766C8.00481 78.6836 7.94672 78.6007 7.88815 78.5174L7.84053 78.4484C7.78292 78.365 7.72482 78.2822 7.6672 78.1979C7.59387 78.0907 7.52149 77.9841 7.44864 77.8769L7.3415 77.716L7.23436 77.5541C7.22674 77.5427 7.21864 77.5312 7.2115 77.5198L7.03817 77.2546C7.03389 77.2479 7.03008 77.2417 7.02532 77.2355L6.99865 77.1936C6.93675 77.0984 6.87484 77.0003 6.81389 76.9041C6.74485 76.7955 6.67628 76.686 6.60818 76.577L6.58628 76.5417C6.54882 76.4811 6.51136 76.4203 6.4739 76.3594C6.44295 76.3089 6.412 76.2589 6.38152 76.2084C6.25676 76.0021 6.13359 75.7957 6.01201 75.5894L6.00772 75.5822L5.82392 75.2646C5.82392 75.2618 5.82106 75.2599 5.82011 75.2575C5.7563 75.1461 5.69345 75.0351 5.62964 74.9242C5.58678 74.848 5.54393 74.7708 5.50155 74.6942C5.45917 74.6175 5.42012 74.5456 5.37965 74.4708C5.33917 74.3961 5.29298 74.3118 5.2506 74.2328C5.20822 74.1537 5.16822 74.0785 5.12727 74.0009L5.08489 73.9209L5.08061 73.9132C5.02251 73.8018 4.96442 73.6904 4.9068 73.5799C4.9068 73.5742 4.90109 73.5685 4.89775 73.5623C4.87204 73.5113 4.84633 73.4609 4.82014 73.4104C4.79395 73.3599 4.76252 73.2971 4.73442 73.2404L4.70681 73.1861L4.56395 72.9004L4.39777 72.5585C4.34348 72.4442 4.2892 72.3304 4.23539 72.2157C4.22587 72.1961 4.21682 72.1761 4.20729 72.1566C4.19015 72.1185 4.17253 72.0814 4.15492 72.0433C4.12825 71.9861 4.10206 71.9285 4.07539 71.8714C4.02778 71.7638 3.9773 71.6571 3.92873 71.5495C3.92206 71.5333 3.91492 71.5176 3.90778 71.5019C3.86016 71.3943 3.81254 71.2876 3.76493 71.18C3.72493 71.089 3.6854 70.9986 3.64683 70.9071C3.63493 70.8809 3.62398 70.8543 3.61255 70.8281C3.56493 70.7147 3.51731 70.6019 3.4697 70.4881C3.4699 70.487 3.4699 70.4859 3.4697 70.4848C3.42335 70.3733 3.37748 70.2622 3.33208 70.1514C3.32113 70.1233 3.30922 70.0957 3.29827 70.0676C3.2578 69.9686 3.2178 69.8691 3.17875 69.77C3.13494 69.6586 3.09161 69.5472 3.0478 69.4367C3.02637 69.381 3.00495 69.3253 2.98399 69.2691C2.96304 69.2129 2.94161 69.1576 2.92019 69.1015C2.89876 69.0453 2.87257 68.9777 2.85066 68.9157C2.82876 68.8538 2.80305 68.7919 2.78209 68.73C2.73924 68.6132 2.69686 68.4962 2.65495 68.3791C2.65522 68.3774 2.65522 68.3756 2.65495 68.3739C2.61353 68.2572 2.5721 68.141 2.5321 68.0243C2.50258 67.9402 2.47369 67.8559 2.44544 67.7715C2.44067 67.7582 2.43639 67.7453 2.4321 67.732L2.4102 67.6691C2.39972 67.6367 2.38829 67.6044 2.37782 67.5739C2.37163 67.5563 2.36639 67.5386 2.3602 67.521C2.35401 67.5034 2.34449 67.4734 2.33687 67.4496C2.33353 67.4391 2.32925 67.4282 2.32544 67.4172C2.31449 67.3829 2.30306 67.3491 2.29163 67.3144C2.27639 67.2667 2.26068 67.2191 2.24639 67.1744C2.23687 67.1463 2.22735 67.1177 2.21878 67.0891C2.20401 67.0453 2.1902 67.001 2.1764 66.9572V66.9515C2.1683 66.9258 2.15973 66.901 2.15211 66.8753C2.15211 66.8753 2.15211 66.8725 2.15211 66.8715C2.12735 66.792 2.10449 66.7125 2.07783 66.6334C2.07354 66.6225 2.07021 66.6106 2.06687 66.5996C2.04973 66.5444 2.03307 66.4891 2.0164 66.4339C1.99973 66.3787 1.98021 66.3163 1.96212 66.2572C1.96018 66.249 1.95779 66.2409 1.95497 66.233C1.9345 66.1634 1.91402 66.0944 1.89355 66.0244C1.87307 65.9544 1.84926 65.8754 1.82783 65.8006C1.80641 65.7258 1.7845 65.6511 1.76403 65.5763C1.75831 65.5577 1.75355 65.5392 1.74784 65.5211C1.74212 65.503 1.74022 65.4925 1.73593 65.4787C1.72736 65.4458 1.71784 65.4135 1.70879 65.3806C1.7045 65.3658 1.70022 65.3511 1.69641 65.3363C1.67974 65.2773 1.66355 65.2192 1.64879 65.1601L1.59546 64.9611C1.57927 64.902 1.56355 64.843 1.54784 64.7835C1.54117 64.7578 1.53356 64.7316 1.52689 64.7054C1.50975 64.6392 1.4926 64.5721 1.47594 64.5059C1.47354 64.4997 1.47178 64.4933 1.4707 64.4868C1.46641 64.4697 1.46165 64.453 1.45737 64.4359C14.6299 63.5268 29.6438 71.5262 44.2334 76.4294C51.6375 78.9179 58.933 80.6088 65.8228 79.9331C68.2761 79.6926 70.6798 79.1521 73.0155 78.2407C92.8945 70.4881 97.7429 57.6518 97.7801 57.5518C97.7801 57.5737 97.7801 57.5946 97.7801 57.6165C97.7801 57.6384 97.7801 57.6727 97.7801 57.7008C97.7801 57.7518 97.7829 57.8027 97.7834 57.8532V57.857C97.7834 57.8879 97.7834 57.9179 97.7834 57.9484C97.7834 57.9957 97.7834 58.0424 97.7834 58.0884V58.136C97.7786 58.2027 97.7796 58.286 97.7787 58.3684Z" fill="#BEB2DA"/>
<path d="M50.9392 0.0787226C66.2026 -0.137938 72.051 13.5203 72.051 13.5203" stroke="#E4DBFA" stroke-width="0.151917" stroke-linecap="round"/>
<path d="M48.5059 0.400391C48.5059 0.400391 43.197 0.554672 41.1975 1.01942" stroke="#E4DBFA" stroke-width="0.151917" stroke-linecap="round"/>
<path fill-rule="evenodd" clip-rule="evenodd" d="M15.9541 73.3734C15.9541 73.3734 16.2875 77.9209 17.4617 78.4576C18.636 78.9942 20.2207 77.8699 20.0678 76.9757C19.915 76.0814 17.9727 71.3806 16.8741 72.1725C15.7756 72.9644 15.9541 73.3734 15.9541 73.3734Z" fill="#FED194"/>
<path fill-rule="evenodd" clip-rule="evenodd" d="M16.1387 74.9627C16.1387 74.9627 16.7373 75.7065 17.0606 75.996C17.384 76.2855 17.6568 76.5412 17.7592 76.456C17.8616 76.3708 18.2954 74.8846 17.7763 74.497C17.2573 74.1094 16.0216 74.0713 16.0216 74.0713L16.1387 74.9627Z" fill="#F59D4E"/>
<path fill-rule="evenodd" clip-rule="evenodd" d="M70.5057 95.2431C69.5619 95.6784 68.603 96.0879 67.6291 96.4717C63.5649 98.0712 59.2521 99.2002 54.7894 99.7306C54.4813 98.6626 51.4085 88.0714 50.7514 89.1633C50.3886 89.7685 49.8905 95.1289 49.5005 100.072C44.4817 100.123 39.4866 99.3764 34.7018 97.8607C34.3209 91.858 33.9571 84.6068 33.7376 80.0459C33.608 77.3469 33.5295 75.5898 33.5295 75.5898L34.0904 75.6337L44.2216 76.417L65.2353 78.0417L65.811 79.9207L69.4638 91.8428V91.8461L69.6338 92.4004C69.6352 92.4037 69.6361 92.4072 69.6366 92.4108L69.7742 92.8589L70.5057 95.2431Z" fill="#663E36"/>
<path fill-rule="evenodd" clip-rule="evenodd" d="M70.5052 95.2431C69.5614 95.6784 68.6025 96.0879 67.6286 96.4717C62.3392 82.6197 54.127 84.7177 47.8386 84.7177C40.874 84.7177 33.7376 80.0459 33.7376 80.0459C33.608 77.3469 33.5295 75.5898 33.5295 75.5898L34.0904 75.6337L44.2216 76.4174L65.2353 78.0422L65.811 79.9212L69.4638 91.8432V91.8466L69.6338 92.4008C69.6352 92.4042 69.6361 92.4077 69.6366 92.4113L69.7742 92.8594L70.5052 95.2431Z" fill="#59302A"/>
<path fill-rule="evenodd" clip-rule="evenodd" d="M65.2344 78.0414L69.4638 91.8458C67.3367 85.3526 61.385 82.407 52.4905 82.0365C43.3478 81.6532 35.879 78.7594 35.879 78.7594C35.879 78.7594 34.9504 77.6999 34.0895 75.6348L65.2344 78.0414Z" fill="#42211D"/>
<path fill-rule="evenodd" clip-rule="evenodd" d="M35.8787 78.7569C35.8787 78.7569 52.6078 83.0468 65.7437 79.7045L64.6561 76.1104L35.8787 78.7569Z" fill="#27140E"/>
<path fill-rule="evenodd" clip-rule="evenodd" d="M32.0223 75.673V78.3553C32.0223 78.3553 48.4504 80.4247 60.4082 78.8153C60.4082 78.8153 64.9476 78.411 65.7438 77.8081L65.16 73.833L32.0223 75.673Z" fill="white"/>
<path fill-rule="evenodd" clip-rule="evenodd" d="M53.4583 23.5379C53.4583 23.5379 51.7545 25.0355 52.3102 26.1093C52.8659 27.1831 48.7651 25.1679 49.8694 23.6589C50.9736 22.1499 54.9273 18.4952 55.084 20.4166C55.2406 22.3379 53.4583 23.5379 53.4583 23.5379Z" fill="#72120C"/>
<path fill-rule="evenodd" clip-rule="evenodd" d="M41.8795 13.574C41.8795 13.574 40.7843 16.2235 40.7791 18.7229C40.7739 21.2224 40.9096 23.889 42.0776 25.3418C43.2457 26.7946 45.2095 27.0318 45.2095 27.0318C45.2095 27.0318 45.2147 30.1326 44.719 30.8979C44.2233 31.6631 45.7542 35.7349 46.8661 35.4739C47.978 35.213 49.3641 34.8111 50.1722 32.6707C50.9803 30.5303 51.4431 31.6345 51.4431 31.6345C51.4431 31.6345 50.5836 26.5908 51.0003 25.7499C51.4169 24.909 52.9074 22.7909 53.2007 21.57C53.2007 21.57 54.3435 21.6362 55.0873 20.9738C55.8311 20.3115 56.0873 18.2568 54.9483 18.1253C54.9483 18.1253 55.8558 14.7645 55.3063 13.6121C54.7568 12.4598 49.3184 10.1003 48.3675 10.0275C47.4165 9.9546 41.8795 13.574 41.8795 13.574Z" fill="#FED194"/>
<path fill-rule="evenodd" clip-rule="evenodd" d="M44.6703 34.539C44.6703 34.539 43.1885 35.9676 44.4146 38.2013C45.6408 40.4351 44.447 43.9921 48.144 41.5736C51.8411 39.1551 53.561 38.4056 52.1473 36.7361C51.0044 35.3862 49.0593 33.7324 47.8555 33.7895L47.3793 34.6581L46.9303 33.8195C46.2936 33.7314 44.6703 34.539 44.6703 34.539Z" fill="#BBC3C4"/>
<path fill-rule="evenodd" clip-rule="evenodd" d="M65.5834 75.9412C65.5834 75.9412 50.7519 78.9687 34.2728 76.5159C34.2728 76.5159 33.3281 76.3883 30.8748 76.3369L33.3281 35.3013C33.3281 35.3013 35.2042 34.4208 37.3447 33.5694C39.0241 32.9028 40.8684 32.2518 42.0912 32.0609C44.8759 31.6261 44.084 35.5098 44.084 35.5098C44.084 35.5098 45.3487 39.3421 47.3801 39.0359C49.4115 38.7298 50.7519 35.3013 50.7519 35.3013C50.7519 35.3013 53.358 31.869 54.5847 31.9075C54.5847 31.9075 55.8875 32.098 57.5741 32.4056C59.2608 32.7132 61.9807 33.5961 62.4407 34.1675L63.6097 48.4052L63.7049 49.5738C63.7049 49.5738 66.4263 69.5409 65.5834 75.9412Z" fill="#6D378F"/>
<path fill-rule="evenodd" clip-rule="evenodd" d="M65.5835 75.9411C65.5835 75.9411 53.9995 78.3058 39.9317 77.1625C38.0818 77.012 36.1885 76.8011 34.2728 76.5158C34.2728 76.5158 33.3281 76.3882 30.8748 76.3368L32.5267 48.7004L33.3281 35.3012C33.3281 35.3012 35.2042 34.4207 37.3447 33.5693C37.3447 33.5693 41.1022 53.3688 49.2234 55.8597C57.3446 58.3506 62.5564 48.6161 62.5564 48.6161C62.5564 48.6161 62.9573 48.5123 63.6106 48.4061L63.7059 49.5746C63.7059 49.5746 63.8406 50.5617 64.0392 52.1679C64.5125 55.9683 65.3525 63.2338 65.642 69.076C65.782 71.8669 65.7953 74.3326 65.5835 75.9411Z" fill="#582279"/>
<path fill-rule="evenodd" clip-rule="evenodd" d="M65.6414 69.0738C60.1139 71.3295 49.6708 75.2679 39.9278 77.1603C38.0778 77.0098 36.1845 76.7988 34.2689 76.5136C34.2689 76.5136 33.3241 76.386 30.8708 76.3346L32.5227 48.6981C33.0094 48.1867 33.4489 47.9101 33.8084 47.9244C37.5635 48.0777 42.2396 52.858 42.2396 52.858C42.2396 52.858 45.0752 68.0276 62.6276 53.3004C63.1187 52.8877 63.5879 52.5095 64.0352 52.1657C64.5119 55.9675 65.3519 63.233 65.6414 69.0738Z" fill="#42115F"/>
<path fill-rule="evenodd" clip-rule="evenodd" d="M13.8433 32.1691L19.035 52.1405L36.1017 48.0968L40.0978 44.8436L36.1079 28.1611L31.3466 27.4893L13.8433 32.1691Z" fill="#FDAC2A"/>
<path opacity="0.5" fill-rule="evenodd" clip-rule="evenodd" d="M36.0016 27.7561L40.0962 44.8433L36.1216 48.0832L36.0997 48.096L34.415 41.0672L31.1708 27.5356L31.1703 27.5342L31.1746 27.5347L31.905 27.568L36.0016 27.7561Z" fill="#CC4400"/>
<path opacity="0.5" fill-rule="evenodd" clip-rule="evenodd" d="M22.5307 42.1066C19.9046 41.3876 17.2213 40.0419 15.4885 38.4639L19.0355 52.1416L36.1022 48.0979L34.417 41.0686C30.8314 42.4566 26.0492 43.0704 22.5307 42.1066Z" fill="#CC4400"/>
<path fill-rule="evenodd" clip-rule="evenodd" d="M20.4196 30.336L21.5939 34.922C22.3039 34.6839 23.0153 34.4311 23.7143 34.1206L22.5934 29.7031L20.4196 30.336Z" fill="black"/>
<path fill-rule="evenodd" clip-rule="evenodd" d="M31.6473 43.8467C30.933 44.1676 30.2292 44.4938 29.5221 44.7957L30.7925 49.5575L32.9934 48.8951L31.6473 43.8467Z" fill="black"/>
<path fill-rule="evenodd" clip-rule="evenodd" d="M31.32 32.3327L26.5539 33.4117L25.7553 30.5575L30.5276 29.4385L31.32 32.3327Z" fill="#EAECED"/>
<path fill-rule="evenodd" clip-rule="evenodd" d="M27.0425 32.9571L26.7444 33.0266L26.1435 30.9171L26.4416 30.8457L27.0425 32.9571Z" fill="black"/>
<path fill-rule="evenodd" clip-rule="evenodd" d="M27.1007 32.942L26.9826 32.97L26.3816 30.8591L26.4997 30.8311L27.1007 32.942Z" fill="black"/>
<path fill-rule="evenodd" clip-rule="evenodd" d="M27.3498 32.8838L27.2312 32.9114L26.6308 30.7996L26.7493 30.7715L27.3498 32.8838Z" fill="black"/>
<path fill-rule="evenodd" clip-rule="evenodd" d="M28.0992 32.7089L27.9806 32.737L27.3811 30.6213L27.4997 30.5928L28.0992 32.7089Z" fill="black"/>
<path fill-rule="evenodd" clip-rule="evenodd" d="M28.6447 32.5799L28.437 32.6285L27.838 30.5105L28.0461 30.4609L28.6447 32.5799Z" fill="black"/>
<path fill-rule="evenodd" clip-rule="evenodd" d="M28.8516 32.5321L28.7325 32.5601L28.134 30.4407L28.253 30.4121L28.8516 32.5321Z" fill="black"/>
<path fill-rule="evenodd" clip-rule="evenodd" d="M29.1022 32.4739L28.9832 32.5015L28.3851 30.3811L28.5041 30.3525L29.1022 32.4739Z" fill="black"/>
<path fill-rule="evenodd" clip-rule="evenodd" d="M29.6501 32.3445L29.4416 32.3935L28.844 30.2707L29.053 30.2207L29.6501 32.3445Z" fill="black"/>
<path fill-rule="evenodd" clip-rule="evenodd" d="M29.8576 32.2966L29.7385 32.3247L29.1409 30.2004L29.2605 30.1719L29.8576 32.2966Z" fill="black"/>
<path fill-rule="evenodd" clip-rule="evenodd" d="M30.3628 32.1783L30.2428 32.2064L29.6461 30.0798L29.7661 30.0508L30.3628 32.1783Z" fill="black"/>
<path fill-rule="evenodd" clip-rule="evenodd" d="M30.8695 32.0596L30.7495 32.0882L30.1534 29.9587L30.2738 29.9297L30.8695 32.0596Z" fill="black"/>
<g opacity="0.32" style="mix-blend-mode:multiply">
<path fill-rule="evenodd" clip-rule="evenodd" d="M27.0843 41.6382C27.8425 41.6382 28.4571 41.0236 28.4571 40.2654C28.4571 39.5072 27.8425 38.8926 27.0843 38.8926C26.3261 38.8926 25.7115 39.5072 25.7115 40.2654C25.7115 41.0236 26.3261 41.6382 27.0843 41.6382Z" fill="#EDAD8A"/>
</g>
<g opacity="0.32" style="mix-blend-mode:multiply">
<path fill-rule="evenodd" clip-rule="evenodd" d="M30.1456 40.4234C30.553 40.4234 30.8832 40.0932 30.8832 39.6858C30.8832 39.2785 30.553 38.9482 30.1456 38.9482C29.7382 38.9482 29.408 39.2785 29.408 39.6858C29.408 40.0932 29.7382 40.4234 30.1456 40.4234Z" fill="#EDAD8A"/>
</g>
<path fill-rule="evenodd" clip-rule="evenodd" d="M52.9028 46.82C52.9028 46.82 53.1537 47.0972 53.7704 47.1296C54.387 47.1619 57.2389 47.3277 57.5103 46.8972C57.8436 46.3734 57.5708 45.5491 57.0341 45.6363C56.4975 45.7234 52.9028 46.82 52.9028 46.82Z" fill="#42115F"/>
<path fill-rule="evenodd" clip-rule="evenodd" d="M52.8525 45.71L57.1056 45.5391L57.1505 46.6573L52.8974 46.8281L52.8525 45.71Z" fill="white"/>
<path fill-rule="evenodd" clip-rule="evenodd" d="M10.7571 50.523L17.8503 77.8075L41.1668 72.2834L46.6272 67.8383L41.1759 45.0465L34.6703 44.1289L10.7571 50.523Z" fill="#FDAC2A"/>
<path opacity="0.5" fill-rule="evenodd" clip-rule="evenodd" d="M41.1749 45.0471L46.6262 67.8389L41.1954 72.2654L41.1659 72.2835L38.8636 62.68L34.4318 44.1933L34.4313 44.1914L34.437 44.1919L35.4346 44.2376L41.1749 45.0471Z" fill="#D95F16"/>
<path fill-rule="evenodd" clip-rule="evenodd" d="M22.625 64.0981C19.037 63.1158 15.3714 61.2772 13.0062 59.1211L17.8523 77.8077L41.1688 72.2841L38.8665 62.6805C33.9652 64.5738 27.4325 65.4147 22.625 64.0981Z" fill="#FF920F"/>
<path fill-rule="evenodd" clip-rule="evenodd" d="M19.742 48.0181L21.3462 54.2846C22.3157 53.9579 23.2881 53.6132 24.2433 53.1894L22.7115 47.1543L19.742 48.0181Z" fill="black"/>
<path fill-rule="evenodd" clip-rule="evenodd" d="M35.0809 66.4775C34.1071 66.9156 33.1429 67.3613 32.1762 67.7737L33.9124 74.2811L36.9185 73.3764L35.0809 66.4775Z" fill="black"/>
<path fill-rule="evenodd" clip-rule="evenodd" d="M34.6345 50.7437L28.1233 52.218L27.0323 48.3181L33.5522 46.79L34.6345 50.7437Z" fill="#EAECED"/>
<path fill-rule="evenodd" clip-rule="evenodd" d="M28.7896 51.5981L28.3824 51.6933L27.5615 48.811L27.9686 48.7139L28.7896 51.5981Z" fill="black"/>
<path fill-rule="evenodd" clip-rule="evenodd" d="M28.8682 51.5785L28.7068 51.6162L27.8864 48.7324L28.0478 48.6943L28.8682 51.5785Z" fill="black"/>
<path fill-rule="evenodd" clip-rule="evenodd" d="M29.2095 51.4989L29.0476 51.537L28.2276 48.6519L28.3891 48.6133L29.2095 51.4989Z" fill="black"/>
<path fill-rule="evenodd" clip-rule="evenodd" d="M30.234 51.2585L30.0721 51.2962L29.253 48.4058L29.4149 48.3672L30.234 51.2585Z" fill="black"/>
<path fill-rule="evenodd" clip-rule="evenodd" d="M30.9812 51.0841L30.6969 51.1508L29.8788 48.2571L30.1631 48.1895L30.9812 51.0841Z" fill="black"/>
<path fill-rule="evenodd" clip-rule="evenodd" d="M31.2619 51.0196L31.0995 51.0573L30.2819 48.1621L30.4443 48.123L31.2619 51.0196Z" fill="black"/>
<path fill-rule="evenodd" clip-rule="evenodd" d="M31.6057 50.9381L31.4428 50.9762L30.6257 48.0791L30.7886 48.04L31.6057 50.9381Z" fill="black"/>
<path fill-rule="evenodd" clip-rule="evenodd" d="M32.3544 50.7627L32.0691 50.8298L31.2525 47.9294L31.5382 47.8613L32.3544 50.7627Z" fill="black"/>
<path fill-rule="evenodd" clip-rule="evenodd" d="M32.6371 50.6958L32.4738 50.7343L31.6581 47.8315L31.8209 47.793L32.6371 50.6958Z" fill="black"/>
<path fill-rule="evenodd" clip-rule="evenodd" d="M33.3277 50.5355L33.1644 50.5741L32.3491 47.668L32.5129 47.6289L33.3277 50.5355Z" fill="black"/>
<path fill-rule="evenodd" clip-rule="evenodd" d="M34.0183 50.3728L33.8545 50.4114L33.0402 47.5019L33.204 47.4629L34.0183 50.3728Z" fill="black"/>
<g opacity="0.32" style="mix-blend-mode:multiply">
<path fill-rule="evenodd" clip-rule="evenodd" d="M28.8462 63.4603C29.8821 63.4603 30.7219 62.6206 30.7219 61.5846C30.7219 60.5487 29.8821 59.709 28.8462 59.709C27.8103 59.709 26.9706 60.5487 26.9706 61.5846C26.9706 62.6206 27.8103 63.4603 28.8462 63.4603Z" fill="#EDAD8A"/>
</g>
<g opacity="0.32" style="mix-blend-mode:multiply">
<path fill-rule="evenodd" clip-rule="evenodd" d="M33.0299 61.8003C33.5864 61.8003 34.0375 61.3492 34.0375 60.7927C34.0375 60.2363 33.5864 59.7852 33.0299 59.7852C32.4734 59.7852 32.0223 60.2363 32.0223 60.7927C32.0223 61.3492 32.4734 61.8003 33.0299 61.8003Z" fill="#EDAD8A"/>
</g>
<path fill-rule="evenodd" clip-rule="evenodd" d="M51.6721 19.6237C51.6721 19.6237 52.2435 16.9271 51.6892 14.7738C51.135 12.6206 51.8178 10.1602 51.8178 10.1602C51.8178 10.1602 56.2058 10.7854 55.8829 14.0801C55.5601 17.3747 54.9482 18.1238 54.9482 18.1238C54.9482 18.1238 53.9101 18.0204 52.6673 19.4275C51.4245 20.8346 51.6721 19.6237 51.6721 19.6237Z" fill="#72120C"/>
<path fill-rule="evenodd" clip-rule="evenodd" d="M57.6089 18.5068C55.9799 22.8009 53.4586 23.5381 53.4586 23.5381C53.4586 23.5381 54.2909 22.5995 54.0128 19.9396C53.9357 19.2067 53.5538 18.0177 53.041 16.6792C51.6934 13.1645 49.4401 8.62368 49.4401 8.62368L48.3673 7.71894C48.3673 7.71894 51.1291 6.60754 53.7766 7.86894C55.7014 8.78749 59.2375 14.2126 57.6089 18.5068Z" fill="#6D378F"/>
<path fill-rule="evenodd" clip-rule="evenodd" d="M55.6161 13.3932C54.5809 15.8165 53.041 16.6788 53.041 16.6788C51.6934 13.1642 49.4401 8.62332 49.4401 8.62332L48.3673 7.71858C48.3673 7.71858 51.2539 6.37624 53.7766 7.86858L53.8243 7.89667C55.7138 9.02155 56.4797 11.3708 55.6161 13.3932Z" fill="white"/>
<path fill-rule="evenodd" clip-rule="evenodd" d="M53.5387 18.0592C52.6625 15.9369 51.8525 14.2498 50.8087 13.1003C49.8002 11.9903 48.5745 11.3794 46.8593 11.3594C44.5936 11.3323 42.9613 12.8918 42.0942 13.9889C41.8281 14.3201 41.5892 14.6724 41.3799 15.0422C41.3799 15.0422 40.4752 13.2141 39.6081 11.3332C39.6857 11.2088 39.7443 11.0735 39.7819 10.9318C39.7978 10.8696 39.802 10.805 39.7942 10.7413C39.6766 9.92469 40.6799 8.72567 39.7614 8.87329C39.519 8.91281 39.1933 9.20185 38.8433 9.60755C38.8415 9.61015 38.8394 9.61254 38.8371 9.6147C38.7138 9.32899 38.599 9.05709 38.4971 8.80519L38.4909 8.79138C38.4913 8.79047 38.4913 8.78944 38.4909 8.78853C38.4424 8.6698 38.3973 8.55615 38.3557 8.44758C38.2029 8.05093 38.0957 7.73094 38.0557 7.52808C37.9302 6.81989 37.8751 6.101 37.8914 5.38195C37.9152 4.05579 38.1733 2.5725 38.9528 1.73014C40.2323 0.349223 44.7217 0.501124 47.8712 4.85958C50.9963 9.18375 53.4996 17.923 53.5387 18.0592Z" fill="#6D378F"/>
<path fill-rule="evenodd" clip-rule="evenodd" d="M50.8083 13.1004C49.7997 11.9904 48.574 11.3795 46.8588 11.3595C44.5932 11.3324 42.9609 12.8918 42.0937 13.989C41.9902 13.922 41.8983 13.8385 41.8218 13.7418C41.378 13.0985 40.4695 11.86 39.7828 10.9324C39.2843 10.2581 38.9038 9.74764 38.9038 9.74764L38.8443 9.60955L38.4981 8.80862L38.4919 8.79481C38.4923 8.79389 38.4923 8.79287 38.4919 8.79195C38.4629 8.66719 37.82 5.78441 40.52 4.58492C43.2789 3.35828 47.7612 6.6801 50.623 12.6799C50.6926 12.8253 50.7543 12.9655 50.8083 13.1004Z" fill="#582279"/>
<path fill-rule="evenodd" clip-rule="evenodd" d="M51.5919 14.1238C51.5333 14.0343 48.7877 10.9306 46.5754 12.6705C44.4149 14.3691 40.5655 15.2347 39.0746 12.0515C38.9665 11.8193 38.8751 11.5796 38.8013 11.3344C38.777 11.2529 38.756 11.1734 38.7398 11.0963C38.5346 10.1196 38.9632 9.36776 39.7622 8.87729C41.0603 8.08017 44.0569 8.59159 46.7592 9.89679C48.8605 10.9077 50.7843 12.3991 51.5919 14.1238Z" fill="#72120C"/>
<path fill-rule="evenodd" clip-rule="evenodd" d="M45.2095 27.0303C45.2095 27.0303 46.4095 27.1341 47.8414 26.6108C47.8414 26.6108 48.667 26.1256 47.9285 27.4679C47.1899 28.8103 45.1157 29.1027 45.1157 29.1027L45.2095 27.0303Z" fill="#F59D4E"/>
<path fill-rule="evenodd" clip-rule="evenodd" d="M42.5862 18.6871C42.6489 18.351 42.5534 18.0513 42.3729 18.0176C42.1925 17.984 41.9954 18.2292 41.9328 18.5653C41.8701 18.9014 41.9656 19.2011 42.146 19.2347C42.3265 19.2684 42.5236 19.0232 42.5862 18.6871Z" fill="#72120C"/>
<path fill-rule="evenodd" clip-rule="evenodd" d="M46.9399 19.2828C47.0026 18.9467 46.9071 18.647 46.7266 18.6133C46.5462 18.5797 46.3491 18.8249 46.2864 19.161C46.2238 19.4971 46.3193 19.7968 46.4997 19.8304C46.6802 19.8641 46.8773 19.6189 46.9399 19.2828Z" fill="#72120C"/>
<path fill-rule="evenodd" clip-rule="evenodd" d="M46.4029 16.6075C46.3863 16.5342 46.491 16.4814 46.5763 16.4647C46.8472 16.4109 47.5258 16.3337 47.7191 16.8456C47.8791 17.2666 47.651 17.1671 47.6196 17.1009C47.572 16.9985 47.4429 16.7814 47.2972 16.6985C46.9625 16.5042 46.442 16.7756 46.4029 16.6075Z" fill="#72120C"/>
<path fill-rule="evenodd" clip-rule="evenodd" d="M41.4276 16.7159C41.3652 16.6397 41.4343 16.5197 41.5066 16.4531C41.7376 16.2402 42.3523 15.7731 42.8652 16.2626C43.2875 16.6645 43.0014 16.675 42.929 16.615C42.8175 16.5226 42.5542 16.3407 42.3599 16.325C41.9109 16.2874 41.5719 16.8902 41.4276 16.7159Z" fill="#72120C"/>
<path fill-rule="evenodd" clip-rule="evenodd" d="M43.9462 18.7576C43.9125 19.1214 43.8544 19.4825 43.7724 19.8385C43.7366 20.0171 43.6876 20.1923 43.6433 20.369C43.599 20.5456 43.5424 20.719 43.4852 20.8928C43.4538 20.9804 43.4228 21.0666 43.3838 21.158C43.3729 21.184 43.3607 21.2094 43.3471 21.2342L43.3362 21.2542L43.3309 21.2642C43.3309 21.2671 43.3262 21.2732 43.3281 21.2704C43.33 21.2675 43.3314 21.2618 43.3343 21.2537C43.3354 21.2468 43.3354 21.2397 43.3343 21.2328C43.3343 21.229 43.3343 21.2285 43.3343 21.2261C43.3343 21.2237 43.3343 21.2218 43.3343 21.2223C43.3343 21.2223 43.3343 21.2228 43.3343 21.2223V21.2266L43.339 21.2328C43.3581 21.2569 43.3804 21.2784 43.4052 21.2966C43.4366 21.3198 43.4694 21.3411 43.5033 21.3604C43.5738 21.4004 43.6505 21.4385 43.729 21.4737C44.0577 21.6108 44.399 21.7154 44.748 21.7861V21.8051C44.384 21.7973 44.0234 21.733 43.679 21.6147C43.5928 21.5849 43.5086 21.5495 43.4271 21.5085C43.343 21.4692 43.2668 21.4148 43.2024 21.348C43.1858 21.3298 43.1726 21.3089 43.1633 21.2861C43.1529 21.262 43.1504 21.2351 43.1562 21.2094C43.1592 21.1967 43.1642 21.1845 43.1709 21.1732L43.1857 21.1437C43.196 21.1241 43.2051 21.104 43.2128 21.0832C43.2471 21.0004 43.2762 20.9147 43.3052 20.8294C43.4214 20.4871 43.5257 20.1399 43.6285 19.7928C43.7314 19.4457 43.8304 19.0976 43.9281 18.749L43.9462 18.7576Z" fill="#F59D4E"/>
<path fill-rule="evenodd" clip-rule="evenodd" d="M43.2434 23.5897C44.0439 23.7059 45.4529 23.7564 46.6991 23.0126C46.7166 23.0018 46.7396 23.0066 46.7514 23.0235C46.7633 23.0403 46.7599 23.0635 46.7438 23.0764C46.0438 23.6311 44.6796 24.4297 43.1868 23.7873C43.1395 23.7663 43.115 23.7136 43.1293 23.6639C43.1435 23.6142 43.1922 23.5825 43.2434 23.5897Z" fill="#F59D4E"/>
<path fill-rule="evenodd" clip-rule="evenodd" d="M47.5337 20.6545C47.6163 20.6545 47.6833 20.5876 47.6833 20.505C47.6833 20.4224 47.6163 20.3555 47.5337 20.3555C47.4512 20.3555 47.3842 20.4224 47.3842 20.505C47.3842 20.5876 47.4512 20.6545 47.5337 20.6545Z" fill="#F59D4E"/>
<path fill-rule="evenodd" clip-rule="evenodd" d="M42.1572 20.1848C42.2397 20.1848 42.3067 20.1178 42.3067 20.0353C42.3067 19.9527 42.2397 19.8857 42.1572 19.8857C42.0746 19.8857 42.0076 19.9527 42.0076 20.0353C42.0076 20.1178 42.0746 20.1848 42.1572 20.1848Z" fill="#F59D4E"/>
<path fill-rule="evenodd" clip-rule="evenodd" d="M48.0943 20.9028C48.1527 20.9028 48.2 20.8555 48.2 20.7971C48.2 20.7387 48.1527 20.6914 48.0943 20.6914C48.0359 20.6914 47.9886 20.7387 47.9886 20.7971C47.9886 20.8555 48.0359 20.9028 48.0943 20.9028Z" fill="#F59D4E"/>
<path fill-rule="evenodd" clip-rule="evenodd" d="M41.3396 19.6079C41.398 19.6079 41.4453 19.5606 41.4453 19.5022C41.4453 19.4438 41.398 19.3965 41.3396 19.3965C41.2812 19.3965 41.2339 19.4438 41.2339 19.5022C41.2339 19.5606 41.2812 19.6079 41.3396 19.6079Z" fill="#F59D4E"/>
<path fill-rule="evenodd" clip-rule="evenodd" d="M41.3904 20.9478C41.4488 20.9478 41.4961 20.9004 41.4961 20.842C41.4961 20.7837 41.4488 20.7363 41.3904 20.7363C41.332 20.7363 41.2847 20.7837 41.2847 20.842C41.2847 20.9004 41.332 20.9478 41.3904 20.9478Z" fill="#F59D4E"/>
<path fill-rule="evenodd" clip-rule="evenodd" d="M48.1885 20.3989C48.2469 20.3989 48.2942 20.3516 48.2942 20.2932C48.2942 20.2348 48.2469 20.1875 48.1885 20.1875C48.1301 20.1875 48.0828 20.2348 48.0828 20.2932C48.0828 20.3516 48.1301 20.3989 48.1885 20.3989Z" fill="#F59D4E"/>
<path fill-rule="evenodd" clip-rule="evenodd" d="M46.889 21.1555C46.9716 21.1555 47.0385 21.0885 47.0385 21.006C47.0385 20.9234 46.9716 20.8564 46.889 20.8564C46.8064 20.8564 46.7395 20.9234 46.7395 21.006C46.7395 21.0885 46.8064 21.1555 46.889 21.1555Z" fill="#F59D4E"/>
<path fill-rule="evenodd" clip-rule="evenodd" d="M47.6579 21.5762C47.7633 21.5762 47.8488 21.4907 47.8488 21.3853C47.8488 21.2798 47.7633 21.1943 47.6579 21.1943C47.5524 21.1943 47.4669 21.2798 47.4669 21.3853C47.4669 21.4907 47.5524 21.5762 47.6579 21.5762Z" fill="#F59D4E"/>
<path fill-rule="evenodd" clip-rule="evenodd" d="M41.519 20.3477C41.6244 20.3477 41.7099 20.2622 41.7099 20.1568C41.7099 20.0513 41.6244 19.9658 41.519 19.9658C41.4135 19.9658 41.328 20.0513 41.328 20.1568C41.328 20.2622 41.4135 20.3477 41.519 20.3477Z" fill="#F59D4E"/>
<path fill-rule="evenodd" clip-rule="evenodd" d="M48.4401 21.3985C48.5456 21.3985 48.6311 21.313 48.6311 21.2075C48.6311 21.1021 48.5456 21.0166 48.4401 21.0166C48.3347 21.0166 48.2492 21.1021 48.2492 21.2075C48.2492 21.313 48.3347 21.3985 48.4401 21.3985Z" fill="#F59D4E"/>
<path opacity="0.67" fill-rule="evenodd" clip-rule="evenodd" d="M51.5927 14.1245C51.5341 14.035 48.7885 10.9312 46.5762 12.6712C44.4157 14.3697 40.5663 15.2354 39.0754 12.0522C38.9673 11.82 38.8759 11.5803 38.8021 11.335C38.7778 11.2536 38.7568 11.1741 38.7406 11.097C39.8501 12.6379 42.4253 12.7774 43.7377 12.5188C46.05 12.0641 46.7447 9.94365 46.76 9.89746C48.8613 10.9084 50.7851 12.3998 51.5927 14.1245Z" fill="#540200"/>
<path fill-rule="evenodd" clip-rule="evenodd" d="M44.3295 30.1606C44.3295 30.1606 46.51 32.7157 47.0038 33.959L47.3785 34.6571L47.8547 33.7886C47.8547 33.7886 51.5336 29.8363 52.266 29.4282C52.266 29.4282 52.4365 29.2749 52.6917 29.7011C52.9469 30.1272 55.5531 32.0296 55.5531 32.0296C55.5531 32.0296 53.4412 32.3067 52.0617 34.6571C50.6822 37.0075 50.767 37.0247 50.767 37.0247C50.767 37.0247 50.0527 34.9128 47.8547 33.7867L47.3785 34.6552L46.9295 33.8167C46.9295 33.8167 45.1133 34.4833 43.7677 37.2785C43.7677 37.2785 43.5634 37.3809 43.3586 36.4609C43.1539 35.5409 41.4682 32.0662 40.8377 31.9134C40.2073 31.7605 42.6077 30.9539 43.5462 30.4315C44.2957 30.0158 44.3295 30.1606 44.3295 30.1606Z" fill="white"/>
<path fill-rule="evenodd" clip-rule="evenodd" d="M48.1628 71.6467C47.3404 72.441 44.8333 73.2771 43.1153 73.7366C42.3424 73.9428 41.7296 74.0728 41.5025 74.0885C40.7696 74.14 37.393 74.6257 36.6097 74.6766C35.8264 74.7276 34.8955 74.4295 35.0298 73.8504C35.1641 73.2714 36.3926 73.4247 37.4997 73.1362C38.6068 72.8476 40.1225 71.91 40.6168 71.3996C41.111 70.8891 42.2691 69.2191 42.2005 68.8282C42.132 68.4373 42.4953 68.232 41.1663 67.7039C39.8373 67.1759 39.4582 66.1035 39.663 65.3192C39.8677 64.535 40.0373 65.2688 41.2639 65.7797C42.4905 66.2906 44.3462 66.3583 44.8238 67.1763C45.3014 67.9944 46.34 68.3668 46.34 68.3668C46.34 68.3668 46.479 68.4654 46.6861 68.6311C47.4423 69.2372 49.0984 70.742 48.1628 71.6467Z" fill="#FED194"/>
<path fill-rule="evenodd" clip-rule="evenodd" d="M48.1627 71.645C47.3404 72.4393 44.8333 73.2754 43.1152 73.7349C43.1152 73.7349 44.5685 73.1159 45.6671 72.0683C46.7656 71.0207 46.3814 68.6703 46.3814 68.6703C46.4819 68.6487 46.5839 68.6345 46.6866 68.6279C47.4423 69.2355 49.0984 70.7403 48.1627 71.645Z" fill="#F59D4E"/>
<path fill-rule="evenodd" clip-rule="evenodd" d="M72.5691 61.621C71.7515 64.0748 56.2157 70.3603 54.7358 71.0227C53.2558 71.6851 52.4873 71.0227 52.4873 71.0227L47.3269 72.4512C47.7864 71.1227 46.0365 68.0056 46.0365 68.0056C47.0364 67.5294 50.4054 66.3195 50.4054 66.3195C50.4054 65.4381 51.0954 64.2881 53.3948 63.1391C54.6605 62.5062 57.2733 60.3634 59.3666 58.5649C61.0756 57.0964 62.4389 55.8569 62.4389 55.8569C62.4389 55.8569 62.2089 53.9793 60.9061 49.4952C59.6033 45.011 61.2508 37.9983 61.2508 35.9293C61.2508 33.8603 62.4413 34.1675 62.4413 34.1675C62.4413 34.1675 64.0893 33.7203 67.104 39.6987C70.1187 45.6772 73.3867 59.1701 72.5691 61.621Z" fill="white"/>
<path opacity="0.54" fill-rule="evenodd" clip-rule="evenodd" d="M59.368 58.5669C61.077 57.0983 62.4403 55.8589 62.4403 55.8589C62.4403 55.8589 62.2103 53.9813 60.9075 49.4971C59.6047 45.0129 61.2523 38.0003 61.2523 35.9313C61.2523 33.8623 62.4427 34.1694 62.4427 34.1694C62.4427 34.1694 61.538 35.2551 61.7404 38.0655C61.9427 40.8759 62.7822 52.5832 67.0788 54.5194C71.3753 56.4555 59.368 58.5669 59.368 58.5669Z" fill="#D2D7DB"/>
<path fill-rule="evenodd" clip-rule="evenodd" d="M62.4389 55.8588C62.4389 55.8588 63.7975 55.105 64.9727 55.4369C66.1479 55.7688 66.8464 55.8588 66.8464 55.8588C66.8464 55.8588 67.9193 55.8969 65.4155 54.5683C62.9118 53.2398 62.1637 54.3707 62.1637 54.3707L62.4389 55.8588Z" fill="#949A9B"/>
<path opacity="0.54" fill-rule="evenodd" clip-rule="evenodd" d="M50.4069 66.3213C50.4069 66.3213 51.5021 67.3094 52.0292 68.9955C52.5564 70.6817 52.4887 71.0221 52.4887 71.0221L47.3284 72.4507C47.3284 72.4507 47.6441 71.7188 47.0808 70.3364C47.0808 70.3364 50.1045 71.1393 50.5474 69.2655C50.9902 67.3917 50.4069 66.3213 50.4069 66.3213Z" fill="#D2D7DB"/>
<path fill-rule="evenodd" clip-rule="evenodd" d="M50.4068 66.3213C50.4068 66.3213 51.502 67.7498 51.2458 69.0831C50.9896 70.4164 50.2387 71.6483 50.2387 71.6483L52.4886 71.0245C52.4886 71.0245 52.5139 68.4846 50.4068 66.3213Z" fill="#949A9B"/>
<path fill-rule="evenodd" clip-rule="evenodd" d="M15.7341 69.627C15.7341 69.627 14.4884 71.764 16.3879 74.9092C16.3879 74.9092 17.5397 75.972 17.8164 75.4411C18.0931 74.9101 17.3574 74.6097 17.2588 74.1078C17.1602 73.6059 16.815 71.9245 16.5445 71.2079C16.2741 70.4912 15.7341 69.627 15.7341 69.627Z" fill="#FED194"/>
<path fill-rule="evenodd" clip-rule="evenodd" d="M50.7515 89.1623C50.3886 89.7675 49.8905 95.1278 49.5006 100.071C48.6069 100.08 47.7095 100.064 46.8082 100.023C47.4925 96.5316 48.3382 93.126 48.8844 91.6165C50.1596 88.0894 50.7515 89.1623 50.7515 89.1623Z" fill="#59302A"/>
<path fill-rule="evenodd" clip-rule="evenodd" d="M69.7765 92.8592C69.7341 92.733 69.6884 92.5845 69.6389 92.4111L69.7765 92.8592Z" fill="#59302A"/>
</svg>
