<svg width="22" height="20" viewBox="0 0 22 20" fill="none" xmlns="http://www.w3.org/2000/svg">
<path fill-rule="evenodd" clip-rule="evenodd" d="M4.16666 3.33301C2.78594 3.33301 1.66666 4.4523 1.66666 5.83301V14.1663C1.66666 15.5471 2.78594 16.6663 4.16666 16.6663H15.8333C17.214 16.6663 18.3333 15.5471 18.3333 14.1663V5.83301C18.3333 4.4523 17.214 3.33301 15.8333 3.33301H4.16666ZM3.40942 5.48462C3.54134 5.19837 3.83079 4.99967 4.16666 4.99967H15.8333C16.1692 4.99967 16.4586 5.19837 16.5906 5.48462L10.5116 10.2127C10.2107 10.4468 9.7893 10.4468 9.48837 10.2127L3.40942 5.48462ZM3.33332 7.53687V12.3871L6.34383 9.87838L3.33332 7.53687ZM3.40241 14.4991C3.53086 14.7937 3.82471 14.9997 4.16666 14.9997H15.8333C16.1753 14.9997 16.4691 14.7937 16.5976 14.4991L12.3096 10.9257L11.5348 11.5283C10.6321 12.2304 9.36792 12.2304 8.46514 11.5283L7.69043 10.9257L3.40241 14.4991ZM16.6667 12.3871V7.53687L13.6561 9.87838L16.6667 12.3871Z" fill="#1C294D" fill-opacity="0.5"/>
</svg>
