<svg width="20" height="20" viewBox="0 0 20 20" fill="none" xmlns="http://www.w3.org/2000/svg">
<path fill-rule="evenodd" clip-rule="evenodd" d="M13.5844 9.87971L9.99999 15.7921L6.4156 9.87971C4.67707 7.01205 6.69702 3.30942 9.99999 3.30942C13.303 3.30942 15.3229 7.01205 13.5844 9.87971ZM5.04797 10.7442C2.64609 6.78238 5.43676 1.66699 9.99999 1.66699C14.5632 1.66699 17.3539 6.78238 14.952 10.7442L10.5356 18.029C10.2893 18.4352 9.71067 18.4352 9.46442 18.029L5.04797 10.7442ZM10.0002 5.77305C9.11181 5.77305 8.39167 6.50839 8.39167 7.41547C8.39167 8.32256 9.11181 9.0579 10.0002 9.0579C10.8885 9.0579 11.6086 8.32256 11.6086 7.41547C11.6086 6.50839 10.8885 5.77305 10.0002 5.77305Z" fill="#1C294D" fill-opacity="0.5"/>
</svg>
