<svg width="20" height="20" viewBox="0 0 20 20" fill="none" xmlns="http://www.w3.org/2000/svg">
<path fill-rule="evenodd" clip-rule="evenodd" d="M2.49999 2.5C2.03975 2.5 1.66666 2.8731 1.66666 3.33333C1.66666 3.79357 2.03975 4.16667 2.49999 4.16667V3.33333L2.5 4.16667H2.50003H2.50017H2.50027H2.50039H2.50053H2.5007H2.50158H2.5028H2.50354H2.50394H2.50437H2.50627H2.50851H2.50912H2.50975H2.51108H2.54312H2.66275H3.07291H3.50147L5.43738 12.6847C5.53719 13.1239 5.96692 13.4025 6.40586 13.3186C6.45659 13.3283 6.50895 13.3333 6.56249 13.3333H15C15.3474 13.3333 15.6583 13.1179 15.7803 12.7926L18.2803 6.12594C18.3762 5.87002 18.3406 5.58332 18.1849 5.35867C18.0292 5.13403 17.7733 5 17.5 5H5.40003L4.97927 3.14865C4.89304 2.76924 4.55574 2.5 4.16666 2.5H3.07291H2.66275H2.54312H2.53803H2.53325H2.5321H2.53097H2.52877H2.52459H2.5172H2.51636H2.51555H2.51475H2.51397H2.51322H2.51249H2.51108H2.50627H2.50437H2.50394H2.50354H2.5028H2.5007H2.50039H2.50027H2.50017H2.50003H2.5L2.49999 3.33333V2.5ZM5.77882 6.66667L6.91518 11.6667H14.4225L16.2975 6.66667H5.77882ZM8.33332 14.1667C7.41285 14.1667 6.66666 14.9129 6.66666 15.8333C6.66666 16.7538 7.41285 17.5 8.33332 17.5C9.2538 17.5 9.99999 16.7538 9.99999 15.8333C9.99999 14.9129 9.2538 14.1667 8.33332 14.1667ZM11.6667 15.8333C11.6667 14.9129 12.4128 14.1667 13.3333 14.1667C14.2538 14.1667 15 14.9129 15 15.8333C15 16.7538 14.2538 17.5 13.3333 17.5C12.4128 17.5 11.6667 16.7538 11.6667 15.8333Z" fill="#FF7A00"/>
</svg>
