<svg width="210" height="67" viewBox="0 0 210 67" fill="none" xmlns="http://www.w3.org/2000/svg">
<path d="M8.4375 8.52344H3.35938V10.7266H5.1875C6.52604 10.7266 7.58594 11.0521 8.36719 11.7031C9.15365 12.349 9.54688 13.2214 9.54688 14.3203C9.54688 15.4245 9.15625 16.3125 8.375 16.9844C7.59896 17.651 6.5651 17.9896 5.27344 18H0.992188V6.625H8.4375V8.52344ZM3.35938 12.6172V16.1172H5.22656C5.82552 16.1172 6.30208 15.9531 6.65625 15.625C7.01562 15.2969 7.19531 14.8568 7.19531 14.3047C7.19531 13.7891 7.02344 13.3828 6.67969 13.0859C6.34115 12.7839 5.875 12.6276 5.28125 12.6172H3.35938ZM13.3125 12.0234H14.9297C15.6589 12.0234 16.2995 12.1458 16.8516 12.3906C17.4036 12.6354 17.8255 12.987 18.1172 13.4453C18.4141 13.8984 18.5625 14.4271 18.5625 15.0312C18.5625 15.9219 18.2318 16.6406 17.5703 17.1875C16.9141 17.7292 16.0182 18 14.8828 18H11.0469V9.54688H13.3125V12.0234ZM22.1562 18H19.8984V9.54688H22.1562V18ZM13.3125 13.8359V16.1953H14.9141C15.362 16.1953 15.7057 16.0911 15.9453 15.8828C16.1849 15.6745 16.3047 15.3906 16.3047 15.0312C16.3047 14.6667 16.1875 14.3776 15.9531 14.1641C15.7188 13.9453 15.3724 13.8359 14.9141 13.8359H13.3125ZM27.6641 16.3359C28.0807 16.3359 28.4193 16.2214 28.6797 15.9922C28.9401 15.763 29.0755 15.4583 29.0859 15.0781H31.2031C31.1979 15.651 31.0417 16.1771 30.7344 16.6562C30.4271 17.1302 30.0052 17.5 29.4688 17.7656C28.9375 18.026 28.349 18.1562 27.7031 18.1562C26.4948 18.1562 25.5417 17.7734 24.8438 17.0078C24.1458 16.237 23.7969 15.1745 23.7969 13.8203V13.6719C23.7969 12.3698 24.1432 11.3307 24.8359 10.5547C25.5286 9.77865 26.4792 9.39062 27.6875 9.39062C28.7448 9.39062 29.5911 9.69271 30.2266 10.2969C30.8672 10.8958 31.1927 11.6953 31.2031 12.6953H29.0859C29.0755 12.2578 28.9401 11.9036 28.6797 11.6328C28.4193 11.3568 28.0755 11.2188 27.6484 11.2188C27.1224 11.2188 26.724 11.4115 26.4531 11.7969C26.1875 12.1771 26.0547 12.7969 26.0547 13.6562V13.8906C26.0547 14.7604 26.1875 15.3854 26.4531 15.7656C26.7188 16.1458 27.1224 16.3359 27.6641 16.3359ZM39.5078 11.3594H36.7969V18H34.5312V11.3594H31.8672V9.54688H39.5078V11.3594ZM48.2578 13.8516C48.2578 15.1536 47.9609 16.1979 47.3672 16.9844C46.7786 17.7656 45.9818 18.1562 44.9766 18.1562C44.1224 18.1562 43.4323 17.8594 42.9062 17.2656V21.25H40.6484V9.54688H42.7422L42.8203 10.375C43.3672 9.71875 44.0807 9.39062 44.9609 9.39062C46.0026 9.39062 46.8125 9.77604 47.3906 10.5469C47.9688 11.3177 48.2578 12.3802 48.2578 13.7344V13.8516ZM46 13.6875C46 12.901 45.8594 12.2943 45.5781 11.8672C45.3021 11.4401 44.8984 11.2266 44.3672 11.2266C43.6589 11.2266 43.1719 11.4974 42.9062 12.0391V15.5C43.1823 16.0573 43.6745 16.3359 44.3828 16.3359C45.4609 16.3359 46 15.4531 46 13.6875ZM54.5625 18C54.4583 17.7969 54.3828 17.5443 54.3359 17.2422C53.7891 17.8516 53.0781 18.1562 52.2031 18.1562C51.375 18.1562 50.6875 17.9167 50.1406 17.4375C49.599 16.9583 49.3281 16.3542 49.3281 15.625C49.3281 14.7292 49.6589 14.0417 50.3203 13.5625C50.987 13.0833 51.9479 12.8411 53.2031 12.8359H54.2422V12.3516C54.2422 11.9609 54.1406 11.6484 53.9375 11.4141C53.7396 11.1797 53.4245 11.0625 52.9922 11.0625C52.612 11.0625 52.3125 11.1536 52.0938 11.3359C51.8802 11.5182 51.7734 11.7682 51.7734 12.0859H49.5156C49.5156 11.5964 49.6667 11.1432 49.9688 10.7266C50.2708 10.3099 50.6979 9.98438 51.25 9.75C51.8021 9.51042 52.4219 9.39062 53.1094 9.39062C54.151 9.39062 54.9766 9.65365 55.5859 10.1797C56.2005 10.7005 56.5078 11.4349 56.5078 12.3828V16.0469C56.513 16.849 56.625 17.4557 56.8438 17.8672V18H54.5625ZM52.6953 16.4297C53.0286 16.4297 53.3359 16.3568 53.6172 16.2109C53.8984 16.0599 54.1068 15.8594 54.2422 15.6094V14.1562H53.3984C52.2682 14.1562 51.6667 14.5469 51.5938 15.3281L51.5859 15.4609C51.5859 15.7422 51.6849 15.974 51.8828 16.1562C52.0807 16.3385 52.3516 16.4297 52.6953 16.4297ZM65.2891 9.54688V18H63.0391V15.0781H61.6094L59.9844 18H57.6953L59.5391 14.6953C59.0339 14.4609 58.6432 14.1432 58.3672 13.7422C58.0964 13.3411 57.9609 12.8854 57.9609 12.375C57.9609 11.5573 58.276 10.888 58.9062 10.3672C59.5417 9.84115 60.3906 9.56771 61.4531 9.54688H65.2891ZM61.4922 13.5H63.0391V11.3594H61.5703C61.1693 11.3594 60.8438 11.4661 60.5938 11.6797C60.3438 11.888 60.2188 12.1432 60.2188 12.4453C60.2188 12.7474 60.3385 12.9974 60.5781 13.1953C60.8177 13.3932 61.1224 13.4948 61.4922 13.5ZM71.2969 16.1797C71.8073 15.638 72.1536 15.1016 72.3359 14.5703C72.5182 14.0391 72.6198 13.2865 72.6406 12.3125L72.7031 9.54688H78.9219V16.1797H80.1406V20.5391H77.8828V18H72.875V20.5391H70.5703V16.1797H71.2969ZM73.9609 16.1797H76.6719V11.4141H74.9141L74.8984 12.4297C74.8516 13.9818 74.5391 15.2318 73.9609 16.1797ZM80.9375 13.6953C80.9375 12.8568 81.099 12.1094 81.4219 11.4531C81.7448 10.7969 82.2083 10.2891 82.8125 9.92969C83.4219 9.57031 84.1276 9.39062 84.9297 9.39062C86.0703 9.39062 87 9.73958 87.7188 10.4375C88.4427 11.1354 88.8464 12.0833 88.9297 13.2812L88.9453 13.8594C88.9453 15.1562 88.5833 16.1979 87.8594 16.9844C87.1354 17.7656 86.1641 18.1562 84.9453 18.1562C83.7266 18.1562 82.7526 17.7656 82.0234 16.9844C81.2995 16.2031 80.9375 15.1406 80.9375 13.7969V13.6953ZM83.1953 13.8594C83.1953 14.6615 83.3464 15.276 83.6484 15.7031C83.9505 16.125 84.3828 16.3359 84.9453 16.3359C85.4922 16.3359 85.9193 16.1276 86.2266 15.7109C86.5339 15.2891 86.6875 14.6172 86.6875 13.6953C86.6875 12.9089 86.5339 12.2995 86.2266 11.8672C85.9193 11.4349 85.487 11.2188 84.9297 11.2188C84.3776 11.2188 83.9505 11.4349 83.6484 11.8672C83.3464 12.2943 83.1953 12.9583 83.1953 13.8594ZM93.8516 16.3359C94.2682 16.3359 94.6068 16.2214 94.8672 15.9922C95.1276 15.763 95.263 15.4583 95.2734 15.0781H97.3906C97.3854 15.651 97.2292 16.1771 96.9219 16.6562C96.6146 17.1302 96.1927 17.5 95.6562 17.7656C95.125 18.026 94.5365 18.1562 93.8906 18.1562C92.6823 18.1562 91.7292 17.7734 91.0312 17.0078C90.3333 16.237 89.9844 15.1745 89.9844 13.8203V13.6719C89.9844 12.3698 90.3307 11.3307 91.0234 10.5547C91.7161 9.77865 92.6667 9.39062 93.875 9.39062C94.9323 9.39062 95.7786 9.69271 96.4141 10.2969C97.0547 10.8958 97.3802 11.6953 97.3906 12.6953H95.2734C95.263 12.2578 95.1276 11.9036 94.8672 11.6328C94.6068 11.3568 94.263 11.2188 93.8359 11.2188C93.3099 11.2188 92.9115 11.4115 92.6406 11.7969C92.375 12.1771 92.2422 12.7969 92.2422 13.6562V13.8906C92.2422 14.7604 92.375 15.3854 92.6406 15.7656C92.9062 16.1458 93.3099 16.3359 93.8516 16.3359ZM105.695 11.3594H102.984V18H100.719V11.3594H98.0547V9.54688H105.695V11.3594ZM111.609 18C111.505 17.7969 111.43 17.5443 111.383 17.2422C110.836 17.8516 110.125 18.1562 109.25 18.1562C108.422 18.1562 107.734 17.9167 107.188 17.4375C106.646 16.9583 106.375 16.3542 106.375 15.625C106.375 14.7292 106.706 14.0417 107.367 13.5625C108.034 13.0833 108.995 12.8411 110.25 12.8359H111.289V12.3516C111.289 11.9609 111.188 11.6484 110.984 11.4141C110.786 11.1797 110.471 11.0625 110.039 11.0625C109.659 11.0625 109.359 11.1536 109.141 11.3359C108.927 11.5182 108.82 11.7682 108.82 12.0859H106.562C106.562 11.5964 106.714 11.1432 107.016 10.7266C107.318 10.3099 107.745 9.98438 108.297 9.75C108.849 9.51042 109.469 9.39062 110.156 9.39062C111.198 9.39062 112.023 9.65365 112.633 10.1797C113.247 10.7005 113.555 11.4349 113.555 12.3828V16.0469C113.56 16.849 113.672 17.4557 113.891 17.8672V18H111.609ZM109.742 16.4297C110.076 16.4297 110.383 16.3568 110.664 16.2109C110.945 16.0599 111.154 15.8594 111.289 15.6094V14.1562H110.445C109.315 14.1562 108.714 14.5469 108.641 15.3281L108.633 15.4609C108.633 15.7422 108.732 15.974 108.93 16.1562C109.128 16.3385 109.398 16.4297 109.742 16.4297ZM115.438 18V9.54688H118.969C120.12 9.54688 121.003 9.75 121.617 10.1562C122.232 10.5625 122.539 11.1458 122.539 11.9062C122.539 12.2969 122.409 12.6484 122.148 12.9609C121.893 13.2682 121.518 13.5052 121.023 13.6719C121.628 13.7865 122.102 14.013 122.445 14.3516C122.794 14.6849 122.969 15.0964 122.969 15.5859C122.969 16.3724 122.672 16.9714 122.078 17.3828C121.49 17.7943 120.633 18 119.508 18H115.438ZM117.695 14.4922V16.1953H119.516C120.312 16.1953 120.711 15.9167 120.711 15.3594C120.711 14.7917 120.331 14.5026 119.57 14.4922H117.695ZM117.695 12.9766H119.094C119.885 12.9661 120.281 12.7109 120.281 12.2109C120.281 11.9036 120.172 11.6849 119.953 11.5547C119.74 11.4245 119.411 11.3594 118.969 11.3594H117.695V12.9766ZM127.664 14.8828H126.758V18H124.5V9.54688H126.758V12.7266H127.562L129.406 9.54688H132.258L129.492 13.5703L132.516 18H129.508L127.664 14.8828ZM138.266 18C138.161 17.7969 138.086 17.5443 138.039 17.2422C137.492 17.8516 136.781 18.1562 135.906 18.1562C135.078 18.1562 134.391 17.9167 133.844 17.4375C133.302 16.9583 133.031 16.3542 133.031 15.625C133.031 14.7292 133.362 14.0417 134.023 13.5625C134.69 13.0833 135.651 12.8411 136.906 12.8359H137.945V12.3516C137.945 11.9609 137.844 11.6484 137.641 11.4141C137.443 11.1797 137.128 11.0625 136.695 11.0625C136.315 11.0625 136.016 11.1536 135.797 11.3359C135.583 11.5182 135.477 11.7682 135.477 12.0859H133.219C133.219 11.5964 133.37 11.1432 133.672 10.7266C133.974 10.3099 134.401 9.98438 134.953 9.75C135.505 9.51042 136.125 9.39062 136.812 9.39062C137.854 9.39062 138.68 9.65365 139.289 10.1797C139.904 10.7005 140.211 11.4349 140.211 12.3828V16.0469C140.216 16.849 140.328 17.4557 140.547 17.8672V18H138.266ZM136.398 16.4297C136.732 16.4297 137.039 16.3568 137.32 16.2109C137.602 16.0599 137.81 15.8594 137.945 15.6094V14.1562H137.102C135.971 14.1562 135.37 14.5469 135.297 15.3281L135.289 15.4609C135.289 15.7422 135.388 15.974 135.586 16.1562C135.784 16.3385 136.055 16.4297 136.398 16.4297Z" fill="#1C294D"/>
<path d="M10.1104 44.4404H8.80469V42H1.66113V44.4473H0.348633L0.341797 40.9268H1.15527C1.58366 40.4437 1.92318 39.7965 2.17383 38.9854C2.42904 38.1696 2.58854 37.2764 2.65234 36.3057L2.87109 32.0469H8.8252V40.9268H10.124L10.1104 44.4404ZM2.65234 40.9268H7.50586V33.127H4.13574L3.99219 36.0527C3.93294 37.1966 3.78027 38.1719 3.53418 38.9785C3.29264 39.7852 2.9987 40.4346 2.65234 40.9268ZM11.1494 38.2334C11.1494 37.5088 11.2907 36.8571 11.5732 36.2783C11.8604 35.6995 12.2568 35.2529 12.7627 34.9385C13.2731 34.624 13.8542 34.4668 14.5059 34.4668C15.513 34.4668 16.3265 34.8154 16.9463 35.5127C17.5706 36.21 17.8828 37.1374 17.8828 38.2949V38.3838C17.8828 39.1038 17.7438 39.751 17.4658 40.3252C17.1924 40.8949 16.7982 41.3392 16.2832 41.6582C15.7728 41.9772 15.1849 42.1367 14.5195 42.1367C13.5169 42.1367 12.7035 41.7881 12.0791 41.0908C11.4593 40.3936 11.1494 39.4707 11.1494 38.3223V38.2334ZM12.4209 38.3838C12.4209 39.2041 12.61 39.8626 12.9883 40.3594C13.3711 40.8561 13.8815 41.1045 14.5195 41.1045C15.1621 41.1045 15.6725 40.8538 16.0508 40.3525C16.429 39.8467 16.6182 39.1403 16.6182 38.2334C16.6182 37.4222 16.4245 36.766 16.0371 36.2646C15.6543 35.7588 15.1439 35.5059 14.5059 35.5059C13.8815 35.5059 13.3779 35.7542 12.9951 36.251C12.6123 36.7477 12.4209 37.4587 12.4209 38.3838ZM22.4355 41.1045C22.8867 41.1045 23.2809 40.9678 23.6182 40.6943C23.9554 40.4209 24.1423 40.0791 24.1787 39.6689H25.375C25.3522 40.0928 25.2064 40.4961 24.9375 40.8789C24.6686 41.2617 24.3086 41.5671 23.8574 41.7949C23.4108 42.0228 22.9368 42.1367 22.4355 42.1367C21.4284 42.1367 20.6263 41.8018 20.0293 41.1318C19.4368 40.4574 19.1406 39.5368 19.1406 38.3701V38.1582C19.1406 37.4382 19.2728 36.7979 19.5371 36.2373C19.8014 35.6768 20.1797 35.2415 20.6719 34.9316C21.1686 34.6217 21.7542 34.4668 22.4287 34.4668C23.2581 34.4668 23.9463 34.7152 24.4932 35.2119C25.0446 35.7087 25.3385 36.3535 25.375 37.1465H24.1787C24.1423 36.668 23.96 36.276 23.6318 35.9707C23.3083 35.6608 22.9072 35.5059 22.4287 35.5059C21.7861 35.5059 21.2871 35.7383 20.9316 36.2031C20.5807 36.6634 20.4053 37.3311 20.4053 38.2061V38.4453C20.4053 39.2975 20.5807 39.9538 20.9316 40.4141C21.2826 40.8743 21.7839 41.1045 22.4355 41.1045ZM32.293 35.6289H29.8115V42H28.5469V35.6289H26.1133V34.6035H32.293V35.6289ZM37.9805 42C37.9076 41.8542 37.8483 41.5944 37.8027 41.2207C37.2148 41.8314 36.513 42.1367 35.6973 42.1367C34.9681 42.1367 34.3688 41.9316 33.8994 41.5215C33.4346 41.1068 33.2021 40.5827 33.2021 39.9492C33.2021 39.179 33.4938 38.582 34.0771 38.1582C34.665 37.7298 35.4899 37.5156 36.5518 37.5156H37.7822V36.9346C37.7822 36.4925 37.6501 36.1416 37.3857 35.8818C37.1214 35.6175 36.7318 35.4854 36.2168 35.4854C35.7656 35.4854 35.3874 35.5993 35.082 35.8271C34.7767 36.055 34.624 36.3307 34.624 36.6543H33.3525C33.3525 36.2852 33.4824 35.9297 33.7422 35.5879C34.0065 35.2415 34.362 34.9681 34.8086 34.7676C35.2598 34.5671 35.7542 34.4668 36.292 34.4668C37.1442 34.4668 37.8118 34.681 38.2949 35.1094C38.778 35.5332 39.0286 36.1188 39.0469 36.8662V40.2705C39.0469 40.9495 39.1335 41.4896 39.3066 41.8906V42H37.9805ZM35.8818 41.0361C36.2783 41.0361 36.6543 40.9336 37.0098 40.7285C37.3652 40.5234 37.6227 40.2568 37.7822 39.9287V38.4111H36.791C35.2415 38.4111 34.4668 38.8646 34.4668 39.7715C34.4668 40.168 34.599 40.4779 34.8633 40.7012C35.1276 40.9245 35.4671 41.0361 35.8818 41.0361ZM41.1455 42V34.6035H44.0303C45.0146 34.6035 45.7689 34.7767 46.293 35.123C46.8216 35.4648 47.0859 35.9684 47.0859 36.6338C47.0859 36.9756 46.9834 37.2855 46.7783 37.5635C46.5732 37.8369 46.2702 38.0465 45.8691 38.1924C46.3158 38.2972 46.6735 38.5023 46.9424 38.8076C47.2158 39.113 47.3525 39.4775 47.3525 39.9014C47.3525 40.5804 47.1019 41.0999 46.6006 41.46C46.1038 41.82 45.3997 42 44.4883 42H41.1455ZM42.4102 38.7529V40.9814H44.502C45.0306 40.9814 45.4248 40.8835 45.6846 40.6875C45.9489 40.4915 46.0811 40.2158 46.0811 39.8604C46.0811 39.1221 45.5387 38.7529 44.4541 38.7529H42.4102ZM42.4102 37.7412H44.0439C45.2288 37.7412 45.8213 37.3949 45.8213 36.7021C45.8213 36.0094 45.2607 35.6517 44.1396 35.6289H42.4102V37.7412ZM53.8125 34.6035H55.0771V42H53.8125V36.6064L50.4014 42H49.1367V34.6035H50.4014V40.0039L53.8125 34.6035ZM61.3662 40.3252L63.8818 34.6035H65.4609V42H64.1963V36.6201L61.8037 42H60.9287L58.4883 36.5039V42H57.2236V34.6035H58.8643L61.3662 40.3252ZM74.2178 35.0273C75.1475 35.0273 75.8903 35.3395 76.4463 35.9639C77.0068 36.5837 77.2871 37.4017 77.2871 38.418V38.5342C77.2871 39.2314 77.1527 39.8558 76.8838 40.4072C76.6149 40.9541 76.2275 41.3802 75.7217 41.6855C75.2204 41.9863 74.6416 42.1367 73.9854 42.1367C72.9919 42.1367 72.1921 41.8063 71.5859 41.1455C70.9798 40.4801 70.6768 39.5892 70.6768 38.4727V37.8574C70.6768 36.3034 70.9639 35.0684 71.5381 34.1523C72.1169 33.2363 72.9691 32.6781 74.0947 32.4775C74.7327 32.3636 75.1634 32.2246 75.3867 32.0605C75.61 31.8965 75.7217 31.6709 75.7217 31.3838H76.7607C76.7607 31.9535 76.6309 32.3978 76.3711 32.7168C76.1159 33.0358 75.7057 33.2614 75.1406 33.3936L74.1973 33.6055C73.4453 33.7832 72.8802 34.084 72.502 34.5078C72.1283 34.9271 71.8844 35.4876 71.7705 36.1895C72.4404 35.4147 73.2562 35.0273 74.2178 35.0273ZM73.9717 36.0664C73.3519 36.0664 72.8597 36.276 72.4951 36.6953C72.1305 37.11 71.9482 37.6865 71.9482 38.4248V38.5342C71.9482 39.3271 72.1305 39.9561 72.4951 40.4209C72.8643 40.8812 73.361 41.1113 73.9854 41.1113C74.6143 41.1113 75.111 40.8789 75.4756 40.4141C75.8402 39.9492 76.0225 39.2702 76.0225 38.377C76.0225 37.6797 75.8379 37.1214 75.4688 36.7021C75.1042 36.2783 74.6051 36.0664 73.9717 36.0664ZM81.7783 42.1367C80.7757 42.1367 79.96 41.8086 79.3311 41.1523C78.7021 40.4915 78.3877 39.6097 78.3877 38.5068V38.2744C78.3877 37.5407 78.5267 36.8867 78.8047 36.3125C79.0872 35.7337 79.4792 35.2826 79.9805 34.959C80.4863 34.6309 81.0332 34.4668 81.6211 34.4668C82.5827 34.4668 83.3301 34.7835 83.8633 35.417C84.3965 36.0505 84.6631 36.9574 84.6631 38.1377V38.6641H79.6523C79.6706 39.3932 79.8825 39.9834 80.2881 40.4346C80.6982 40.8812 81.2178 41.1045 81.8467 41.1045C82.2933 41.1045 82.6715 41.0133 82.9814 40.8311C83.2913 40.6488 83.5625 40.4072 83.7949 40.1064L84.5674 40.708C83.9476 41.6605 83.0179 42.1367 81.7783 42.1367ZM81.6211 35.5059C81.1107 35.5059 80.6823 35.6927 80.3359 36.0664C79.9896 36.4355 79.7754 36.9551 79.6934 37.625H83.3984V37.5293C83.362 36.8867 83.1888 36.39 82.8789 36.0391C82.569 35.6836 82.1497 35.5059 81.6211 35.5059ZM89.0996 41.1045C89.5508 41.1045 89.945 40.9678 90.2822 40.6943C90.6195 40.4209 90.8063 40.0791 90.8428 39.6689H92.0391C92.0163 40.0928 91.8704 40.4961 91.6016 40.8789C91.3327 41.2617 90.9727 41.5671 90.5215 41.7949C90.0749 42.0228 89.6009 42.1367 89.0996 42.1367C88.0924 42.1367 87.2904 41.8018 86.6934 41.1318C86.1009 40.4574 85.8047 39.5368 85.8047 38.3701V38.1582C85.8047 37.4382 85.9368 36.7979 86.2012 36.2373C86.4655 35.6768 86.8438 35.2415 87.3359 34.9316C87.8327 34.6217 88.4183 34.4668 89.0928 34.4668C89.9222 34.4668 90.6104 34.7152 91.1572 35.2119C91.7087 35.7087 92.0026 36.3535 92.0391 37.1465H90.8428C90.8063 36.668 90.624 36.276 90.2959 35.9707C89.9723 35.6608 89.5713 35.5059 89.0928 35.5059C88.4502 35.5059 87.9512 35.7383 87.5957 36.2031C87.2448 36.6634 87.0693 37.3311 87.0693 38.2061V38.4453C87.0693 39.2975 87.2448 39.9538 87.5957 40.4141C87.9466 40.8743 88.4479 41.1045 89.0996 41.1045ZM99.5107 42H98.2461V35.6494H94.8418V42H93.5703V34.6035H99.5107V42ZM107.604 34.6035V42H106.333V35.6494H103.817L103.667 38.418C103.585 39.6895 103.371 40.5986 103.024 41.1455C102.683 41.6924 102.138 41.9772 101.391 42H100.885V40.8857L101.247 40.8584C101.657 40.8128 101.951 40.5758 102.129 40.1475C102.307 39.7191 102.421 38.9261 102.471 37.7686L102.607 34.6035H107.604ZM114.201 42C114.128 41.8542 114.069 41.5944 114.023 41.2207C113.436 41.8314 112.734 42.1367 111.918 42.1367C111.189 42.1367 110.59 41.9316 110.12 41.5215C109.655 41.1068 109.423 40.5827 109.423 39.9492C109.423 39.179 109.715 38.582 110.298 38.1582C110.886 37.7298 111.711 37.5156 112.772 37.5156H114.003V36.9346C114.003 36.4925 113.871 36.1416 113.606 35.8818C113.342 35.6175 112.952 35.4854 112.438 35.4854C111.986 35.4854 111.608 35.5993 111.303 35.8271C110.997 36.055 110.845 36.3307 110.845 36.6543H109.573C109.573 36.2852 109.703 35.9297 109.963 35.5879C110.227 35.2415 110.583 34.9681 111.029 34.7676C111.48 34.5671 111.975 34.4668 112.513 34.4668C113.365 34.4668 114.033 34.681 114.516 35.1094C114.999 35.5332 115.249 36.1188 115.268 36.8662V40.2705C115.268 40.9495 115.354 41.4896 115.527 41.8906V42H114.201ZM112.103 41.0361C112.499 41.0361 112.875 40.9336 113.23 40.7285C113.586 40.5234 113.843 40.2568 114.003 39.9287V38.4111H113.012C111.462 38.4111 110.688 38.8646 110.688 39.7715C110.688 40.168 110.82 40.4779 111.084 40.7012C111.348 40.9245 111.688 41.0361 112.103 41.0361ZM122.637 35.6289H120.155V42H118.891V35.6289H116.457V34.6035H122.637V35.6289ZM129.91 42H128.646V38.8418H125.248V42H123.977V34.6035H125.248V37.8096H128.646V34.6035H129.91V42ZM131.612 38.2334C131.612 37.5088 131.754 36.8571 132.036 36.2783C132.323 35.6995 132.72 35.2529 133.226 34.9385C133.736 34.624 134.317 34.4668 134.969 34.4668C135.976 34.4668 136.789 34.8154 137.409 35.5127C138.034 36.21 138.346 37.1374 138.346 38.2949V38.3838C138.346 39.1038 138.207 39.751 137.929 40.3252C137.655 40.8949 137.261 41.3392 136.746 41.6582C136.236 41.9772 135.648 42.1367 134.982 42.1367C133.98 42.1367 133.166 41.7881 132.542 41.0908C131.922 40.3936 131.612 39.4707 131.612 38.3223V38.2334ZM132.884 38.3838C132.884 39.2041 133.073 39.8626 133.451 40.3594C133.834 40.8561 134.344 41.1045 134.982 41.1045C135.625 41.1045 136.135 40.8538 136.514 40.3525C136.892 39.8467 137.081 39.1403 137.081 38.2334C137.081 37.4222 136.887 36.766 136.5 36.2646C136.117 35.7588 135.607 35.5059 134.969 35.5059C134.344 35.5059 133.841 35.7542 133.458 36.251C133.075 36.7477 132.884 37.4587 132.884 38.3838ZM143.069 38.2334C143.069 37.5088 143.211 36.8571 143.493 36.2783C143.78 35.6995 144.177 35.2529 144.683 34.9385C145.193 34.624 145.774 34.4668 146.426 34.4668C147.433 34.4668 148.246 34.8154 148.866 35.5127C149.491 36.21 149.803 37.1374 149.803 38.2949V38.3838C149.803 39.1038 149.664 39.751 149.386 40.3252C149.112 40.8949 148.718 41.3392 148.203 41.6582C147.693 41.9772 147.105 42.1367 146.439 42.1367C145.437 42.1367 144.623 41.7881 143.999 41.0908C143.379 40.3936 143.069 39.4707 143.069 38.3223V38.2334ZM144.341 38.3838C144.341 39.2041 144.53 39.8626 144.908 40.3594C145.291 40.8561 145.801 41.1045 146.439 41.1045C147.082 41.1045 147.592 40.8538 147.971 40.3525C148.349 39.8467 148.538 39.1403 148.538 38.2334C148.538 37.4222 148.344 36.766 147.957 36.2646C147.574 35.7588 147.064 35.5059 146.426 35.5059C145.801 35.5059 145.298 35.7542 144.915 36.251C144.532 36.7477 144.341 37.4587 144.341 38.3838ZM156.734 35.6289H154.253V42H152.988V35.6289H150.555V34.6035H156.734V35.6289ZM167.829 42H161.308V41.0908L164.753 37.2627C165.263 36.6839 165.614 36.2145 165.806 35.8545C166.002 35.4899 166.1 35.1139 166.1 34.7266C166.1 34.207 165.942 33.7809 165.628 33.4482C165.313 33.1156 164.894 32.9492 164.37 32.9492C163.741 32.9492 163.251 33.1292 162.9 33.4893C162.554 33.8447 162.381 34.3415 162.381 34.9795H161.116C161.116 34.0635 161.41 33.3229 161.998 32.7578C162.59 32.1927 163.381 31.9102 164.37 31.9102C165.295 31.9102 166.027 32.154 166.564 32.6416C167.102 33.1247 167.371 33.7695 167.371 34.5762C167.371 35.556 166.747 36.7227 165.498 38.0762L162.832 40.9678H167.829V42ZM175.41 37.7549C175.41 39.236 175.157 40.3366 174.651 41.0566C174.146 41.7767 173.355 42.1367 172.279 42.1367C171.217 42.1367 170.431 41.7858 169.921 41.084C169.41 40.3776 169.146 39.3249 169.128 37.9258V36.2373C169.128 34.7744 169.381 33.6875 169.887 32.9766C170.393 32.2656 171.186 31.9102 172.266 31.9102C173.337 31.9102 174.125 32.2542 174.631 32.9424C175.137 33.626 175.396 34.6833 175.41 36.1143V37.7549ZM174.146 36.0254C174.146 34.9544 173.995 34.1751 173.694 33.6875C173.394 33.1953 172.917 32.9492 172.266 32.9492C171.618 32.9492 171.147 33.193 170.851 33.6807C170.554 34.1683 170.402 34.918 170.393 35.9297V37.9531C170.393 39.0286 170.548 39.8239 170.857 40.3389C171.172 40.8493 171.646 41.1045 172.279 41.1045C172.904 41.1045 173.366 40.863 173.667 40.3799C173.972 39.8968 174.132 39.1357 174.146 38.0967V36.0254ZM183.271 37.7549C183.271 39.236 183.019 40.3366 182.513 41.0566C182.007 41.7767 181.216 42.1367 180.141 42.1367C179.079 42.1367 178.293 41.7858 177.782 41.084C177.272 40.3776 177.007 39.3249 176.989 37.9258V36.2373C176.989 34.7744 177.242 33.6875 177.748 32.9766C178.254 32.2656 179.047 31.9102 180.127 31.9102C181.198 31.9102 181.986 32.2542 182.492 32.9424C182.998 33.626 183.258 34.6833 183.271 36.1143V37.7549ZM182.007 36.0254C182.007 34.9544 181.856 34.1751 181.556 33.6875C181.255 33.1953 180.779 32.9492 180.127 32.9492C179.48 32.9492 179.008 33.193 178.712 33.6807C178.416 34.1683 178.263 34.918 178.254 35.9297V37.9531C178.254 39.0286 178.409 39.8239 178.719 40.3389C179.033 40.8493 179.507 41.1045 180.141 41.1045C180.765 41.1045 181.228 40.863 181.528 40.3799C181.834 39.8968 181.993 39.1357 182.007 38.0967V36.0254ZM191.133 37.7549C191.133 39.236 190.88 40.3366 190.374 41.0566C189.868 41.7767 189.077 42.1367 188.002 42.1367C186.94 42.1367 186.154 41.7858 185.644 41.084C185.133 40.3776 184.869 39.3249 184.851 37.9258V36.2373C184.851 34.7744 185.104 33.6875 185.609 32.9766C186.115 32.2656 186.908 31.9102 187.988 31.9102C189.059 31.9102 189.848 32.2542 190.354 32.9424C190.859 33.626 191.119 34.6833 191.133 36.1143V37.7549ZM189.868 36.0254C189.868 34.9544 189.718 34.1751 189.417 33.6875C189.116 33.1953 188.64 32.9492 187.988 32.9492C187.341 32.9492 186.869 33.193 186.573 33.6807C186.277 34.1683 186.124 34.918 186.115 35.9297V37.9531C186.115 39.0286 186.27 39.8239 186.58 40.3389C186.895 40.8493 187.368 41.1045 188.002 41.1045C188.626 41.1045 189.089 40.863 189.39 40.3799C189.695 39.8968 189.854 39.1357 189.868 38.0967V36.0254ZM200.621 40.1201H198.331V42H197.025V40.1201H195.61V39.04H197.025V38.1035H195.61V37.0303H197.025V32.0469H200.696C201.763 32.0469 202.608 32.318 203.232 32.8604C203.857 33.4027 204.169 34.1364 204.169 35.0615C204.169 36.0322 203.868 36.7819 203.267 37.3105C202.67 37.8346 201.82 38.099 200.717 38.1035H198.331V39.04H200.621V40.1201ZM198.331 37.0303H200.696C201.403 37.0303 201.94 36.8639 202.31 36.5312C202.679 36.1986 202.863 35.7132 202.863 35.0752C202.863 34.4964 202.672 34.0293 202.289 33.6738C201.906 33.3138 201.389 33.1315 200.737 33.127H198.331V37.0303ZM7.00684 62H5.74219V55.6494H2.33789V62H1.06641V54.6035H7.00684V62ZM8.70215 58.2334C8.70215 57.5088 8.84342 56.8571 9.12598 56.2783C9.41309 55.6995 9.80957 55.2529 10.3154 54.9385C10.8258 54.624 11.4069 54.4668 12.0586 54.4668C13.0658 54.4668 13.8792 54.8154 14.499 55.5127C15.1234 56.21 15.4355 57.1374 15.4355 58.2949V58.3838C15.4355 59.1038 15.2965 59.751 15.0186 60.3252C14.7451 60.8949 14.3509 61.3392 13.8359 61.6582C13.3255 61.9772 12.7376 62.1367 12.0723 62.1367C11.0697 62.1367 10.2562 61.7881 9.63184 61.0908C9.01204 60.3936 8.70215 59.4707 8.70215 58.3223V58.2334ZM9.97363 58.3838C9.97363 59.2041 10.1628 59.8626 10.541 60.3594C10.9238 60.8561 11.4342 61.1045 12.0723 61.1045C12.7148 61.1045 13.2253 60.8538 13.6035 60.3525C13.9818 59.8467 14.1709 59.1403 14.1709 58.2334C14.1709 57.4222 13.9772 56.766 13.5898 56.2646C13.207 55.7588 12.6966 55.5059 12.0586 55.5059C11.4342 55.5059 10.9307 55.7542 10.5479 56.251C10.165 56.7477 9.97363 57.4587 9.97363 58.3838ZM20.6104 62V54.6035H23.4951C24.4795 54.6035 25.2337 54.7767 25.7578 55.123C26.2865 55.4648 26.5508 55.9684 26.5508 56.6338C26.5508 56.9756 26.4482 57.2855 26.2432 57.5635C26.0381 57.8369 25.735 58.0465 25.334 58.1924C25.7806 58.2972 26.1383 58.5023 26.4072 58.8076C26.6807 59.113 26.8174 59.4775 26.8174 59.9014C26.8174 60.5804 26.5667 61.0999 26.0654 61.46C25.5687 61.82 24.8646 62 23.9531 62H20.6104ZM21.875 58.7529V60.9814H23.9668C24.4954 60.9814 24.8896 60.8835 25.1494 60.6875C25.4137 60.4915 25.5459 60.2158 25.5459 59.8604C25.5459 59.1221 25.0036 58.7529 23.9189 58.7529H21.875ZM21.875 57.7412H23.5088C24.6937 57.7412 25.2861 57.3949 25.2861 56.7021C25.2861 56.0094 24.7256 55.6517 23.6045 55.6289H21.875V57.7412ZM31.459 61.1045C31.9102 61.1045 32.3044 60.9678 32.6416 60.6943C32.9788 60.4209 33.1657 60.0791 33.2021 59.6689H34.3984C34.3757 60.0928 34.2298 60.4961 33.9609 60.8789C33.6921 61.2617 33.332 61.5671 32.8809 61.7949C32.4342 62.0228 31.9603 62.1367 31.459 62.1367C30.4518 62.1367 29.6497 61.8018 29.0527 61.1318C28.4603 60.4574 28.1641 59.5368 28.1641 58.3701V58.1582C28.1641 57.4382 28.2962 56.7979 28.5605 56.2373C28.8249 55.6768 29.2031 55.2415 29.6953 54.9316C30.1921 54.6217 30.7777 54.4668 31.4521 54.4668C32.2816 54.4668 32.9697 54.7152 33.5166 55.2119C34.068 55.7087 34.362 56.3535 34.3984 57.1465H33.2021C33.1657 56.668 32.9834 56.276 32.6553 55.9707C32.3317 55.6608 31.9307 55.5059 31.4521 55.5059C30.8096 55.5059 30.3105 55.7383 29.9551 56.2031C29.6042 56.6634 29.4287 57.3311 29.4287 58.2061V58.4453C29.4287 59.2975 29.6042 59.9538 29.9551 60.4141C30.306 60.8743 30.8073 61.1045 31.459 61.1045ZM38.8896 62.1367C37.887 62.1367 37.0713 61.8086 36.4424 61.1523C35.8135 60.4915 35.499 59.6097 35.499 58.5068V58.2744C35.499 57.5407 35.638 56.8867 35.916 56.3125C36.1986 55.7337 36.5905 55.2826 37.0918 54.959C37.5977 54.6309 38.1445 54.4668 38.7324 54.4668C39.694 54.4668 40.4414 54.7835 40.9746 55.417C41.5078 56.0505 41.7744 56.9574 41.7744 58.1377V58.6641H36.7637C36.7819 59.3932 36.9938 59.9834 37.3994 60.4346C37.8096 60.8812 38.3291 61.1045 38.958 61.1045C39.4046 61.1045 39.7829 61.0133 40.0928 60.8311C40.4027 60.6488 40.6738 60.4072 40.9062 60.1064L41.6787 60.708C41.0589 61.6605 40.1292 62.1367 38.8896 62.1367ZM38.7324 55.5059C38.222 55.5059 37.7936 55.6927 37.4473 56.0664C37.1009 56.4355 36.8867 56.9551 36.8047 57.625H40.5098V57.5293C40.4733 56.8867 40.3001 56.39 39.9902 56.0391C39.6803 55.6836 39.2611 55.5059 38.7324 55.5059ZM48.0293 54.6035H49.2939V62H48.0293V56.6064L44.6182 62H43.3535V54.6035H44.6182V60.0039L48.0293 54.6035ZM48.3711 51.9102C48.3711 52.4616 48.182 52.9059 47.8037 53.2432C47.43 53.5758 46.9378 53.7422 46.3271 53.7422C45.7165 53.7422 45.222 53.5736 44.8438 53.2363C44.4655 52.8991 44.2764 52.457 44.2764 51.9102H45.3086C45.3086 52.2292 45.3952 52.4798 45.5684 52.6621C45.7415 52.8398 45.9945 52.9287 46.3271 52.9287C46.6462 52.9287 46.8945 52.8398 47.0723 52.6621C47.2546 52.4844 47.3457 52.2337 47.3457 51.9102H48.3711ZM56.3076 58.1035V62H54.9951V52.0469H58.666C59.7552 52.0469 60.6074 52.3249 61.2227 52.8809C61.8424 53.4368 62.1523 54.1729 62.1523 55.0889C62.1523 56.055 61.8493 56.8001 61.2432 57.3242C60.6416 57.8438 59.778 58.1035 58.6523 58.1035H56.3076ZM56.3076 57.0303H58.666C59.3678 57.0303 59.9056 56.8662 60.2793 56.5381C60.653 56.2054 60.8398 55.7269 60.8398 55.1025C60.8398 54.5101 60.653 54.0361 60.2793 53.6807C59.9056 53.3252 59.3929 53.1406 58.7412 53.127H56.3076V57.0303ZM63.1982 58.2334C63.1982 57.5088 63.3395 56.8571 63.6221 56.2783C63.9092 55.6995 64.3057 55.2529 64.8115 54.9385C65.3219 54.624 65.903 54.4668 66.5547 54.4668C67.5618 54.4668 68.3753 54.8154 68.9951 55.5127C69.6195 56.21 69.9316 57.1374 69.9316 58.2949V58.3838C69.9316 59.1038 69.7926 59.751 69.5146 60.3252C69.2412 60.8949 68.847 61.3392 68.332 61.6582C67.8216 61.9772 67.2337 62.1367 66.5684 62.1367C65.5658 62.1367 64.7523 61.7881 64.1279 61.0908C63.5081 60.3936 63.1982 59.4707 63.1982 58.3223V58.2334ZM64.4697 58.3838C64.4697 59.2041 64.6589 59.8626 65.0371 60.3594C65.4199 60.8561 65.9303 61.1045 66.5684 61.1045C67.2109 61.1045 67.7214 60.8538 68.0996 60.3525C68.4779 59.8467 68.667 59.1403 68.667 58.2334C68.667 57.4222 68.4733 56.766 68.0859 56.2646C67.7031 55.7588 67.1927 55.5059 66.5547 55.5059C65.9303 55.5059 65.4268 55.7542 65.0439 56.251C64.6611 56.7477 64.4697 57.4587 64.4697 58.3838ZM74.4844 61.1045C74.9355 61.1045 75.3298 60.9678 75.667 60.6943C76.0042 60.4209 76.1911 60.0791 76.2275 59.6689H77.4238C77.401 60.0928 77.2552 60.4961 76.9863 60.8789C76.7174 61.2617 76.3574 61.5671 75.9062 61.7949C75.4596 62.0228 74.9857 62.1367 74.4844 62.1367C73.4772 62.1367 72.6751 61.8018 72.0781 61.1318C71.4857 60.4574 71.1895 59.5368 71.1895 58.3701V58.1582C71.1895 57.4382 71.3216 56.7979 71.5859 56.2373C71.8503 55.6768 72.2285 55.2415 72.7207 54.9316C73.2174 54.6217 73.8031 54.4668 74.4775 54.4668C75.307 54.4668 75.9951 54.7152 76.542 55.2119C77.0934 55.7087 77.3874 56.3535 77.4238 57.1465H76.2275C76.1911 56.668 76.0088 56.276 75.6807 55.9707C75.3571 55.6608 74.9561 55.5059 74.4775 55.5059C73.835 55.5059 73.3359 55.7383 72.9805 56.2031C72.6296 56.6634 72.4541 57.3311 72.4541 58.2061V58.4453C72.4541 59.2975 72.6296 59.9538 72.9805 60.4141C73.3314 60.8743 73.8327 61.1045 74.4844 61.1045ZM81.8125 61.1045C82.2637 61.1045 82.6579 60.9678 82.9951 60.6943C83.3324 60.4209 83.5192 60.0791 83.5557 59.6689H84.752C84.7292 60.0928 84.5833 60.4961 84.3145 60.8789C84.0456 61.2617 83.6855 61.5671 83.2344 61.7949C82.7878 62.0228 82.3138 62.1367 81.8125 62.1367C80.8053 62.1367 80.0033 61.8018 79.4062 61.1318C78.8138 60.4574 78.5176 59.5368 78.5176 58.3701V58.1582C78.5176 57.4382 78.6497 56.7979 78.9141 56.2373C79.1784 55.6768 79.5566 55.2415 80.0488 54.9316C80.5456 54.6217 81.1312 54.4668 81.8057 54.4668C82.6351 54.4668 83.3232 54.7152 83.8701 55.2119C84.4215 55.7087 84.7155 56.3535 84.752 57.1465H83.5557C83.5192 56.668 83.3369 56.276 83.0088 55.9707C82.6852 55.6608 82.2842 55.5059 81.8057 55.5059C81.1631 55.5059 80.6641 55.7383 80.3086 56.2031C79.9577 56.6634 79.7822 57.3311 79.7822 58.2061V58.4453C79.7822 59.2975 79.9577 59.9538 80.3086 60.4141C80.6595 60.8743 81.1608 61.1045 81.8125 61.1045ZM90.959 54.6035H92.2236V62H90.959V56.6064L87.5479 62H86.2832V54.6035H87.5479V60.0039L90.959 54.6035ZM99.0391 54.6035H100.304V62H99.0391V56.6064L95.6279 62H94.3633V54.6035H95.6279V60.0039L99.0391 54.6035Z" fill="#1C294D" fill-opacity="0.5"/>
</svg>
